<?xml version="1.0" encoding="UTF-8" standalone="no"?>
<svg width="394px" height="194px" viewBox="0 0 394 194" version="1.1" xmlns="http://www.w3.org/2000/svg" xmlns:xlink="http://www.w3.org/1999/xlink">
    <!-- Generator: Sketch 3.7.1 (28215) - http://www.bohemiancoding.com/sketch -->
    <title>elephants</title>
    <desc>Created with Sketch.</desc>
    <defs>
        <polygon id="path-1" points="0.205809309 139 198.595 139 198.595 69.5344 198.595 0.0688 0.205809309 0.0688 0.205809309 139"></polygon>
    </defs>
    <g id="Page-1" stroke="none" stroke-width="1" fill="none" fill-rule="evenodd">
        <g id="elephants">
            <g id="Group-9" transform="translate(192.000000, 0.000000)" fill="#98D7E2">
                <path d="M1.277,0 C1.277,0 8.152,1.466 8.152,14.839 C8.152,28.212 14.871,27.249 14.871,27.249 C14.871,27.249 28,24.139 30.481,19.467 C32.963,14.796 39.896,11.568 39.896,11.568 C39.896,11.568 40.351,7.574 41.933,6.962 C43.515,6.35 48.266,-4.397 62.794,3.074 C77.321,10.546 95.551,19.131 99.005,17.249 C102.459,15.367 159.024,14.941 163.616,59.712 C168.207,104.483 195.743,89.649 196.911,89.379 C198.079,89.109 203.681,89.488 200.762,91.344 C197.844,93.2 169.389,108.676 157.056,78.576 C157.056,78.576 136.532,106.736 125.371,102.326 C114.21,97.916 122.504,134.884 119.383,136.913 C116.262,138.942 116.789,141.535 112.327,141.135 C107.865,140.736 95.48,133.163 95.99,132.601 C96.501,132.04 99.857,129.195 99.199,128.904 C98.541,128.613 98.057,130.893 94.986,129.535 C91.915,128.178 87.188,127.008 87.381,125.386 C87.574,123.764 94.361,120.868 94.555,120.429 C94.748,119.99 103.954,108.065 102.266,104.173 C100.579,100.28 97.48,84.751 98.501,83.628 C99.521,82.506 78.571,77.701 75.715,74.079 C75.715,74.079 70.651,87.311 63.979,86.983 C57.306,86.655 44.134,87.386 39.563,90.609 C34.991,93.833 35.811,102.061 34.398,101.699 C32.985,101.336 29.327,98.933 28.695,99.177 C28.062,99.422 27.286,101.177 24.338,100.136 C21.39,99.094 9.642,93.638 10.005,92.225 C10.367,90.812 17.786,86.488 20.392,87.116 C20.392,87.116 17.114,79.111 42.828,66.618 C42.828,66.618 50.865,54.963 49.519,51.484 C49.519,51.484 38.848,48.339 36.19,46.64 C36.19,46.64 28.181,47.556 26.752,51.382 C26.752,51.382 26.034,45.296 29.218,42.246 C29.218,42.246 20.977,49.615 11.76,43.18 C11.76,43.18 24.422,43.01 25.611,40.913 C25.611,40.913 21.545,41.214 17.648,40.539 C13.751,39.865 7.022,39.774 4.512,37.092 C4.512,37.092 8.777,36.88 8.997,36.977 C9.216,37.074 1.096,30.599 0.694,24.653 C0.293,18.706 2.921,5.447 2.177,4.856 C1.433,4.265 0,3.369 0,3.369 L1.277,0 Z" id="Fill-1"></path>
            </g>
            <g id="Group-19" transform="translate(0.000000, 55.000000)">
                <g id="Group-12">
                    <mask id="mask-2" fill="white">
                        <use xlink:href="#path-1"></use>
                    </mask>
                    <g id="Clip-11"></g>
                    <path d="M197.338,0.0688 C197.338,0.0688 190.572,1.5118 190.572,14.6718 C190.573,27.8318 183.961,26.8848 183.961,26.8848 C183.961,26.8848 171.04,23.8238 168.598,19.2268 C166.156,14.6288 159.333,11.4528 159.333,11.4528 C159.333,11.4528 158.885,7.5218 157.329,6.9198 C155.772,6.3178 151.096,-4.2592 136.8,3.0938 C122.504,10.4468 104.563,18.8948 101.164,17.0438 C97.765,15.1918 42.1,14.7718 37.581,58.8308 C33.062,102.8908 5.965,88.2918 4.815,88.0268 C3.665,87.7608 -1.847,88.1338 1.025,89.9598 C3.897,91.7868 31.9,107.0168 44.037,77.3948 C44.037,77.3948 64.234,105.1078 75.217,100.7678 C86.201,96.4278 78.039,132.8078 81.11,134.8048 C84.182,136.8008 83.663,139.3528 88.054,138.9598 C92.445,138.5668 104.633,131.1138 104.131,130.5618 C103.629,130.0098 100.326,127.2088 100.974,126.9228 C101.621,126.6368 102.097,128.8798 105.119,127.5438 C108.141,126.2078 112.793,125.0568 112.603,123.4608 C112.414,121.8648 105.735,119.0148 105.544,118.5828 C105.353,118.1508 96.294,106.4158 97.955,102.5848 C99.616,98.7538 102.665,83.4718 101.66,82.3668 C100.656,81.2628 121.273,76.5348 124.084,72.9698 C124.084,72.9698 129.067,85.9908 135.633,85.6678 C142.2,85.3458 155.162,86.0658 159.661,89.2368 C164.16,92.4088 163.354,100.5068 164.744,100.1498 C166.135,99.7938 169.734,97.4278 170.356,97.6688 C170.979,97.9098 171.742,99.6368 174.644,98.6118 C177.545,97.5868 189.106,92.2178 188.749,90.8268 C188.392,89.4368 181.092,85.1808 178.527,85.7988 C178.527,85.7988 181.753,77.9218 156.448,65.6278 C156.448,65.6278 148.538,54.1578 149.863,50.7338 C149.863,50.7338 160.365,47.6388 162.98,45.9668 C162.98,45.9668 170.862,46.8688 172.269,50.6338 C172.269,50.6338 172.975,44.6438 169.842,41.6428 C169.842,41.6428 177.951,48.8948 187.021,42.5628 C187.021,42.5628 174.561,42.3948 173.391,40.3318 C173.391,40.3318 177.392,40.6268 181.227,39.9638 C185.063,39.2998 191.685,39.2108 194.154,36.5708 C194.154,36.5708 189.957,36.3618 189.741,36.4578 C189.525,36.5528 197.516,30.1808 197.911,24.3298 C198.307,18.4778 195.72,5.4288 196.452,4.8468 C197.184,4.2658 198.595,3.3838 198.595,3.3838 L197.338,0.0688 Z" id="Fill-10" fill="#46A1BD" mask="url(#mask-2)"></path>
                </g>
            </g>
        </g>
    </g>
</svg>