<?xml version="1.0" encoding="UTF-8" standalone="no"?>
<svg width="308px" height="175px" viewBox="0 0 308 175" version="1.1" xmlns="http://www.w3.org/2000/svg" xmlns:xlink="http://www.w3.org/1999/xlink">
    <!-- Generator: Sketch 3.7.1 (28215) - http://www.bohemiancoding.com/sketch -->
    <title>hands-with-water</title>
    <desc>Created with Sketch.</desc>
    <defs>
        <polygon id="path-1" points="0.4934 173 155.723 173 155.723 0.712 0.4934 0.712"></polygon>
    </defs>
    <g id="Page-1" stroke="none" stroke-width="1" fill="none" fill-rule="evenodd">
        <g id="hands-with-water">
            <path d="M152.4933,157.3926 C152.4933,157.3926 143.4603,136.6706 159.9933,136.9606 C159.9933,136.9606 156.8023,109.9856 182.0373,120.1376 C182.0373,120.1376 177.4943,91.1136 207.2533,106.7536" id="Fill-1" fill="#98D8E3"></path>
            <path d="M152.4933,157.3926 C151.5993,155.3176 150.8983,153.1566 150.4123,150.9416 C149.9443,148.7286 149.6773,146.4376 149.9693,144.1516 C150.0583,143.5826 150.1743,143.0186 150.3423,142.4636 C150.5203,141.9126 150.7313,141.3706 151.0133,140.8586 C151.2943,140.3496 151.6223,139.8576 152.0223,139.4296 C152.2053,139.1976 152.4273,139.0056 152.6503,138.8156 C152.8653,138.6126 153.0953,138.4316 153.3473,138.2806 C153.8223,137.9316 154.3613,137.6956 154.8913,137.4516 C155.4403,137.2596 155.9893,137.0556 156.5603,136.9546 C157.1243,136.8026 157.7013,136.7636 158.2743,136.6886 C158.8483,136.6316 159.4233,136.6416 159.9993,136.6146 L159.6493,137.0016 C159.4803,135.4686 159.4613,133.9536 159.5403,132.4286 C159.6203,130.9076 159.8053,129.3876 160.1393,127.8926 C160.3103,127.1456 160.5213,126.4076 160.7653,125.6776 L161.1813,124.5986 L161.6753,123.5496 L162.2543,122.5406 L162.9263,121.5846 L163.6933,120.6976 L164.5533,119.8976 L165.5023,119.1996 L166.5273,118.6186 C167.2393,118.2926 167.9693,118.0016 168.7323,117.8246 C169.1053,117.7026 169.4933,117.6596 169.8773,117.5976 C170.2623,117.5376 170.6463,117.4666 171.0343,117.4686 L172.1943,117.4246 L173.3493,117.4906 C174.1223,117.5096 174.8713,117.6886 175.6333,117.7806 C176.3813,117.9386 177.1273,118.1076 177.8673,118.2936 C178.5953,118.5196 179.3293,118.7266 180.0503,118.9696 L182.1863,119.7676 L181.6433,120.1996 C181.4183,118.5206 181.3673,116.8616 181.4303,115.1876 C181.4943,113.5186 181.7103,111.8476 182.1433,110.2206 C182.2483,109.8136 182.3663,109.4086 182.5183,109.0146 C182.6483,108.6126 182.8133,108.2236 182.9923,107.8396 C183.3333,107.0656 183.7783,106.3356 184.2803,105.6496 C184.5313,105.3056 184.8353,105.0026 185.1113,104.6786 C185.4253,104.3916 185.7423,104.1026 186.0723,103.8346 C186.4313,103.6046 186.7693,103.3396 187.1453,103.1406 C187.5323,102.9626 187.9003,102.7406 188.3023,102.6036 C188.7073,102.4786 189.1023,102.3156 189.5143,102.2246 L190.7583,101.9896 L192.0163,101.9026 C192.4353,101.8716 192.8533,101.9226 193.2713,101.9286 C193.6903,101.9316 194.1063,101.9696 194.5173,102.0396 L195.7543,102.2216 C196.5593,102.4276 197.3823,102.5636 198.1693,102.8286 C198.9563,103.0866 199.7583,103.3006 200.5213,103.6236 C201.2893,103.9306 202.0713,104.2006 202.8153,104.5636 C203.5613,104.9166 204.3283,105.2246 205.0563,105.6156 L207.2533,106.7536 L205.0213,105.6896 C204.2823,105.3236 203.5063,105.0416 202.7513,104.7146 C201.9993,104.3776 201.2113,104.1346 200.4393,103.8556 C199.6713,103.5596 198.8693,103.3736 198.0823,103.1446 C197.2963,102.9086 196.4803,102.8026 195.6833,102.6246 L194.4683,102.4816 C194.0643,102.4196 193.6583,102.3906 193.2513,102.3946 C192.8463,102.3966 192.4383,102.3536 192.0353,102.3916 L190.8283,102.4986 L189.6463,102.7446 C189.2563,102.8376 188.8873,103.0006 188.5073,103.1236 C188.1313,103.2586 187.7923,103.4766 187.4323,103.6466 C187.0843,103.8386 186.7743,104.0946 186.4433,104.3126 C186.1403,104.5696 185.8513,104.8436 185.5623,105.1156 C185.3113,105.4256 185.0323,105.7106 184.8033,106.0376 C184.3453,106.6906 183.9383,107.3826 183.6293,108.1246 C183.2993,108.8556 183.0573,109.6276 182.8563,110.4086 C182.4503,111.9716 182.2493,113.5926 182.1973,115.2176 C182.1443,116.8376 182.2093,118.4866 182.4313,120.0756 L182.5253,120.7416 L181.8883,120.5076 L179.7883,119.7386 C179.0813,119.5056 178.3643,119.3086 177.6533,119.0916 C176.9333,118.9156 176.2083,118.7556 175.4833,118.6066 C174.7513,118.5246 174.0243,118.3536 173.2883,118.3426 L172.1883,118.2856 L171.0923,118.3346 C170.7253,118.3356 170.3673,118.3986 170.0073,118.4536 C169.6483,118.5086 169.2843,118.5446 168.9393,118.6576 C168.2303,118.8166 167.5583,119.0826 166.9003,119.3766 L165.9563,119.9026 L165.0823,120.5386 L164.2853,121.2706 L163.5703,122.0886 L162.9373,122.9766 L162.3863,123.9216 L161.9133,124.9126 L161.5103,125.9396 C161.2723,126.6366 161.0653,127.3446 160.8963,128.0646 C160.5633,129.5066 160.3743,130.9856 160.2873,132.4696 C160.2063,133.9506 160.2093,135.4566 160.3373,136.9206 L160.3703,137.2956 L159.9873,137.3066 C159.4343,137.3236 158.8773,137.3026 158.3273,137.3476 C157.7803,137.4096 157.2243,137.4356 156.6913,137.5706 C156.1453,137.6556 155.6303,137.8386 155.1103,138.0086 C154.6133,138.2276 154.1053,138.4366 153.6613,138.7516 C153.4243,138.8876 153.2093,139.0506 153.0083,139.2346 C152.7983,139.4066 152.5893,139.5796 152.4173,139.7916 C152.0383,140.1806 151.7263,140.6316 151.4543,141.1026 C151.1813,141.5766 150.9723,142.0856 150.7933,142.6066 C150.6233,143.1316 150.5023,143.6706 150.4053,144.2176 C150.3303,144.7676 150.2593,145.3186 150.2383,145.8776 C150.2153,146.4346 150.2083,146.9946 150.2413,147.5536 C150.2913,148.6726 150.4303,149.7906 150.6313,150.8976 C151.0403,153.1116 151.6683,155.2906 152.4933,157.3926" id="Fill-3" fill="#FEFEFE"></path>
            <g id="Group-7" transform="translate(152.000000, 1.954000)">
                <mask id="mask-2" fill="white">
                    <use xlink:href="#path-1"></use>
                </mask>
                <g id="Clip-6"></g>
                <path d="M7.9934,135.007 C7.9934,135.007 1.4054,80.966 4.2224,67.134 C7.0404,53.302 29.7474,52.922 29.7474,52.922 C30.0374,38.129 73.2554,17.825 78.7664,19.275 C84.2774,20.726 108.3524,0.712 108.3524,0.712 C108.3524,0.712 150.9904,9.993 155.0514,29.427 C159.1114,48.861 143.4484,60.753 143.4484,60.753 C143.4484,60.753 125.7554,91.499 124.8854,97.3 C124.0154,103.101 121.4044,131.526 111.2524,135.587 C101.1014,139.648 95.5894,137.908 95.5894,137.908 C95.5894,137.908 96.4604,157.921 71.8054,155.021 C71.8054,155.021 66.0044,171.264 43.3804,165.463 C43.3804,165.463 35.2584,177.355 21.3364,171.264 C7.4134,165.173 0.4934,155.439 0.4934,155.439" id="Fill-5" fill="#98D8E3" mask="url(#mask-2)"></path>
            </g>
            <path d="M299.1555,59.1385 C298.8225,55.4175 295.9435,51.3025 295.9435,51.3025 C295.9435,51.3025 289.4125,44.5695 287.9625,42.2495" id="Fill-8" fill="#98D8E3"></path>
            <path d="M299.1555,59.1385 C299.0005,58.4345 298.8155,57.7575 298.5675,57.0965 C298.3045,56.4405 298.0365,55.7925 297.7225,55.1635 C297.0995,53.9085 296.3815,52.6815 295.5985,51.5445 L295.6405,51.5955 C294.2195,50.1605 292.8545,48.6775 291.5365,47.1465 C290.8855,46.3745 290.2425,45.5945 289.6315,44.7875 C289.0335,43.9725 288.4265,43.1515 287.9625,42.2495 C288.6035,43.0305 289.2965,43.7535 289.9945,44.4785 L292.0865,46.6475 L296.2455,51.0095 L296.2715,51.0375 L296.2875,51.0615 C296.7045,51.6755 297.0465,52.3035 297.3855,52.9445 C297.7235,53.5845 298.0085,54.2505 298.2785,54.9205 C298.5295,55.5995 298.7565,56.2885 298.9105,56.9955 C298.9755,57.3525 299.0525,57.7035 299.0895,58.0655 C299.1495,58.4235 299.1425,58.7805 299.1555,59.1385" id="Fill-10" fill="#FEFEFE"></path>
            <path d="M281.2367,88.8849 C281.6637,89.1069 282.1027,89.3069 282.5517,89.4859 C285.6927,90.7369 289.3227,90.9779 292.8927,90.9779 C300.7247,90.9779 297.8237,77.3459 298.9837,73.5749 C300.1447,69.8039 297.8237,65.4279 298.9837,61.3679 C299.1837,60.6689 299.2247,59.9119 299.1557,59.1389 L282.0457,66.1339" id="Fill-12" fill="#98D8E3"></path>
            <path d="M281.2367,88.8849 C278.0947,87.2499 275.5797,84.3779 274.3297,79.3759 C271.7187,68.9339 270.8487,70.6739 270.5587,65.4529 C270.2687,60.2329 265.0477,58.7819 265.0477,58.7819" id="Fill-14" fill="#98D8E3"></path>
            <path d="M281.2367,88.8849 C281.2367,88.8849 281.1107,88.8239 280.8727,88.7109 C280.6367,88.5999 280.2897,88.4239 279.8707,88.1619 C279.0387,87.6419 277.8677,86.7949 276.8087,85.4409 C275.7457,84.0999 274.7887,82.3019 274.1777,80.2519 C273.8997,79.2369 273.6127,78.1889 273.3207,77.1229 C273.0237,76.0699 272.7067,74.9999 272.3557,73.9459 C272.0247,72.8839 271.6607,71.8399 271.2737,70.8089 C270.8837,69.7879 270.5127,68.6919 270.3867,67.6179 C270.3127,67.0839 270.2587,66.5619 270.2417,66.0509 C270.2277,65.8059 270.2277,65.5199 270.2037,65.3179 C270.1817,65.0719 270.1597,64.8289 270.1377,64.5889 C269.9937,63.7079 269.6787,62.8699 269.2587,62.1809 C268.4047,60.7949 267.2547,59.9399 266.4237,59.4569 C265.5857,58.9599 265.0477,58.7819 265.0477,58.7819 C265.0477,58.7819 265.1857,58.8109 265.4367,58.8899 C265.6877,58.9699 266.0577,59.0899 266.5027,59.3069 C266.9507,59.5159 267.4797,59.8109 268.0357,60.2299 C268.5907,60.6459 269.1897,61.1839 269.6697,61.9139 C270.1597,62.6349 270.5527,63.5029 270.7687,64.5149 C270.8027,64.7529 270.8377,64.9939 270.8727,65.2389 C270.9167,65.5259 270.9257,65.7399 270.9537,65.9989 C271.0057,66.4959 271.0477,67.0019 271.1327,67.5059 C271.2727,68.5209 271.6207,69.4909 272.0327,70.5199 C272.4377,71.5459 272.8327,72.6089 273.1827,73.6799 C273.5207,74.7569 273.8207,75.8409 274.1037,76.9139 C274.3757,77.9789 274.6427,79.0279 274.9017,80.0429 C275.4587,82.0249 276.2297,83.8099 277.1987,85.1489 C278.1527,86.4959 279.1797,87.4489 279.9657,88.0229 C280.7447,88.6039 281.2367,88.8849 281.2367,88.8849" id="Fill-16" fill="#FEFEFE"></path>
            <path d="M214.2336,110.856 C214.2336,110.856 216.2046,112.812 219.1606,115.745 C220.6476,117.2 222.3816,118.897 224.2406,120.715 C226.1056,122.525 228.1106,124.44 230.1606,126.302 C232.1876,128.19 234.2356,130.056 236.2286,131.717 C237.2166,132.558 238.1736,133.368 239.1066,134.104 C239.5696,134.476 240.0206,134.839 240.4566,135.189 C240.9056,135.521 241.3406,135.841 241.7576,136.149 C242.1756,136.457 242.5756,136.752 242.9556,137.034 C243.3486,137.295 243.7216,137.543 244.0726,137.776 C244.7766,138.238 245.3756,138.672 245.9206,138.936 C246.9826,139.525 247.5896,139.861 247.5896,139.861 C247.5896,139.861 246.9546,139.579 245.8416,139.086 C245.2726,138.858 244.6446,138.466 243.9026,138.052 C243.5326,137.842 243.1396,137.619 242.7246,137.383 C242.3286,137.118 241.9116,136.84 241.4776,136.55 C241.0436,136.258 240.5916,135.954 240.1236,135.64 C239.6696,135.306 239.2006,134.961 238.7186,134.607 C238.2376,134.25 237.7436,133.884 237.2386,133.509 C236.7506,133.113 236.2526,132.709 235.7456,132.297 C233.7166,130.654 231.6306,128.81 229.5706,126.941 C227.5386,125.041 225.5546,123.092 223.7106,121.251 C221.8756,119.399 220.2246,117.612 218.8086,116.084 C217.3906,114.556 216.2656,113.231 215.4646,112.317 C214.6706,111.396 214.2336,110.856 214.2336,110.856" id="Fill-18" fill="#FEFEFE"></path>
            <path d="M182.0375,120.1378 C182.0375,120.1378 182.5995,120.8148 183.5815,121.9998 C184.0795,122.5858 184.6825,123.2988 185.3755,124.1158 C186.0775,124.9238 186.8705,125.8358 187.7345,126.8308 C189.4725,128.8108 191.5485,131.0778 193.8115,133.4658 C194.9375,134.6658 196.1125,135.8938 197.3435,137.1048 C198.5485,138.3428 199.8285,139.5418 201.1045,140.7438 C202.3465,141.9838 203.6875,143.1128 204.9555,144.2828 C206.2425,145.4318 207.5755,146.4838 208.8305,147.5448 C210.1325,148.5448 211.3915,149.5118 212.5845,150.4288 C213.8285,151.2768 215.0035,152.0788 216.0885,152.8188 C217.2015,153.5158 218.2565,154.0958 219.1705,154.6518 C220.0745,155.2308 220.9355,155.5888 221.6265,155.9238 C223.0135,156.5928 223.8055,156.9748 223.8055,156.9748 C223.8055,156.9748 222.9875,156.6488 221.5575,156.0788 C220.8465,155.7818 219.9565,155.4678 219.0205,154.9388 C218.0715,154.4358 216.9725,153.9098 215.8325,153.2368 C214.7135,152.5278 213.5015,151.7598 212.2195,150.9478 C210.9915,150.0588 209.6735,149.1468 208.3625,148.1368 C207.0875,147.0838 205.7315,146.0378 204.4235,144.8958 C203.1345,143.7328 201.7675,142.6108 200.5075,141.3758 C199.2375,140.1518 197.9645,138.9318 196.7675,137.6748 C195.5445,136.4438 194.3765,135.1968 193.2595,133.9798 C192.1185,132.7848 191.0995,131.5538 190.1005,130.4158 C189.1285,129.2558 188.2095,128.1588 187.3615,127.1458 C185.6935,125.0978 184.3685,123.3388 183.4495,122.1038 C182.5305,120.8668 182.0375,120.1378 182.0375,120.1378" id="Fill-20" fill="#FEFEFE"></path>
            <path d="M159.9934,136.961 C159.9934,136.961 162.0364,139.088 165.1004,142.279 C166.6254,143.879 168.4494,145.702 170.3864,147.669 C172.3234,149.635 174.4214,151.702 176.5654,153.717 C178.6834,155.759 180.8464,157.753 182.9444,159.538 C184.0014,160.42 185.0154,161.282 186.0044,162.066 C186.9944,162.847 187.9484,163.564 188.8544,164.185 C189.7624,164.806 190.6084,165.354 191.3834,165.796 C192.1544,166.248 192.8614,166.574 193.4504,166.828 C194.0514,167.048 194.5234,167.233 194.8644,167.291 C195.2004,167.373 195.3804,167.417 195.3804,167.417 C195.3804,167.417 195.1974,167.389 194.8554,167.337 C194.5074,167.306 194.0154,167.176 193.3924,166.987 C192.1634,166.57 190.4614,165.792 188.5854,164.594 C186.7084,163.401 184.5944,161.888 182.4594,160.116 C180.3224,158.345 178.1184,156.372 175.9654,154.346 C173.8384,152.294 171.7624,150.192 169.8454,148.194 C167.9274,146.198 166.2154,144.261 164.7424,142.609 C163.2704,140.955 162.1004,139.527 161.2694,138.539 C160.4574,137.535 159.9934,136.961 159.9934,136.961" id="Fill-22" fill="#FEFEFE"></path>
            <path d="M162.8939,145.9526 C162.8939,145.9526 159.3169,138.7146 154.7709,143.9226 C150.2239,149.1296 154.7709,152.1886 154.7709,152.1886 C154.7709,152.1886 162.6039,154.9446 162.8939,145.9526 L162.8939,145.9526 Z" id="Stroke-24" stroke="#FEFEFE" stroke-width="0.87"></path>
            <path d="M230.7667,100.8781 L231.0027,102.0531 C231.0767,102.4471 231.1687,102.8401 231.2147,103.2381 L231.2757,104.4441 C231.3057,104.8481 231.3207,105.2521 231.2557,105.6551 L231.1267,106.8691 C231.0257,107.2631 230.9027,107.6541 230.7897,108.0481 C230.7027,108.4531 230.4937,108.8111 230.3157,109.1821 L230.0427,109.7371 C229.9437,109.9181 229.8087,110.0761 229.6927,110.2471 C229.4427,110.5741 229.2347,110.9411 228.9237,111.2171 C228.6247,111.4991 228.3647,111.8331 228.0287,112.0741 C227.6957,112.3161 227.3877,112.6011 227.0307,112.8081 C226.6707,113.0061 226.3257,113.2401 225.9507,113.4091 C225.5727,113.5701 225.2097,113.7711 224.8187,113.8971 C224.4317,114.0341 224.0477,114.1811 223.6497,114.2801 C222.8567,114.5091 222.0667,114.6671 221.2177,114.7461 L221.1097,114.7561 L221.0117,114.7031 C220.4687,114.4111 220.0067,114.0891 219.5577,113.7101 C219.1127,113.3361 218.7037,112.9171 218.3397,112.4571 C217.9787,111.9941 217.6767,111.4821 217.4387,110.9421 C217.1957,110.4001 217.0527,109.8231 216.9437,109.2421 L216.8807,108.3581 C216.8627,108.0641 216.9177,107.7731 216.9337,107.4801 C216.9437,107.1851 216.9997,106.9001 217.0777,106.6191 C217.1497,106.3381 217.2057,106.0521 217.2917,105.7751 C217.5197,105.2461 217.6907,104.6511 217.9727,104.1821 L218.3737,103.4531 C218.4487,103.3241 218.4897,103.2271 218.5917,103.0721 L218.8417,102.7231 C219.1807,102.2611 219.4947,101.7831 219.9247,101.3931 C220.1277,101.1891 220.3237,100.9791 220.5337,100.7841 L221.2287,100.2671 C221.4507,100.0821 221.7047,99.9441 221.9657,99.8191 C222.2277,99.6981 222.4687,99.5311 222.7467,99.4501 L223.5697,99.1841 C223.8497,99.1211 224.1367,99.0881 224.4187,99.0391 C224.9847,98.9761 225.5637,98.9591 226.1237,99.0441 C226.4067,99.0711 226.6867,99.1101 226.9607,99.1831 C227.2367,99.2431 227.5127,99.3011 227.7777,99.3971 C228.3147,99.5611 228.8377,99.7681 229.3367,100.0181 C229.8377,100.2631 230.3197,100.5491 230.7667,100.8781 L230.7667,100.8781 Z M230.7667,100.8781 C230.2927,100.5901 229.7877,100.3561 229.2757,100.1531 C228.7677,99.9401 228.2417,99.7721 227.7087,99.6481 C227.1767,99.5241 226.6357,99.4281 226.0927,99.4171 C225.8227,99.3991 225.5527,99.3881 225.2837,99.4211 C225.0167,99.4491 224.7437,99.4291 224.4837,99.5021 C224.2217,99.5591 223.9567,99.6001 223.6997,99.6691 L222.9487,99.9461 C222.6957,100.0301 222.4797,100.1981 222.2437,100.3181 C222.0087,100.4421 221.7807,100.5771 221.5817,100.7591 L220.9607,101.2601 C220.7737,101.4511 220.5997,101.6561 220.4187,101.8521 C220.0337,102.2241 219.7637,102.6971 219.4537,103.1341 L219.2227,103.4641 C219.1697,103.5391 219.0957,103.6961 219.0337,103.8081 L218.6427,104.5421 C218.3597,105.0311 218.2477,105.5261 218.0377,106.0141 C217.9637,106.2661 217.9177,106.5281 217.8547,106.7841 C217.7857,107.0401 217.7387,107.2981 217.7357,107.5611 C217.7267,107.8211 217.6767,108.0831 217.6977,108.3411 L217.7637,109.1171 C217.8687,109.6241 217.9967,110.1251 218.2167,110.5961 C218.4297,111.0681 218.7107,111.5071 219.0227,111.9261 C219.3417,112.3401 219.7037,112.7241 220.1047,113.0681 C220.4957,113.4131 220.9477,113.7301 221.3777,113.9701 L221.1717,113.9271 C221.9127,113.8691 222.6997,113.7281 223.4417,113.5221 C223.8207,113.4341 224.1847,113.2991 224.5517,113.1751 C224.9247,113.0621 225.2647,112.8761 225.6237,112.7311 C225.9797,112.5771 226.3007,112.3621 226.6427,112.1821 C226.9797,111.9951 227.2757,111.7481 227.5967,111.5341 C227.9217,111.3231 228.1687,111.0231 228.4617,110.7731 C228.7647,110.5291 228.9657,110.1951 229.2137,109.9011 C229.3277,109.7461 229.4627,109.6041 229.5617,109.4391 L229.8367,108.9311 C230.0177,108.5891 230.2317,108.2611 230.3287,107.8821 L230.6967,106.7741 L230.8947,105.6161 C230.9857,105.2311 230.9977,104.8371 230.9947,104.4421 L231.0157,103.2541 C231.0017,102.8581 230.9277,102.4661 230.8947,102.0691 L230.7667,100.8781 Z" id="Fill-26" fill="#FEFEFE"></path>
            <path d="M298.9842,73.5749 C298.9842,73.5749 298.5772,73.4399 297.8482,73.3169 C297.1242,73.1909 296.0592,73.0979 294.8432,73.3009 C294.2422,73.4219 293.5982,73.6019 292.9972,73.9479 C292.6892,74.1029 292.4122,74.3329 292.1232,74.5429 C291.8772,74.8089 291.5642,75.0129 291.3502,75.3289 C291.1082,75.6169 290.8742,75.9179 290.6932,76.2669 C290.4922,76.5919 290.3002,76.9529 290.1082,77.3309 C289.7232,78.0729 289.3262,78.8209 289.0142,79.5729 C288.6912,80.3169 288.4712,81.0899 288.7082,81.7259 C288.9352,82.3619 289.5022,82.9209 290.1352,83.3479 C290.7542,83.7919 291.4122,84.1789 292.0472,84.5219 C292.6742,84.8799 293.3012,85.1679 293.8662,85.4549 C295.0142,86.0079 295.9702,86.4679 296.6402,86.7909 C297.3092,87.1189 297.6922,87.3059 297.6922,87.3059 C297.6922,87.3059 297.2862,87.1759 296.5762,86.9469 C295.8722,86.7059 294.8572,86.3769 293.6682,85.9029 C293.0782,85.6529 292.4292,85.4089 291.7622,85.0889 C291.0902,84.7839 290.3822,84.4439 289.6962,83.9759 C289.0192,83.5349 288.2652,82.9469 287.9132,81.9969 C287.5612,81.0209 287.8822,80.0289 288.2112,79.2409 C288.5602,78.4269 288.9722,77.6779 289.3662,76.9389 C289.5542,76.5709 289.7622,76.2059 290.0072,75.8419 C290.2202,75.4669 290.4932,75.1379 290.7762,74.8249 C291.0302,74.4879 291.3842,74.2499 291.6862,73.9829 C292.0282,73.7649 292.3572,73.5339 292.7112,73.3849 C293.4072,73.0479 294.1242,72.9009 294.7762,72.8179 C296.0962,72.6829 297.1702,72.9569 297.8872,73.1529 C298.6072,73.3689 298.9842,73.5749 298.9842,73.5749" id="Fill-28" fill="#FEFEFE"></path>
            <path d="M245.3718,100.7948 C245.3718,100.7948 245.3848,100.6418 245.4078,100.3748 C245.4328,100.1128 245.4598,99.7358 245.4718,99.2988 C245.4918,98.4268 245.3828,97.2748 244.6998,96.4558 C243.9648,95.5048 243.3038,94.4578 242.9288,93.6158 C242.5298,92.7748 242.4908,92.1218 242.5218,92.1268 C242.4958,92.1428 242.8038,92.6628 243.3578,93.3588 C243.9128,94.0598 244.6508,94.9928 245.3898,95.9268 C245.5838,96.1878 245.7628,96.4948 245.8858,96.8018 C246.0098,97.1128 246.0668,97.4348 246.1058,97.7398 C246.1648,98.3548 246.0868,98.9158 245.9638,99.3688 C245.8458,99.8238 245.6928,100.1798 245.5728,100.4228 C245.4528,100.6638 245.3718,100.7948 245.3718,100.7948" id="Fill-30" fill="#FEFEFE"></path>
            <path d="M154.6626,160.5747 C156.6436,158.5107 157.6316,157.1207 157.6316,157.1207 C157.6316,157.1207 166.8046,136.0787 150.0156,136.3727 C150.0156,136.3727 153.2556,108.9807 127.6306,119.2897 C127.6306,119.2897 132.2436,89.8157 102.0226,105.6987" id="Fill-32" fill="#98D8E3"></path>
            <path d="M154.6626,160.5747 C155.6926,159.4597 156.6906,158.3067 157.5726,157.0797 L157.5656,157.0917 C158.4016,154.9657 159.0406,152.7547 159.4566,150.5127 C159.8516,148.2727 160.0546,145.9757 159.7166,143.7467 C159.6186,143.1937 159.4966,142.6477 159.3256,142.1157 C159.1446,141.5897 158.9326,141.0747 158.6576,140.5957 C158.3826,140.1187 158.0666,139.6627 157.6846,139.2697 C157.5106,139.0557 157.2986,138.8807 157.0876,138.7067 C156.8846,138.5207 156.6666,138.3557 156.4266,138.2187 C155.9786,137.8997 155.4646,137.6887 154.9626,137.4667 C154.4356,137.2947 153.9146,137.1087 153.3616,137.0227 C152.8226,136.8857 152.2596,136.8587 151.7046,136.7957 C151.1476,136.7517 150.5826,136.7697 150.0226,136.7487 L149.6036,136.7337 L149.6426,136.3287 C149.7846,134.8467 149.7926,133.3157 149.7076,131.8127 C149.6196,130.3067 149.4276,128.8057 149.0906,127.3417 C148.9186,126.6107 148.7086,125.8917 148.4666,125.1837 L148.0586,124.1417 L147.5776,123.1357 L147.0186,122.1767 L146.3776,121.2747 L145.6516,120.4457 L144.8426,119.7027 L143.9556,119.0577 L142.9986,118.5237 C142.3316,118.2237 141.6486,117.9577 140.9296,117.7917 C140.5806,117.6747 140.2106,117.6357 139.8466,117.5767 C139.4816,117.5197 139.1186,117.4527 138.7446,117.4527 L137.6326,117.4027 L136.5136,117.4607 C135.7666,117.4717 135.0286,117.6457 134.2846,117.7287 C133.5486,117.8807 132.8126,118.0437 132.0806,118.2217 C131.3586,118.4427 130.6306,118.6427 129.9126,118.8787 L127.7796,119.6607 L127.1416,119.8947 L127.2346,119.2277 C127.4616,117.6137 127.5266,115.9387 127.4726,114.2927 C127.4216,112.6417 127.2106,110.9967 126.8076,109.4067 C126.7076,109.0087 126.6016,108.6127 126.4616,108.2287 C126.3426,107.8367 126.1896,107.4577 126.0236,107.0857 C125.7086,106.3317 125.2946,105.6287 124.8286,104.9647 C124.5966,104.6327 124.3126,104.3427 124.0576,104.0287 C123.7636,103.7527 123.4696,103.4727 123.1606,103.2127 C122.8246,102.9907 122.5096,102.7307 122.1546,102.5357 C121.7896,102.3627 121.4446,102.1417 121.0616,102.0047 C120.6756,101.8797 120.3006,101.7147 119.9046,101.6197 L118.7036,101.3707 L117.4766,101.2627 C117.0666,101.2247 116.6526,101.2687 116.2406,101.2667 C115.8276,101.2617 115.4156,101.2927 115.0056,101.3537 L113.7706,101.4977 C112.9606,101.6787 112.1326,101.7867 111.3336,102.0277 C110.5346,102.2607 109.7206,102.4497 108.9406,102.7507 C108.1556,103.0357 107.3566,103.2827 106.5926,103.6257 C105.8266,103.9587 105.0386,104.2457 104.2886,104.6167 L102.0226,105.6987 L104.2536,104.5447 C104.9936,104.1487 105.7726,103.8367 106.5306,103.4787 C107.2856,103.1107 108.0806,102.8367 108.8606,102.5257 C109.6346,102.1977 110.4496,101.9817 111.2496,101.7197 C112.0476,101.4517 112.8836,101.3147 113.7016,101.1057 C114.5386,101.0007 115.3686,100.7987 116.2216,100.8047 C116.6456,100.7987 117.0696,100.7467 117.4956,100.7787 L118.7716,100.8677 L120.0346,101.1067 C120.4526,101.1987 120.8536,101.3647 121.2646,101.4917 C121.6726,101.6297 122.0456,101.8557 122.4386,102.0357 C122.8196,102.2377 123.1626,102.5067 123.5266,102.7407 C123.8616,103.0127 124.1826,103.3057 124.5016,103.5977 C124.7816,103.9257 125.0906,104.2337 125.3436,104.5827 C125.8536,105.2787 126.3046,106.0187 126.6506,106.8047 C126.8316,107.1947 126.9996,107.5897 127.1316,107.9967 C127.2856,108.3977 127.4036,108.8077 127.5146,109.2207 C127.9636,110.8707 128.1756,112.5687 128.2426,114.2627 C128.3066,115.9627 128.2536,117.6477 128.0256,119.3517 L127.4806,118.9187 L129.6496,118.1087 C130.3816,117.8627 131.1276,117.6527 131.8666,117.4227 C132.6176,117.2347 133.3756,117.0617 134.1346,116.9017 C134.9076,116.8087 135.6686,116.6277 136.4536,116.6087 L137.6256,116.5407 L138.8036,116.5867 C139.1976,116.5857 139.5876,116.6537 139.9786,116.7127 C140.3686,116.7727 140.7626,116.8147 141.1426,116.9357 C141.9186,117.1117 142.6596,117.4097 143.3836,117.7407 L144.4256,118.3307 L145.3896,119.0397 L146.2636,119.8537 L147.0436,120.7547 L147.7256,121.7247 L148.3146,122.7507 L148.8166,123.8167 L149.2396,124.9127 C149.4876,125.6537 149.7016,126.4037 149.8756,127.1627 C150.2156,128.6817 150.4026,130.2257 150.4846,131.7707 C150.5616,133.3197 150.5476,134.8567 150.3886,136.4167 L150.0086,135.9977 C150.5946,136.0197 151.1796,136.0067 151.7636,136.0667 C152.3476,136.1417 152.9336,136.1817 153.5076,136.3367 C154.0896,136.4397 154.6486,136.6467 155.2086,136.8417 C155.7486,137.0907 156.2976,137.3307 156.7826,137.6857 C157.0396,137.8407 157.2746,138.0247 157.4926,138.2307 C157.7206,138.4257 157.9476,138.6217 158.1336,138.8577 C158.5426,139.2947 158.8776,139.7957 159.1636,140.3147 C159.4516,140.8367 159.6676,141.3897 159.8486,141.9507 C160.0196,142.5157 160.1376,143.0907 160.2296,143.6697 C160.5396,145.9947 160.2936,148.3317 159.8106,150.5837 C159.3176,152.8377 158.6066,155.0347 157.6976,157.1497 L157.6946,157.1577 L157.6896,157.1627 C156.7596,158.3737 155.7286,159.4917 154.6626,160.5747" id="Fill-34" fill="#FEFEFE"></path>
            <path d="M150.0154,136.3732 C150.0154,136.3732 156.7054,81.4962 153.8444,67.4502 C150.9834,53.4042 127.9244,53.0182 127.9244,53.0182 C127.6304,37.9962 83.7434,17.3782 78.1474,18.8512 C72.5504,20.3232 48.1034,0.0002 48.1034,0.0002 C48.1034,0.0002 4.8064,9.4252 0.6824,29.1602 C-3.4406,48.8942 12.4644,60.9702 12.4644,60.9702 C12.4644,60.9702 30.4314,92.1922 31.3154,98.0832 C32.1984,103.9732 34.8494,132.8382 45.1584,136.9622 C55.4674,141.0862 61.0634,139.3182 61.0634,139.3182 C61.0634,139.3182 60.1804,159.6422 85.2164,156.6962 C85.2164,156.6962 91.1074,173.1912 114.0814,167.3002 C114.0814,167.3002 122.3284,179.3762 136.4664,173.1912 C142.7514,170.4412 147.6304,166.9612 151.1124,163.9432 C152.5254,162.7172 153.7094,161.5682 154.6624,160.5752" id="Fill-36" fill="#98D8E3"></path>
            <path d="M155.0815,82.6591 C126.4525,82.6591 103.2395,71.8791 103.2395,58.5891 C103.2395,58.5891 111.8725,49.9651 118.7205,51.4321 C125.5685,52.9071 126.4525,54.5861 132.3455,54.9221 C138.2395,55.2671 137.9395,51.3871 144.1245,51.2641 C150.3105,51.1401 148.7725,53.4991 155.2845,53.7911 C161.7975,54.0821 161.7975,51.0871 166.8075,51.2641 C171.8175,51.4321 172.7015,54.8691 178.8865,54.9221 C185.0715,54.9661 183.8875,51.0691 190.3735,51.2551 C196.8505,51.4321 196.1085,54.5511 201.2685,54.9131 C206.4295,55.2841 206.9155,58.5891 206.9155,58.5891 C206.9155,71.8791 183.7115,82.6591 155.0815,82.6591 M211.3595,60.5331 C203.3275,38.1061 181.1665,37.0111 155.0815,37.0111 C129.5715,37.0111 107.8075,37.4081 99.3515,59.0751 C96.9125,65.3131 95.5785,72.0731 95.5785,79.1241 C95.5785,110.6881 122.2195,136.2691 155.0815,136.2691 C187.9345,136.2691 214.5765,110.6881 214.5765,79.1241 C214.5765,72.6211 213.4455,66.3651 211.3595,60.5331" id="Fill-39" fill="#277F8B"></path>
            <polygon id="Fill-41" fill="#FEFEFE" points="189.9737 129.928 187.5737 127.735 181.4677 119.968 181.0247 118.307 189.9737 118.307"></polygon>
            <path d="M8.2125,56.7829 C8.2035,52.6959 11.9365,47.3299 11.9365,47.3299 C11.9365,47.3299 24.3065,41.7339 25.7795,39.3769" id="Fill-43" fill="#98D8E3"></path>
            <path d="M8.2125,56.7829 L8.1935,56.1389 C8.1805,55.9239 8.2195,55.7079 8.2315,55.4909 C8.2455,55.2719 8.2745,55.0569 8.3145,54.8439 C8.3535,54.6309 8.3755,54.4129 8.4295,54.2029 C8.5945,53.3469 8.8925,52.5279 9.1995,51.7159 C9.8295,50.0929 10.6325,48.5599 11.5885,47.0879 L11.6475,46.9979 L11.7615,46.9439 C14.1735,45.8149 16.5735,44.6429 18.9605,43.4599 C20.1505,42.8619 21.3525,42.2809 22.5075,41.6229 C23.0825,41.2909 23.6725,40.9789 24.2265,40.6149 C24.5095,40.4399 24.7865,40.2569 25.0425,40.0469 C25.3215,39.8599 25.5435,39.6219 25.7795,39.3769 C25.5885,39.6479 25.4015,39.9429 25.1465,40.1639 C24.9115,40.4099 24.6535,40.6279 24.3905,40.8399 C23.8705,41.2729 23.3275,41.6739 22.7625,42.0409 C21.6405,42.7849 20.4905,43.4819 19.3185,44.1379 C16.9735,45.4489 14.5605,46.6149 12.1105,47.7159 L12.2835,47.5719 C11.8065,48.2509 11.3515,48.9769 10.9295,49.7079 C10.5025,50.4379 10.0825,51.1759 9.7225,51.9429 C9.3615,52.7079 9.0375,53.4919 8.7615,54.2929 C8.4945,55.0989 8.3005,55.9209 8.2125,56.7829" id="Fill-45" fill="#FEFEFE"></path>
            <path d="M27.3203,88.4144 C26.8983,88.4854 26.4733,88.5454 26.0443,88.5964 C24.3153,88.8024 22.5363,88.8604 20.7723,88.8604 C12.8193,88.8604 15.7653,75.0164 14.5873,71.1874 C13.4093,67.3584 9.5793,62.3514 8.4013,58.2284 C8.2723,57.7744 8.2133,57.2884 8.2123,56.7824 L27.8193,58.7944" id="Fill-47" fill="#98D8E3"></path>
            <path d="M27.3203,88.4144 C32.8623,87.4854 37.7063,84.7464 39.6233,77.0784 C42.2743,66.4754 43.1573,68.2424 43.4523,62.9404 C43.7463,57.6384 49.0483,56.1664 49.0483,56.1664" id="Fill-49" fill="#98D8E3"></path>
            <path d="M27.3203,88.4144 C27.3203,88.4144 27.4793,88.3754 27.7783,88.3024 C28.0793,88.2384 28.5153,88.1174 29.0633,87.9594 C30.1513,87.6304 31.7143,87.0944 33.3293,86.0304 C34.1473,85.5174 34.9473,84.8364 35.6863,84.0274 C36.4353,83.2234 37.0883,82.2594 37.6463,81.2004 C38.2163,80.1474 38.6683,78.9824 39.0013,77.7614 C39.3513,76.5434 39.6273,75.2484 39.9863,73.9804 C40.3493,72.7114 40.7373,71.4524 41.1723,70.2254 C41.5913,68.9954 42.1123,67.8104 42.4903,66.6824 C42.8623,65.5574 43.0003,64.4014 43.1053,63.2884 C43.1703,62.6884 43.2093,62.1894 43.3603,61.6324 C43.4863,61.0804 43.6913,60.5894 43.9113,60.1304 C44.3623,59.2114 44.9993,58.5064 45.6183,57.9794 C46.2393,57.4494 46.8453,57.0804 47.3583,56.8124 C48.3963,56.2944 49.0483,56.1664 49.0483,56.1664 C49.0483,56.1664 48.4173,56.3714 47.4423,56.9624 C46.4933,57.5564 45.1473,58.6004 44.3593,60.3464 C43.9603,61.2094 43.7913,62.2094 43.7483,63.3314 C43.6943,64.4594 43.6193,65.6944 43.2213,66.9124 C42.8353,68.1214 42.3473,69.2724 41.9523,70.4934 C41.5423,71.7054 41.1803,72.9594 40.8373,74.2164 C40.4623,75.4654 40.1733,76.7334 39.7913,77.9914 C39.4253,79.2534 38.9353,80.4654 38.3193,81.5654 C37.7283,82.6794 36.9753,83.6604 36.1513,84.4704 C35.3343,85.2864 34.4623,85.9584 33.5903,86.4514 C32.7313,86.9704 31.8793,87.3194 31.1143,87.5754 C30.3493,87.8354 29.6683,88.0054 29.1043,88.1254 C28.5393,88.2494 28.0933,88.3114 27.7873,88.3494 C27.4833,88.3914 27.3203,88.4144 27.3203,88.4144" id="Fill-51" fill="#FEFEFE"></path>
            <path d="M206.9151,58.5892 C206.9151,71.8792 183.7111,82.6592 155.0811,82.6592 C126.4521,82.6592 103.2391,71.8792 103.2391,58.5892 C103.2391,58.5892 111.8721,49.9652 118.7201,51.4322 C125.5681,52.9072 126.4521,54.5862 132.3461,54.9222 C138.2401,55.2672 137.9391,51.3872 144.1241,51.2642 C150.3101,51.1402 148.7721,53.4992 155.2851,53.7912 C161.7971,54.0822 161.7971,51.0872 166.8071,51.2642 C171.8171,51.4322 172.7011,54.8692 178.8861,54.9222 C185.0721,54.9662 183.8881,51.0692 190.3741,51.2552 C196.8501,51.4322 196.1081,54.5512 201.2691,54.9132 C206.4291,55.2842 206.9151,58.5892 206.9151,58.5892" id="Fill-53" fill="#45C3D4"></path>
            <path d="M206.9151,58.5892 C206.9151,58.5892 206.4291,55.2842 201.2691,54.9132 C196.1081,54.5512 196.8501,51.4322 190.3741,51.2552 C183.8881,51.0692 185.0721,54.9662 178.8861,54.9222 C172.7011,54.8692 171.8171,51.4322 166.8071,51.2642 C161.7971,51.0872 161.7971,54.0822 155.2851,53.7912 C148.7721,53.4992 150.3101,51.1402 144.1241,51.2642 C137.9391,51.3872 138.2401,55.2672 132.3461,54.9222 C126.4521,54.5862 125.5681,52.9072 118.7201,51.4322 C111.8721,49.9652 103.2391,58.5892 103.2391,58.5892 C103.2391,55.6112 104.3971,52.7662 106.5261,50.1332 C113.8871,41.0052 132.8491,38.4602 155.0811,38.4602 C177.8081,38.4602 197.1161,41.2962 204.1141,50.7512 C205.9341,53.2082 206.9151,55.8412 206.9151,58.5892" id="Fill-55" fill="#277F8B"></path>
            <path d="M119.2899,66.227 C119.2899,66.227 127.1159,62.445 131.2429,70.223 C131.2429,70.223 137.7889,65.893 142.8969,72.507 C142.8969,72.507 149.5339,68.3 155.0669,73.319 C155.0669,73.319 161.2649,68.583 167.4349,72.538 C167.4349,72.538 173.0409,67.002 179.3969,70.205 C179.3969,70.205 183.9119,64.797 191.3469,66.2" id="Stroke-57" stroke="#277F8B" stroke-width="0.884"></path>
            <path d="M118.9561,71.4452 C118.9561,71.4452 126.8961,67.3172 130.9391,75.4592 C130.9391,75.4592 137.5471,70.8032 142.6231,77.7532 C142.6231,77.7532 149.2801,73.2632 154.8251,78.5692 C154.8251,78.5692 161.0051,73.5672 167.2241,77.7862 C167.2241,77.7862 172.7771,71.9892 179.2171,75.4452 C179.2171,75.4452 183.6571,69.8142 191.1981,71.4232" id="Stroke-59" stroke="#277F8B" stroke-width="0.711"></path>
            <path d="M119.2903,60.5907 C119.2903,60.5907 127.1193,56.8087 131.2433,64.5867 C131.2433,64.5867 137.7913,60.2567 142.8973,66.8707 C142.8973,66.8707 149.5363,62.6617 155.0673,67.6817 C155.0673,67.6817 161.2643,62.9457 167.4343,66.9017 C167.4343,66.9017 173.0393,61.3677 179.3963,64.5687 C179.3963,64.5687 183.9123,59.1617 191.3473,60.5637" id="Stroke-61" stroke="#277F8B" stroke-width="0.884"></path>
            <path d="M94.9361,109.8644 C94.9361,109.8644 94.4921,110.4134 93.6861,111.3484 C92.8731,112.2764 91.7301,113.6214 90.2901,115.1724 C88.8521,116.7254 87.1751,118.5404 85.3131,120.4194 C83.4401,122.2894 81.4251,124.2684 79.3611,126.1974 C77.2701,128.0964 75.1511,129.9684 73.0911,131.6374 C72.5771,132.0554 72.0711,132.4664 71.5761,132.8684 C71.0621,133.2484 70.5601,133.6204 70.0721,133.9824 C69.5821,134.3424 69.1061,134.6924 68.6451,135.0314 C68.1701,135.3514 67.7111,135.6594 67.2711,135.9564 C66.8291,136.2504 66.4071,136.5334 66.0051,136.8014 C65.5831,137.0414 65.1841,137.2684 64.8081,137.4814 C64.0541,137.9024 63.4171,138.2994 62.8391,138.5314 C61.7091,139.0324 61.0641,139.3184 61.0641,139.3184 C61.0641,139.3184 61.6801,138.9764 62.7591,138.3784 C63.3121,138.1114 63.9201,137.6694 64.6361,137.2004 C64.9921,136.9644 65.3701,136.7124 65.7701,136.4464 C66.1561,136.1614 66.5621,135.8614 66.9861,135.5484 C67.4101,135.2364 67.8511,134.9104 68.3081,134.5744 C68.7501,134.2184 69.2081,133.8504 69.6781,133.4714 C70.6261,132.7244 71.5971,131.9014 72.6011,131.0484 C74.6251,129.3614 76.7051,127.4664 78.7621,125.5494 C80.8451,123.6584 82.8801,121.7144 84.7741,119.8764 C86.6621,118.0294 88.4231,116.3064 89.9331,114.8294 C92.9351,111.8504 94.9361,109.8644 94.9361,109.8644" id="Fill-63" fill="#FEFEFE"></path>
            <path d="M127.6302,119.2897 C127.6302,119.2897 127.1292,120.0297 126.1962,121.2857 C125.2632,122.5407 123.9182,124.3257 122.2232,126.4057 C121.3622,127.4347 120.4292,128.5487 119.4422,129.7267 C118.4282,130.8817 117.3932,132.1327 116.2342,133.3457 C115.1002,134.5817 113.9152,135.8477 112.6722,137.0977 C111.4572,138.3747 110.1642,139.6137 108.8742,140.8567 C107.5942,142.1107 106.2072,143.2497 104.8982,144.4307 C103.5692,145.5907 102.1922,146.6517 100.8982,147.7217 C99.5662,148.7477 98.2282,149.6737 96.9812,150.5767 C95.6792,151.4007 94.4482,152.1807 93.3122,152.9007 C92.1542,153.5837 91.0382,154.1187 90.0752,154.6297 C89.1242,155.1667 88.2212,155.4847 87.4992,155.7867 C86.0462,156.3657 85.2162,156.6967 85.2162,156.6967 C85.2162,156.6967 86.0212,156.3087 87.4292,155.6297 C88.1302,155.2897 89.0052,154.9257 89.9222,154.3377 C90.8502,153.7737 91.9222,153.1847 93.0522,152.4767 C94.1542,151.7247 95.3472,150.9107 96.6102,150.0487 C97.8222,149.1177 99.1002,148.1357 100.4232,147.1207 C101.6972,146.0427 103.0502,144.9757 104.3572,143.8087 C105.6452,142.6207 107.0072,141.4737 108.2682,140.2147 C109.5642,138.9937 110.8632,137.7757 112.0872,136.5197 C113.3372,135.2897 114.5312,134.0427 115.6742,132.8247 C117.9722,130.3987 120.0802,128.0967 121.8452,126.0857 C122.7232,125.0757 123.5272,124.1497 124.2402,123.3287 C124.9442,122.4997 125.5572,121.7757 126.0622,121.1797 C127.0602,119.9767 127.6302,119.2897 127.6302,119.2897" id="Fill-65" fill="#FEFEFE"></path>
            <path d="M150.0154,136.3732 C150.0154,136.3732 149.5554,136.9652 148.7194,137.9762 C147.8754,138.9792 146.6884,140.4292 145.1934,142.1092 C143.6964,143.7862 141.9584,145.7532 140.0104,147.7802 C138.0644,149.8092 135.9554,151.9432 133.7964,154.0272 C131.6104,156.0842 129.3714,158.0882 127.2024,159.8862 C125.0334,161.6862 122.8874,163.2222 120.9814,164.4342 C119.0764,165.6502 117.3474,166.4402 116.0994,166.8632 C115.4674,167.0552 114.9674,167.1872 114.6134,167.2192 C114.2664,167.2722 114.0814,167.3002 114.0814,167.3002 C114.0814,167.3002 114.2634,167.2562 114.6044,167.1722 C114.9514,167.1142 115.4304,166.9262 116.0404,166.7022 C116.6384,166.4442 117.3564,166.1132 118.1394,165.6552 C118.9264,165.2052 119.7864,164.6482 120.7074,164.0192 C121.6284,163.3872 122.5964,162.6592 123.6024,161.8662 C124.6054,161.0702 125.6354,160.1952 126.7094,159.2992 C128.8394,157.4862 131.0364,155.4612 133.1874,153.3882 C135.3644,151.3422 137.4944,149.2432 139.4624,147.2472 C141.4284,145.2492 143.2814,143.3982 144.8294,141.7732 C147.9414,138.5332 150.0154,136.3732 150.0154,136.3732" id="Fill-67" fill="#FEFEFE"></path>
            <path d="M96.3673,110.3715 C105.1843,100.7085 133.4533,93.4615 125.9503,121.4445 C118.5273,129.9275 117.1263,132.3745 113.1073,131.9835 C103.6183,131.0605 91.6133,115.5815 96.3673,110.3715" id="Fill-69" fill="#98D8E3"></path>
            <path d="M105.2451,113.3989 C105.2171,114.3269 105.2221,115.2559 105.3691,116.1659 C105.4201,116.6249 105.5371,117.0689 105.6521,117.5129 C105.7951,117.9459 105.9261,118.3869 106.1381,118.7909 C106.3211,119.2089 106.5701,119.5899 106.8121,119.9719 C107.0881,120.3319 107.3671,120.6859 107.6891,121.0039 C108.0061,121.3229 108.3411,121.6299 108.7121,121.8869 C109.0701,122.1619 109.4621,122.3919 109.8561,122.6109 C111.4521,123.4749 113.2541,123.9109 115.0581,124.1399 C115.9641,124.2459 116.8761,124.3079 117.7901,124.3209 C118.7001,124.3319 119.6281,124.2989 120.5141,124.1989 L120.2591,124.3379 L124.6481,119.0139 L124.5871,119.1119 C124.8351,118.5119 125.0441,117.8429 125.1861,117.1839 C125.3491,116.5239 125.4411,115.8509 125.4951,115.1769 C125.5201,114.8399 125.5031,114.5039 125.5111,114.1669 C125.5021,113.8309 125.4471,113.4999 125.4191,113.1659 C125.3071,112.5079 125.1451,111.8579 124.8701,111.2519 C124.7711,110.9309 124.5681,110.6639 124.4051,110.3749 L124.1491,109.9489 L123.8221,109.5719 C123.4241,109.0329 122.8771,108.6349 122.3621,108.2059 C122.0931,108.0089 121.7911,107.8639 121.5091,107.6889 C121.2201,107.5219 120.9491,107.3359 120.6061,107.2219 L119.6291,106.8279 C119.4761,106.7709 119.2831,106.6699 119.1641,106.6489 L118.6691,106.5169 L117.6771,106.2509 C117.3461,106.1629 117.0031,106.1579 116.6651,106.1069 C115.9881,105.9829 115.3081,106.0339 114.6251,106.0569 C114.2811,106.0499 113.9541,106.1649 113.6161,106.2119 C113.2801,106.2699 112.9431,106.3289 112.6251,106.4599 C112.3051,106.5789 111.9721,106.6689 111.6611,106.8099 L110.7431,107.2749 C110.1601,107.6359 109.5681,107.9989 109.0501,108.4589 C108.7741,108.6699 108.5201,108.9059 108.2791,109.1559 C108.0281,109.3969 107.7821,109.6439 107.5621,109.9139 C107.0991,110.4339 106.6741,110.9919 106.2941,111.5779 C105.9021,112.1579 105.5421,112.7619 105.2451,113.3989 M105.2451,113.3989 C105.4991,112.7429 105.8171,112.1119 106.1741,111.5029 C106.5281,110.8929 106.9291,110.3079 107.3721,109.7559 C107.5821,109.4699 107.8191,109.2059 108.0631,108.9479 C108.2971,108.6799 108.5451,108.4249 108.8171,108.1939 C109.3281,107.6959 109.9151,107.2809 110.5121,106.8859 L111.4581,106.3699 C111.7811,106.2109 112.1271,106.1049 112.4611,105.9699 C112.7931,105.8219 113.1461,105.7479 113.5001,105.6739 C113.8551,105.6129 114.2031,105.4839 114.5651,105.4779 C115.2861,105.4289 116.0101,105.3559 116.7281,105.4629 C117.0851,105.5059 117.4531,105.5029 117.8041,105.5839 L118.8561,105.8309 L119.3821,105.9549 C119.6081,106.0079 119.7281,106.0769 119.9061,106.1369 L120.8871,106.5199 C121.2161,106.6249 121.5361,106.8269 121.8581,107.0069 C122.1751,107.1949 122.5121,107.3579 122.8101,107.5709 C123.3811,108.0319 123.9791,108.4639 124.4331,109.0569 L124.7981,109.4749 L125.0921,109.9459 C125.2781,110.2659 125.5031,110.5669 125.6201,110.9209 C125.9331,111.5959 126.1211,112.3129 126.2511,113.0379 C126.2871,113.4019 126.3491,113.7669 126.3621,114.1329 C126.3601,114.4969 126.3801,114.8649 126.3561,115.2279 C126.3061,115.9549 126.2151,116.6789 126.0461,117.3839 C125.8821,118.0959 125.6681,118.7719 125.3711,119.4679 L125.3501,119.5179 L125.3101,119.5659 L120.8671,124.8449 L120.7621,124.9689 L120.6121,124.9839 C119.6531,125.0819 118.7221,125.1029 117.7771,125.0829 C116.8351,125.0619 115.8931,124.9899 114.9611,124.8429 C113.1031,124.5489 111.2441,124.0409 109.5941,123.0799 C109.1861,122.8369 108.7821,122.5829 108.4131,122.2809 C108.0311,121.9979 107.6861,121.6629 107.3621,121.3149 C107.0301,120.9719 106.7601,120.5769 106.4891,120.1869 C106.2541,119.7729 106.0161,119.3629 105.8481,118.9189 C105.6501,118.4899 105.5371,118.0269 105.4141,117.5749 C105.3181,117.1149 105.2231,116.6559 105.1941,116.1869 C105.1281,115.7229 105.1471,115.2549 105.1451,114.7889 C105.1511,114.3239 105.2131,113.8609 105.2451,113.3989" id="Fill-71" fill="#FEFEFE"></path>
            <path d="M116.8778,133.0822 L127.6298,119.2892 C127.6298,119.2892 151.2368,108.1872 149.9808,135.6312 L142.1728,143.7362 L116.8778,133.0822 Z" id="Fill-73" fill="#98D8E3"></path>
            <path d="M129.9866,129.3042 L130.1066,131.7272 C130.1546,132.1262 130.2356,132.5222 130.2976,132.9192 C130.3766,133.3122 130.4016,133.7172 130.5246,134.0982 L130.8926,135.2372 C130.9876,135.6262 131.1956,135.9672 131.3696,136.3222 C131.5606,136.6662 131.6896,137.0482 131.9556,137.3432 C132.2006,137.6482 132.4126,137.9822 132.6806,138.2642 L133.5446,139.0492 L134.5306,139.6692 L135.6006,140.1302 L136.7276,140.4342 C137.1156,140.4832 137.4976,140.5662 137.8876,140.6002 C138.2786,140.6182 138.6676,140.6682 139.0606,140.6472 C139.8386,140.6512 140.6446,140.5622 141.3796,140.4042 L141.2186,140.4852 L146.4936,136.0352 L146.5316,136.0072 C146.8656,135.7502 147.1956,135.3132 147.3546,134.8652 C147.5426,134.4102 147.5416,133.8972 147.4866,133.3962 C147.4036,132.8922 147.2366,132.3872 146.9946,131.9102 C146.7656,131.4242 146.4556,130.9742 146.1376,130.5272 C145.8046,130.0932 145.4416,129.6692 145.0696,129.2622 C144.6696,128.8772 144.3076,128.4712 143.8766,128.0992 C143.4486,127.7372 143.0136,127.3342 142.5916,127.0052 L141.2516,126.0222 C140.7646,125.7702 140.2896,125.4832 139.7906,125.2562 L139.0146,124.9872 L138.6266,124.8522 L138.2226,124.7882 L137.4136,124.6612 L136.5956,124.6802 C136.3196,124.6642 136.0556,124.7452 135.7866,124.7942 C135.5176,124.8472 135.2456,124.8922 134.9936,125.0052 C134.7386,125.1072 134.4676,125.1762 134.2226,125.3042 L133.4866,125.6952 C133.0236,126.0042 132.5646,126.3252 132.1506,126.7072 C131.3216,127.4642 130.5816,128.3352 129.9866,129.3042 L129.9866,129.3042 Z M129.9866,129.3042 C130.4976,128.2872 131.1806,127.3532 131.9876,126.5362 C132.3876,126.1212 132.8386,125.7622 133.3026,125.4132 L134.0476,124.9592 C134.2976,124.8092 134.5776,124.7172 134.8436,124.5942 C135.1086,124.4622 135.3976,124.4042 135.6836,124.3362 C135.9706,124.2722 136.2546,124.1782 136.5516,124.1822 L137.4376,124.1302 L138.3166,124.2332 L138.7566,124.2892 L139.1786,124.4172 L140.0236,124.6772 C140.5646,124.8992 141.0776,125.1832 141.6076,125.4362 L143.0526,126.4182 C143.5286,126.7842 143.9326,127.1522 144.3756,127.5182 C144.8096,127.8842 145.2166,128.3202 145.6376,128.7182 C146.0366,129.1442 146.4206,129.5822 146.7826,130.0422 C147.1306,130.5182 147.4706,131.0002 147.7356,131.5422 C148.0116,132.0742 148.2186,132.6562 148.3246,133.2722 C148.4036,133.8872 148.4086,134.5502 148.1706,135.1612 C147.9376,135.7762 147.5966,136.3132 147.0196,136.7392 L147.0566,136.7112 L141.7286,141.0972 L141.6506,141.1612 L141.5676,141.1782 C140.7186,141.3502 139.9026,141.4252 139.0616,141.4142 C138.2276,141.4202 137.3916,141.3162 136.5716,141.1402 C136.1676,141.0232 135.7656,140.8972 135.3676,140.7672 C134.9856,140.5862 134.5996,140.4162 134.2256,140.2242 L133.1806,139.5132 L132.2776,138.6322 C132.0006,138.3192 131.7846,137.9552 131.5376,137.6202 C131.2686,137.2952 131.1436,136.8892 130.9576,136.5202 C130.7846,136.1432 130.5946,135.7722 130.5176,135.3642 L130.2086,134.1702 C130.1076,133.7732 130.1046,133.3582 130.0486,132.9552 C130.0096,132.5492 129.9516,132.1442 129.9276,131.7392 L129.9866,129.3042 Z" id="Fill-75" fill="#FEFEFE"></path>
            <path d="M147.07,145.504 L147.303,147.055 L147.51,147.805 C147.591,148.05 147.622,148.311 147.748,148.537 L148.066,149.233 C148.162,149.469 148.338,149.657 148.466,149.872 L148.673,150.184 L148.935,150.448 C149.116,150.617 149.266,150.819 149.486,150.938 C149.698,151.063 149.877,151.239 150.11,151.324 C150.339,151.413 150.55,151.541 150.79,151.599 C151.031,151.653 151.261,151.74 151.507,151.768 C151.754,151.791 151.995,151.843 152.244,151.843 C152.493,151.843 152.74,151.871 152.989,151.843 C153.239,151.829 153.487,151.814 153.735,151.771 C154.225,151.706 154.735,151.59 155.178,151.438 L155.083,151.486 C155.363,151.279 155.659,150.988 155.904,150.697 C156.141,150.391 156.367,150.074 156.52,149.724 C156.609,149.553 156.679,149.377 156.729,149.193 C156.797,149.015 156.834,148.83 156.86,148.642 C156.905,148.457 156.92,148.269 156.918,148.078 C156.928,147.889 156.933,147.699 156.896,147.509 C156.874,147.126 156.751,146.755 156.645,146.38 C156.486,146.024 156.355,145.642 156.143,145.314 C155.939,144.978 155.764,144.636 155.485,144.304 L155.102,143.802 C155.006,143.657 154.834,143.516 154.704,143.372 C154.43,143.078 154.149,142.793 153.822,142.578 C153.522,142.308 153.164,142.172 152.814,142.003 C152.451,141.909 152.075,141.793 151.691,141.84 L151.403,141.848 L151.121,141.92 C150.932,141.966 150.739,142.004 150.564,142.102 C150.194,142.247 149.86,142.477 149.523,142.704 C149.196,142.949 148.888,143.222 148.597,143.518 C148.022,144.117 147.514,144.789 147.07,145.504 L147.07,145.504 Z M147.07,145.504 C147.409,144.731 147.855,144.003 148.387,143.334 C148.656,143.001 148.949,142.686 149.27,142.393 C149.6,142.111 149.954,141.847 150.358,141.656 C150.548,141.538 150.766,141.476 150.983,141.41 L151.307,141.309 L151.648,141.276 C152.105,141.199 152.565,141.299 153.011,141.394 C153.433,141.56 153.873,141.712 154.226,141.989 C154.407,142.118 154.612,142.226 154.775,142.375 L155.251,142.833 C155.407,142.997 155.573,143.118 155.721,143.317 L156.119,143.806 C156.394,144.112 156.628,144.507 156.871,144.885 C157.118,145.262 157.27,145.683 157.453,146.091 C157.584,146.524 157.727,146.954 157.762,147.416 C157.805,147.642 157.804,147.872 157.794,148.103 C157.798,148.335 157.781,148.565 157.731,148.792 C157.697,149.022 157.646,149.247 157.564,149.463 C157.499,149.686 157.412,149.899 157.305,150.102 C157.113,150.521 156.845,150.893 156.563,151.247 C156.261,151.594 155.956,151.899 155.555,152.187 L155.51,152.22 L155.459,152.235 C154.906,152.406 154.384,152.504 153.835,152.563 C153.564,152.6 153.29,152.609 153.015,152.616 C152.742,152.637 152.465,152.6 152.191,152.591 C151.916,152.581 151.644,152.503 151.371,152.462 C151.099,152.413 150.838,152.301 150.573,152.223 C150.308,152.139 150.069,151.982 149.819,151.864 C149.564,151.749 149.363,151.541 149.136,151.384 C148.9,151.232 148.739,150.998 148.55,150.798 L148.279,150.486 L148.07,150.132 C147.944,149.89 147.764,149.674 147.69,149.412 L147.426,148.647 C147.319,148.399 147.311,148.126 147.254,147.867 L147.117,147.083 L147.07,145.504 Z" id="Fill-77" fill="#FEFEFE"></path>
            <path d="M77.9999,103.3845 C77.8849,104.1215 77.8019,104.8595 77.7499,105.5985 C77.7399,105.9685 77.7289,106.3375 77.7339,106.7055 C77.7659,107.0725 77.7549,107.4425 77.8249,107.8025 C77.8669,108.1665 77.9389,108.5225 78.0359,108.8725 C78.1289,109.2205 78.2419,109.5645 78.3889,109.8905 C78.5279,110.2215 78.7139,110.5245 78.9049,110.8235 C79.1179,111.1065 79.3439,111.3775 79.6029,111.6175 C80.6419,112.5865 82.0559,113.0445 83.4739,113.2115 C84.1859,113.3025 84.9119,113.3175 85.6349,113.2795 C86.3539,113.2405 87.0919,113.1525 87.7749,113.0025 L87.6849,113.0345 C88.1379,112.7825 88.6059,112.4465 89.0169,112.0865 C89.4279,111.7185 89.8129,111.3205 90.1339,110.8775 C90.4599,110.4395 90.7359,109.9655 90.9369,109.4655 C91.1589,108.9725 91.2869,108.4425 91.3589,107.9085 C91.3749,107.6385 91.4189,107.3685 91.4149,107.0975 L91.3559,106.2805 C91.3359,106.0075 91.2439,105.7415 91.1919,105.4715 C91.1369,105.2005 91.0759,104.9315 90.9629,104.6815 C90.7769,104.1695 90.5889,103.6545 90.2849,103.1425 L89.8869,102.3955 C89.7309,102.1645 89.5849,101.9255 89.4209,101.7015 C89.0789,101.2675 88.7299,100.8335 88.3079,100.4885 C87.8959,100.1335 87.4329,99.8365 86.9239,99.6545 C85.9139,99.2555 84.7599,99.3035 83.6899,99.6305 C82.6129,99.9535 81.5939,100.5035 80.6459,101.1505 C79.6999,101.8045 78.8149,102.5585 77.9999,103.3845 M77.9999,103.3845 C78.7279,102.4785 79.5649,101.6565 80.4809,100.9285 C81.4019,100.2105 82.3999,99.5475 83.5409,99.1665 C84.6619,98.7695 85.9519,98.6475 87.1359,99.0555 C87.7289,99.2415 88.2739,99.5595 88.7549,99.9395 C89.2529,100.3075 89.6529,100.7735 90.0279,101.2475 C90.2089,101.4895 90.3699,101.7435 90.5419,101.9905 L90.9739,102.7725 C91.2729,103.2585 91.5009,103.8265 91.7199,104.4035 C91.8479,104.6845 91.9209,104.9795 91.9869,105.2765 C92.0489,105.5735 92.1509,105.8635 92.1789,106.1685 L92.2569,107.0865 C92.2669,107.3935 92.2239,107.7025 92.2079,108.0105 C92.1349,108.6215 91.9939,109.2355 91.7489,109.8035 C91.5259,110.3815 91.1919,110.9105 90.8229,111.3985 C90.4549,111.8895 90.0229,112.3235 89.5649,112.7225 C89.0959,113.1175 88.6159,113.4595 88.0489,113.7635 L88.0069,113.7855 L87.9589,113.7955 C87.1849,113.9545 86.4389,114.0295 85.6709,114.0615 C84.9069,114.0915 84.1379,114.0655 83.3749,113.9565 C81.8609,113.7395 80.3189,113.1555 79.2029,112.0295 C78.9269,111.7495 78.6879,111.4385 78.4679,111.1155 C78.2699,110.7785 78.0829,110.4385 77.9479,110.0745 C77.8069,109.7155 77.6929,109.3445 77.6229,108.9695 C77.5459,108.5935 77.4969,108.2165 77.4799,107.8365 C77.4349,107.4585 77.4719,107.0805 77.4649,106.7035 C77.4869,106.3285 77.5239,105.9535 77.5599,105.5815 C77.6569,104.8375 77.8189,104.1075 77.9999,103.3845" id="Fill-79" fill="#FEFEFE"></path>
            <path d="M14.587,71.1878 C14.587,71.1878 14.934,70.8458 15.624,70.3428 C15.972,70.0968 16.404,69.8068 16.925,69.5128 C17.451,69.2308 18.054,68.9048 18.779,68.7068 C19.491,68.4898 20.32,68.3258 21.211,68.4528 C22.09,68.5468 23.05,68.9568 23.703,69.7008 C24.406,70.4048 24.852,71.3148 25.264,72.1518 C25.684,73.0388 26.055,73.9658 26.294,74.9588 C26.499,75.9598 26.505,77.0408 26.196,78.0328 C25.918,79.0488 25.251,79.8428 24.62,80.5368 C23.949,81.2088 23.214,81.7388 22.5,82.1948 C22.136,82.4108 21.782,82.6198 21.44,82.8228 C21.087,83.0018 20.746,83.1748 20.419,83.3408 C19.773,83.6898 19.141,83.9198 18.595,84.1498 C18.05,84.3838 17.561,84.5528 17.161,84.6968 C16.358,84.9738 15.899,85.1318 15.899,85.1318 C15.899,85.1318 16.334,84.9158 17.094,84.5378 C17.476,84.3548 17.942,84.1388 18.457,83.8508 C18.971,83.5658 19.568,83.2758 20.185,82.9018 C20.495,82.7198 20.817,82.5298 21.152,82.3328 C21.47,82.1158 21.8,81.8918 22.139,81.6608 C22.798,81.1798 23.454,80.6278 24.056,80.0018 C24.615,79.3508 25.157,78.6278 25.38,77.7818 C25.629,76.9468 25.619,76.0398 25.431,75.1458 C25.225,74.2508 24.885,73.3678 24.498,72.5278 C24.079,71.6618 23.714,70.8328 23.142,70.2368 C22.604,69.5968 21.867,69.2208 21.112,69.0868 C20.357,68.9258 19.588,69.0218 18.908,69.1848 C18.22,69.3368 17.61,69.5858 17.071,69.8058 C16.536,70.0388 16.084,70.2788 15.717,70.4868 C14.984,70.9058 14.587,71.1878 14.587,71.1878" id="Fill-81" fill="#FEFEFE"></path>
            <path d="M213.8474,111.0652 C213.8474,111.0652 178.2114,88.0872 181.0264,118.4772 C189.0564,126.7432 190.6764,132.5162 194.8114,132.1312 C204.5734,131.2222 213.8474,111.0652 213.8474,111.0652" id="Fill-83" fill="#98D8E3"></path>
            <path d="M204.0816,114.3367 C204.1126,114.7917 204.1736,115.2477 204.1806,115.7057 C204.1776,116.1637 204.1966,116.6257 204.1316,117.0827 C204.1036,117.5437 204.0096,117.9957 203.9156,118.4497 C203.7936,118.8937 203.6826,119.3497 203.4876,119.7727 C203.3226,120.2097 203.0876,120.6137 202.8556,121.0207 C202.5896,121.4057 202.3246,121.7937 201.9976,122.1327 C201.6786,122.4747 201.3386,122.8047 200.9626,123.0837 C200.5986,123.3807 200.2006,123.6317 199.7986,123.8707 C198.1736,124.8167 196.3436,125.3167 194.5136,125.6067 C193.5956,125.7507 192.6676,125.8217 191.7406,125.8427 C190.8106,125.8627 189.8936,125.8417 188.9486,125.7447 L188.8006,125.7297 L188.6976,125.6077 L184.3226,120.4097 L184.2826,120.3627 L184.2616,120.3137 C183.9696,119.6287 183.7586,118.9627 183.5976,118.2607 C183.4306,117.5667 183.3416,116.8537 183.2926,116.1377 C183.2566,115.4197 183.2896,114.6987 183.3956,113.9807 C183.5236,113.2677 183.7086,112.5607 184.0166,111.8967 C184.1326,111.5477 184.3536,111.2517 184.5376,110.9367 L184.8266,110.4727 L185.1856,110.0617 C185.6326,109.4767 186.2216,109.0507 186.7836,108.5977 C187.0776,108.3877 187.4096,108.2277 187.7216,108.0417 C188.0386,107.8647 188.3536,107.6657 188.6776,107.5627 L189.6446,107.1857 C189.8196,107.1267 189.9376,107.0577 190.1596,107.0067 L190.6786,106.8837 L191.7146,106.6407 C192.0596,106.5607 192.4216,106.5637 192.7736,106.5217 C193.4806,106.4167 194.1936,106.4887 194.9036,106.5367 C195.2606,106.5417 195.6026,106.6687 195.9516,106.7297 C196.3006,106.8017 196.6486,106.8757 196.9746,107.0207 C197.3046,107.1537 197.6456,107.2587 197.9626,107.4147 L198.8946,107.9227 C199.4826,108.3117 200.0606,108.7207 200.5646,109.2107 C200.8326,109.4387 201.0756,109.6897 201.3066,109.9527 C201.5466,110.2077 201.7806,110.4677 201.9876,110.7487 C202.4236,111.2927 202.8186,111.8687 203.1666,112.4697 C203.5176,113.0697 203.8316,113.6907 204.0816,114.3367 M204.0816,114.3367 C203.7886,113.7097 203.4346,113.1137 203.0486,112.5437 C202.6746,111.9667 202.2556,111.4177 201.7996,110.9047 C201.5836,110.6387 201.3416,110.3957 201.0946,110.1587 C200.8566,109.9127 200.6066,109.6797 200.3346,109.4717 C199.8236,109.0187 199.2416,108.6617 198.6676,108.3057 L197.7636,107.8487 C197.4566,107.7087 197.1286,107.6207 196.8136,107.5037 C196.5016,107.3747 196.1696,107.3167 195.8376,107.2587 C195.5056,107.2127 195.1826,107.0997 194.8446,107.1067 C194.1726,107.0837 193.5026,107.0337 192.8356,107.1557 C192.5036,107.2067 192.1646,107.2107 191.8386,107.2977 L190.8626,107.5597 L190.3746,107.6897 C190.2576,107.7097 190.0666,107.8097 189.9166,107.8657 L188.9546,108.2537 C188.6166,108.3657 188.3506,108.5497 188.0656,108.7137 C187.7876,108.8857 187.4906,109.0287 187.2256,109.2227 C186.7186,109.6457 186.1796,110.0367 185.7876,110.5677 L185.4656,110.9387 L185.2136,111.3587 C185.0526,111.6427 184.8526,111.9067 184.7556,112.2227 C184.4856,112.8197 184.3256,113.4587 184.2146,114.1067 C184.1246,114.7607 184.1016,115.4227 184.1406,116.0877 C184.1936,116.7507 184.2836,117.4137 184.4446,118.0647 C184.5836,118.7127 184.7906,119.3717 185.0336,119.9627 L184.9736,119.8667 L189.2966,125.1097 L189.0456,124.9727 C190.8106,125.1637 192.6396,125.1207 194.4176,124.9137 C196.1946,124.6887 197.9696,124.2597 199.5406,123.4087 C199.9286,123.1927 200.3146,122.9667 200.6676,122.6957 C201.0326,122.4417 201.3626,122.1397 201.6746,121.8257 C201.9926,121.5127 202.2666,121.1647 202.5386,120.8097 C202.7766,120.4337 203.0226,120.0587 203.2016,119.6467 C203.4106,119.2497 203.5396,118.8137 203.6806,118.3877 C203.7946,117.9507 203.9096,117.5127 203.9596,117.0617 C204.1046,116.1647 204.1086,115.2507 204.0816,114.3367" id="Fill-85" fill="#FEFEFE"></path>
            <path d="M75.4798,18.5385 C75.4798,18.5385 65.3248,14.3115 57.8238,15.1865" id="Fill-87" fill="#98D8E3"></path>
            <path d="M75.4798,18.5385 C75.4798,18.5385 74.3848,18.2415 72.7428,17.7965 C71.1038,17.3595 68.9248,16.7865 66.7308,16.3145 C65.6348,16.0725 64.5318,15.8715 63.4948,15.6985 C62.9748,15.6345 62.4738,15.5355 61.9958,15.4815 C61.5168,15.4275 61.0638,15.3765 60.6448,15.3295 C60.2258,15.3065 59.8398,15.2725 59.4968,15.2425 C59.1528,15.2035 58.8548,15.2245 58.6068,15.2135 C58.1118,15.2045 57.8238,15.1865 57.8238,15.1865 C57.8238,15.1865 58.1008,15.1275 58.5948,15.0445 C58.8418,15.0125 59.1418,14.9395 59.4888,14.9185 C59.8358,14.8875 60.2288,14.8525 60.6598,14.8295 C61.5178,14.8085 62.5238,14.8305 63.5938,14.9385 C64.6638,15.0415 65.7938,15.2345 66.9138,15.4645 C68.0278,15.7225 69.1368,15.9995 70.1538,16.3335 C71.1758,16.6495 72.1098,17.0035 72.9018,17.3245 C74.4818,17.9805 75.4798,18.5385 75.4798,18.5385" id="Fill-89" fill="#FEFEFE"></path>
            <path d="M230.7667,21.2292 C230.7667,21.2292 244.4957,19.3622 250.7807,21.2292" id="Fill-91" fill="#98D8E3"></path>
            <path d="M230.7667,21.2292 C230.7667,21.2292 231.0727,21.1492 231.6147,21.0392 C232.1567,20.9352 232.9297,20.7722 233.8657,20.6312 C235.7357,20.3342 238.2497,20.0712 240.7777,19.9982 C242.0407,19.9662 243.3077,19.9732 244.4937,20.0462 C245.0867,20.0612 245.6597,20.1372 246.2017,20.1872 C246.7437,20.2262 247.2537,20.3322 247.7237,20.4012 C248.1947,20.4612 248.6197,20.5842 248.9957,20.6722 C249.3727,20.7562 249.6977,20.8462 249.9597,20.9412 C250.4867,21.1182 250.7807,21.2292 250.7807,21.2292 C250.7807,21.2292 250.4677,21.1842 249.9217,21.1062 C249.6537,21.0542 249.3227,21.0152 248.9407,20.9912 C248.5597,20.9652 248.1357,20.9112 247.6657,20.8972 C245.7977,20.7852 243.3007,20.7922 240.8017,20.8672 C239.5517,20.8882 238.3007,20.9542 237.1267,20.9932 C235.9517,21.0422 234.8547,21.0872 233.9147,21.1262 C232.0257,21.1882 230.7667,21.2292 230.7667,21.2292" id="Fill-93" fill="#FEFEFE"></path>
            <path d="M64.7911,99.0967 C64.7911,99.0967 64.7101,98.9657 64.5901,98.7247 C64.4701,98.4817 64.3171,98.1257 64.1991,97.6707 C64.0761,97.2177 63.9981,96.6577 64.0571,96.0417 C64.0961,95.7367 64.1531,95.4147 64.2771,95.1037 C64.4001,94.7967 64.5791,94.4897 64.7731,94.2287 C65.5121,93.2947 66.2501,92.3617 66.8051,91.6607 C67.3591,90.9647 67.6671,90.4447 67.6411,90.4287 C67.6721,90.4237 67.6331,91.0767 67.2341,91.9177 C66.8591,92.7597 66.1981,93.8067 65.4631,94.7577 C64.7801,95.5767 64.6711,96.7287 64.6911,97.6007 C64.7031,98.0377 64.7301,98.4147 64.7551,98.6767 C64.7781,98.9437 64.7911,99.0967 64.7911,99.0967" id="Fill-95" fill="#FEFEFE"></path>
            <path d="M187.5735,127.7352 L181.4675,119.9672 C181.4675,119.9672 159.1525,109.2832 160.3755,136.0642 L167.9825,143.9732 L187.5735,127.7352 Z" id="Fill-97" fill="#98D8E3"></path>
            <path d="M179.7171,129.9997 L179.7751,132.3977 C179.7511,132.7967 179.6951,133.1947 179.6561,133.5947 C179.6001,133.9917 179.5981,134.4007 179.4981,134.7917 L179.1941,135.9667 C179.1181,136.3697 178.9321,136.7347 178.7611,137.1057 C178.5781,137.4697 178.4551,137.8687 178.1901,138.1887 C177.9461,138.5187 177.7331,138.8777 177.4611,139.1857 L176.5721,140.0537 L175.5421,140.7537 C175.1741,140.9427 174.7941,141.1097 174.4181,141.2877 C174.0261,141.4167 173.6301,141.5407 173.2321,141.6547 C172.4251,141.8287 171.6021,141.9307 170.7801,141.9257 C169.9521,141.9357 169.1481,141.8627 168.3121,141.6927 L168.2311,141.6757 L168.1541,141.6127 L162.9071,137.2937 L162.9441,137.3207 C162.3751,136.9017 162.0391,136.3727 161.8101,135.7677 C161.5761,135.1657 161.5801,134.5127 161.6581,133.9067 C161.7631,133.3007 161.9671,132.7267 162.2381,132.2037 C162.5001,131.6697 162.8341,131.1947 163.1761,130.7267 C163.5331,130.2727 163.9121,129.8417 164.3041,129.4227 C164.7191,129.0307 165.1191,128.6007 165.5471,128.2407 C165.9841,127.8797 166.3811,127.5177 166.8501,127.1577 L168.2731,126.1907 C168.7951,125.9417 169.3001,125.6617 169.8331,125.4437 L170.6651,125.1877 L171.0801,125.0607 L171.5141,125.0067 L172.3801,124.9037 L173.2521,124.9557 C173.5441,124.9517 173.8241,125.0447 174.1061,125.1077 C174.3891,125.1747 174.6731,125.2307 174.9341,125.3617 C175.1961,125.4827 175.4721,125.5737 175.7181,125.7207 L176.4521,126.1677 C176.9081,126.5117 177.3531,126.8657 177.7471,127.2737 C178.5421,128.0787 179.2141,128.9977 179.7171,129.9997 L179.7171,129.9997 Z M179.7171,129.9997 C179.1311,129.0457 178.4031,128.1877 177.5861,127.4427 C177.1781,127.0667 176.7261,126.7497 176.2701,126.4457 L175.5461,126.0607 C175.3041,125.9347 175.0371,125.8667 174.7861,125.7667 C174.5381,125.6547 174.2701,125.6107 174.0051,125.5587 C173.7401,125.5107 173.4801,125.4307 173.2081,125.4467 L172.4031,125.4267 L171.6061,125.5517 L171.2091,125.6147 L170.8261,125.7487 L170.0621,126.0127 C169.5711,126.2367 169.1031,126.5197 168.6231,126.7677 L167.3041,127.7357 C166.8881,128.0597 166.4601,128.4567 166.0391,128.8137 C165.6151,129.1797 165.2581,129.5787 164.8641,129.9587 C164.4971,130.3597 164.1401,130.7767 163.8121,131.2047 C163.4991,131.6447 163.1941,132.0877 162.9681,132.5657 C162.7301,133.0357 162.5651,133.5327 162.4841,134.0297 C162.4301,134.5227 162.4281,135.0287 162.6141,135.4757 C162.7701,135.9177 163.0951,136.3477 163.4241,136.6007 L163.4611,136.6287 L168.6561,141.0107 L168.4981,140.9307 C169.2221,141.0867 170.0151,141.1737 170.7811,141.1697 C171.1681,141.1907 171.5521,141.1417 171.9371,141.1227 C172.3201,141.0897 172.6961,141.0087 173.0791,140.9607 L174.1891,140.6607 L175.2421,140.2067 L176.2131,139.5957 L177.0641,138.8227 C177.3281,138.5457 177.5361,138.2167 177.7781,137.9157 C178.0401,137.6257 178.1671,137.2497 178.3551,136.9107 C178.5261,136.5617 178.7311,136.2257 178.8251,135.8417 L179.1871,134.7207 C179.3081,134.3457 179.3331,133.9467 179.4111,133.5597 C179.4721,133.1687 179.5521,132.7787 179.5981,132.3857 L179.7171,129.9997 Z" id="Fill-99" fill="#FEFEFE"></path>
            <path d="M102.0221,105.6991 C99.6411,107.0591 97.3131,108.5011 95.0481,110.0381 L94.7351,110.2511 L94.7291,109.8571 C94.6881,107.0351 94.2501,104.1711 93.2621,101.5381 C93.0101,100.8821 92.7291,100.2381 92.3941,99.6251 C92.0611,99.0131 91.7031,98.4131 91.2761,97.8681 C91.0691,97.5901 90.8551,97.3181 90.6101,97.0741 C90.3811,96.8151 90.1391,96.5711 89.8711,96.3541 C89.6191,96.1191 89.3511,95.9061 89.0601,95.7221 C88.7851,95.5161 88.4941,95.3351 88.1841,95.1861 C87.8861,95.0171 87.5801,94.8651 87.2531,94.7551 C86.9341,94.6311 86.6171,94.4981 86.2781,94.4301 C85.6191,94.2301 84.9301,94.1551 84.2461,94.0731 C83.5521,94.0571 82.8601,94.0201 82.1651,94.1031 C81.4691,94.1271 80.7811,94.2831 80.0911,94.3911 C79.4071,94.5371 78.7241,94.7111 78.0451,94.8901 C77.3771,95.1171 76.6981,95.3101 76.0381,95.5631 C75.3841,95.8311 74.7191,96.0741 74.0721,96.3631 L72.1441,97.2641 L72.1041,97.2831 L72.0771,97.2911 C70.0011,97.9041 67.9281,98.5451 65.8631,99.2021 C63.7921,99.8431 61.7271,100.5021 59.6731,101.1941 C57.6191,101.8861 55.5801,102.6171 53.5541,103.3861 C52.5451,103.7781 51.5421,104.1871 50.5611,104.6441 C50.0691,104.8701 49.5881,105.1161 49.1151,105.3781 C48.6531,105.6531 48.1731,105.9231 47.8091,106.3301 C48.1481,105.8991 48.6151,105.5971 49.0631,105.2921 C49.5201,104.9951 49.9951,104.7271 50.4781,104.4771 C51.4431,103.9721 52.4311,103.5151 53.4261,103.0741 C55.4151,102.1931 57.4481,101.4181 59.4861,100.6641 C63.5621,99.1501 67.6851,97.7811 71.8471,96.5181 L71.7801,96.5441 L73.7351,95.6071 C74.3921,95.3071 75.0711,95.0501 75.7391,94.7701 C76.4131,94.5041 77.1131,94.2971 77.7991,94.0591 C78.5011,93.8691 79.2051,93.6711 79.9211,93.5281 C80.6461,93.4201 81.3631,93.2661 82.1021,93.2461 C82.8331,93.1661 83.5741,93.2101 84.3121,93.2361 C85.0471,93.3291 85.7851,93.4181 86.4991,93.6411 C86.8641,93.7191 87.2091,93.8651 87.5551,94.0041 C87.9081,94.1281 88.2411,94.2961 88.5651,94.4831 C88.9011,94.6491 89.2161,94.8491 89.5141,95.0751 C89.8271,95.2801 90.1161,95.5141 90.3871,95.7701 C90.6751,96.0081 90.9341,96.2741 91.1781,96.5541 C91.4381,96.8201 91.6651,97.1131 91.8831,97.4121 C92.3301,97.9991 92.7141,98.6331 93.0401,99.2901 C93.3731,99.9441 93.6471,100.6231 93.8891,101.3111 C94.3681,102.6881 94.6871,104.1101 94.8871,105.5431 C95.0841,106.9781 95.1961,108.4151 95.1431,109.8711 L94.8241,109.6901 C97.1701,108.2641 99.5521,106.8911 102.0221,105.6991" id="Fill-101" fill="#FEFEFE"></path>
            <path d="M207.2534,106.7531 C209.6874,107.9281 212.0324,109.2801 214.3434,110.6841 L214.0294,110.8631 C213.9774,109.4291 214.0884,108.0141 214.2814,106.6001 C214.4784,105.1901 214.7924,103.7891 215.2644,102.4331 C215.5024,101.7561 215.7724,101.0871 216.1014,100.4431 C216.4224,99.7961 216.7994,99.1721 217.2404,98.5931 C217.4554,98.2991 217.6784,98.0111 217.9344,97.7491 C218.1744,97.4731 218.4294,97.2111 218.7134,96.9771 C218.9794,96.7241 219.2644,96.4941 219.5734,96.2921 C219.8664,96.0701 220.1764,95.8731 220.5074,95.7091 C220.8264,95.5251 221.1544,95.3591 221.5014,95.2371 C221.8434,95.1001 222.1824,94.9571 222.5414,94.8791 C223.2454,94.6601 223.9714,94.5721 224.6964,94.4811 C225.4224,94.4551 226.1514,94.4121 226.8724,94.4901 C227.6004,94.5111 228.3054,94.6621 229.0194,94.7691 C229.7244,94.9091 230.4174,95.1051 231.1094,95.2911 C231.7854,95.5261 232.4734,95.7301 233.1374,95.9911 C233.7954,96.2681 234.4644,96.5201 235.1114,96.8161 L237.0374,97.7391 L236.9714,97.7131 C241.0694,98.9571 245.1294,100.3051 249.1434,101.7951 C251.1504,102.5391 253.1524,103.3021 255.1114,104.1691 C256.0914,104.6031 257.0634,105.0541 258.0134,105.5511 C258.4894,105.7971 258.9574,106.0611 259.4084,106.3531 C259.8494,106.6531 260.3084,106.9511 260.6424,107.3751 C260.2834,106.9741 259.8114,106.7081 259.3564,106.4381 C258.8904,106.1801 258.4164,105.9381 257.9324,105.7151 C256.9664,105.2651 255.9784,104.8621 254.9844,104.4761 C252.9904,103.7191 250.9824,102.9991 248.9594,102.3181 C246.9364,101.6371 244.9034,100.9871 242.8634,100.3561 C240.8304,99.7091 238.7884,99.0781 236.7444,98.4741 L236.7174,98.4671 L236.6784,98.4481 L234.7804,97.5601 C234.1424,97.2761 233.4884,97.0361 232.8434,96.7721 C232.1934,96.5231 231.5254,96.3331 230.8674,96.1101 C230.1984,95.9341 229.5264,95.7621 228.8524,95.6191 C228.1724,95.5121 227.4954,95.3581 226.8104,95.3351 C226.1254,95.2531 225.4434,95.2901 224.7614,95.3061 C224.0864,95.3861 223.4084,95.4601 222.7594,95.6571 C222.4254,95.7231 222.1144,95.8541 221.7994,95.9771 C221.4774,96.0851 221.1764,96.2351 220.8824,96.4021 C220.5774,96.5481 220.2914,96.7261 220.0194,96.9291 C219.7344,97.1101 219.4694,97.3201 219.2214,97.5521 C218.9574,97.7651 218.7184,98.0051 218.4934,98.2611 C218.2524,98.5011 218.0424,98.7681 217.8384,99.0421 C217.4174,99.5791 217.0644,100.1701 216.7364,100.7731 C216.4074,101.3761 216.1304,102.0111 215.8824,102.6571 C214.9084,105.2501 214.4774,108.0691 214.4374,110.8491 L214.4314,111.2371 L214.1234,111.0271 C211.8924,109.5131 209.5984,108.0931 207.2534,106.7531" id="Fill-103" fill="#FEFEFE"></path>
        </g>
    </g>
</svg>