<?xml version="1.0" encoding="utf-8"?>
<!-- Generator: Adobe Illustrator 19.1.0, SVG Export Plug-In . SVG Version: 6.00 Build 0)  -->
<svg version="1.1" id="Layer_1" xmlns="http://www.w3.org/2000/svg" xmlns:xlink="http://www.w3.org/1999/xlink" x="0px" y="0px"
	 viewBox="-292 342.4 606.2 156.5" style="enable-background:new -292 342.4 606.2 156.5;" xml:space="preserve">
<style type="text/css">
	.st0{fill:#FFFFFF;}
	.st1{font-family:'HelveticaNeue-LightItalic';}
	.st2{font-size:43.9916px;}
</style>
<g>
	<text transform="matrix(1 0 0 1 40.337 485.4746)" class="st0 st1 st2">water festival</text>
	<g>
		<path class="st0" d="M101.5,342.4c0.6,0.3,1.1,0.5,1.7,0.7c3.4,1.3,5.8,3.7,7,7.2c0.7,2.3,0.7,4.5-0.7,6.5c-0.4,0.5-0.6,1.1-1,1.8
			c0.6,0.9,1.2,1.7,1.8,2.6c1.2,1.6,1.2,3.4,0.4,5.2c-1.2,2.6-3,4.8-4.7,7c-4.2,5.4-8.5,10.8-12.7,16.2c-2.4,3.1-4.6,6.3-7.1,9.9
			c1.4-0.2,2.4-0.4,3.4-0.6c3.8-0.8,7.5-1.7,11.2-2.5c1.8-0.4,3.7-0.7,5.6-0.8c2.5-0.2,4.9,0.3,7,1.8c1.9,1.4,2.7,3.3,2.8,5.5
			c-1.6,2.2-3.8,3.7-5.9,5.2c-4.4,2.8-8.9,5.5-13.3,8.3c-4.8,3.1-9.5,6.5-14.2,9.7c-1,0.7-0.9,0.8-1.1,2.2c0.7,1,1.8,1.4,2.9,1.8
			c3.2,1.2,6.4,2.6,9.2,4.7c1.8,1.4,3.2,3,3.7,5.3c0.7,3.6-1.6,8.7-6,9.7c-3.3,0.7-6.4,0-9.2-1.7c-3.4-2-6-4.8-8.6-7.7
			c-2.2-2.5-4.1-5.1-6.2-7.7c-0.8,1.6-1.6,3.3-2.5,5c-1.9,3.9-3.9,7.8-5.7,11.8c-0.7,1.6-1.8,2.7-3.2,3.5c-2.8,1.5-5.8,2-8.9,1.1
			c-2.2-0.6-3.3-2.2-3.8-4.3c-0.5-2.2,0-4.2,1-6.2c1.3-2.6,2.7-5.2,3.9-7.9c1.4-3,2.6-6,3.9-9c-0.6-0.8-1.3-1.5-1.7-2.3
			c-1.6-2.7-1.5-5.6-0.3-8.5c0.4-1,1-1.8,1.5-2.7c0.7-1.2,1.7-1.9,3-2.3c1.6-0.5,3.1-1.1,4.6-1.7c0.5-1.1,0.9-2.1,1.3-3.1
			c1.8-3.8,3.7-7.5,5.4-11.3c3-6.3,5.8-12.7,8.8-19c1.9-4.1,4.1-8,6.1-12.1c2.7-5.5,5.5-11,8.1-16.5c1-2.1,2.7-3.1,4.6-4
			c0.6-0.3,1.1-0.5,1.7-0.8C97.6,342.4,99.5,342.4,101.5,342.4z"/>
		<path class="st0" d="M-167,478.4c-1.1,0-1.1,0.9-1.4,1.7c-1.6-0.5-3.2-0.9-4.7-1.4c-1.4-0.5-2.8-0.8-4.4-0.8
			c-1.2,0-2.4-0.5-3.6-0.9c-0.2-0.1-0.4-0.5-0.8-1c-1.2-0.2-2.9-0.4-4.4-0.9s-2.9-1.3-4.5-2c-0.5,0.6-1,1.1-1.5,1.7
			c-0.5-0.1-1-0.1-1.4-0.2c-0.2-0.3-0.4-0.6-0.7-1c-0.4,0.1-0.7,0.1-0.9,0.3c-0.6,0.5-1.1,1-1.6,1.4c-2.2-0.6-4.2-0.5-6.2-0.2
			c-0.6,0.1-1.2,0.2-1.7,0.2c-2.1-0.3-4.1-0.7-6.1-1c-1.2,0.6-2.3,0.6-3.6,0.4c-1.9-0.3-3.9-0.1-6.2-0.1c3.5,1.4,6.8,1.2,10.1,1.5
			c0.3,0,0.6,0,1.3,0.1c-0.5,0.4-0.6,0.6-0.9,0.7c-0.3,0.1-0.7,0.1-1,0c-2.7-0.7-5.5-0.3-8.2-0.4c-0.1,0-0.2-0.1-0.4-0.1
			c0-0.2,0-0.3,0.1-0.5c-2.5,0-4.9,0-7.4,0v-0.1c0.9-0.2,1.8-0.5,2.8-0.7c-1.5-0.1-3-0.3-4.6,0.2c0.1,0.4,0.2,0.6,0.3,1
			c0.6,0.1,1.2,0.2,1.9,0.3c0,0.1,0,0.2,0,0.2c-0.4,0.1-0.8,0.2-1.1,0.2c-2.4,0-4.7,0-7.1-0.1c-2-0.1-3.9-0.2-5.9-0.4
			c-0.7-0.1-1.4-0.4-2-0.6c-0.5,0.1-1,0.2-1.5,0.1c-2.1-0.2-4.2-0.5-6.4-0.7c-1-0.1-2-0.1-2.9,0c-2.7,0.2-5.3-0.2-7.8-1.4
			c-0.9-0.4-1.8-0.7-2.8-0.9c-1.4-0.3-2.8-0.7-3.9-1.7c-0.5-0.4-1.3-0.5-2.2-0.8c-0.2-0.2-0.7-0.6-1-1c-2.8-0.3-4.6-2.2-6.6-3.7
			s-3.8-3.2-4.6-5.7c-0.4-0.3-0.7-0.5-1.1-0.7c-1.3-0.5-1.9-1.5-2.3-2.8c-0.4-1.2-0.7-2.5-1.1-3.7c-0.2-0.7-0.6-1.4-0.9-2.2
			c-2-0.5-2.5-2-2.7-3.7c0.4-0.9,1.2-1.3,2.4-1.2c-1.1-1.5-2.1-2.8-3-3.9c-0.2-0.7-0.4-1.3-0.6-1.9c0-0.9,0-1.8,0-2.8
			c0.4-1.5,0.7-3,1.1-4.5c0.2-0.6,0.3-1.3,0.6-1.8c1.8-3.1,3.6-6.1,4.6-9.5c0.1-0.2,0.2-0.4,0.3-0.5c1-1.2,1.9-2.5,2.9-3.7
			c0.4-0.5,0.8-0.9,1.2-1.3c0.5,0.1,0.8,0.2,1.3,0.3c0.3-0.3,0.6-0.7,1.2-1.5c-0.8,0.4-1.2,0.6-1.7,0.8c-0.1-0.2-0.3-0.4-0.6-0.8
			c2.2-1.8,4.1-4,6.7-5.2c0.6,0.1,1.1,0.1,1.5,0.2c0.8-0.6,1.3-1.6,2.6-0.9c0.2-0.4,0.3-0.8,0.5-1.2c0.7-0.3,1.5-0.5,2.3-0.8
			c0.2-0.3,0.3-0.6,0.6-1.1c0.4,0.4,0.7,0.8,1.1,1.2c0.6-0.3,1.3-0.6,2.1-1c0.3,0,0.7,0.2,1,0.1c1.2-0.3,2.4-0.6,3.6-1
			c0.7-0.2,1.4-0.2,2,0.7c-0.3,0.1-0.8,0.5-1.1,0.4c-0.7-0.3-1.2,0-1.8,0.2c-1.1,0.4-2.3,0.9-3.5,1.3c0.5,0.3,1.1,0.6,1.7,1
			c0.4-0.4,0.7-0.8,1.1-1.2c2,0.1,4,0,5.4-1.8c0.4-0.5,1-0.7,1.6-1.1c0.1,0.8,0.3,1.5,0.4,2.3c0.7,0,1.2,0,1.8,0
			c0.2-0.5,0.5-1,0.8-1.7c-0.4-0.5-0.7-0.9-1.1-1.4c-0.9,0.1-1.7,0.3-2.5,0.4c0.7-1.1,1.8-1.2,2.8-1.1c1.7,0.2,2.4,1.4,2.7,2.9
			c0.3-0.2,0.6-0.3,1-0.5c-0.3-0.2-0.4-0.3-0.6-0.4c0.2-0.4,0.4-0.8,0.6-1.3c-0.3-0.3-0.5-0.6-0.9-1c1.2,0.1,2.2,0.2,3.5,0.3
			c-0.4,0.7-0.6,1.1-0.9,1.6c0.3,0.2,0.7,0.3,1.1,0.5c0.3-0.3,0.5-0.7,0.9-1.1c0.3,0.3,0.5,0.6,0.8,0.9c0.4-0.4,0.8-0.9,1.3-1.5
			c-0.2-0.2-0.4-0.3-0.6-0.5c0-0.5,0-1.1,0-1.8c0.4-0.1,0.9-0.3,1.5-0.5c0.3,0.7,0.6,1.4,1,2.1c1.9-0.7,3.7-0.4,5.8,0.4
			c-0.5,0.3-0.8,0.5-1.4,0.8c1,0.3,1.9,0.6,2.9,0.8c0.1-0.5,0.1-0.8,0.2-1.3c0.9,0.2,1.8,0.4,2.9,0.6c-0.9,0.3-1.6,0.6-2.4,0.9
			c-0.2,0.4-0.4,0.8-0.6,1.1c-1.3-0.4-2.2-1.7-4-1.3c1.4,0.6,2.6,1.1,2.2,2.8c-0.5,0.8-0.7,0.9-0.8,0.9c-0.3-0.1-0.6-0.2-0.9-0.3
			c0-0.4,0-0.7,0.1-1c-0.7-0.6-1.4-1.1-2.4-1c-0.4,0-0.8-0.4-1.2-0.6c-0.6,0.6-0.5,1.4,0,1.9c0.5,0.6,1.2,0.9,2.2,1.7
			c0.2,0.5,0.7,1.4,1.2,2.6c0.5-0.8,0.5-1.8,1.4-2c0.5,1.8,0.4,2-1.5,3.1c-0.9-0.6-1.2-1.6-1.7-2.6c-0.5-0.2-1-0.4-1.4-0.6
			c-0.7-0.9-0.7-2-1.7-2.7c-0.6,0.4-1.1,0.8-1.9,1.3c-0.6-0.1-1.3-0.2-2.2-0.3c-0.5,0.3-1,0.7-1.6,1.1c-1-0.1-2-0.6-3.2,0.3
			c-0.5,0.9-1.5,1.6-2.7,2c-1.4,0.5-2.3,1.5-2.8,2.8c-0.2,0.6-0.6,1.1-1,1.7c-0.4-0.2-0.7-0.3-1-0.5c0.9-1.4,1.8-2.6,2.7-4
			c-1.1,0.2-2,0.3-3.1,0.5c-1.1-0.7,0.6-2.2-0.7-2.9c-0.3,0.5-0.5,1.1-0.8,1.4c-0.4,0.4-1,0.5-1.6,0.8s-1.2,0.5-1.8,0.7
			c0,0.8,0,1.7-0.2,2.5c-0.1,0.6-0.5,1.2-1,1.6c-1.3,1-2.1,2.2-3,3.6c-1,1.5-2.2,2.9-3.4,4.3c-0.3,0.4-0.6,0.7-0.9,1.1
			c-1,1.9-2.1,3.8-3,5.7c-0.5,1-1,2.2-0.2,3.4c-0.3,0.5-0.5,1-0.9,1.7c0.2,0.1,0.4,0.3,0.6,0.5c0.2-0.4,0.3-0.7,0.5-1
			c1.2,1.9,1.5,4.1,2.1,6.1c0.2,0.7,0.4,1.4,0.6,2.1c0.5,1.4,1.3,2.6,2.8,3.1c1.1,0.4,1.7,1.1,2.1,2.2c0.4,0.9,0.7,1.8,1.1,2.7
			c1.7,3.7,4.5,5.7,8.6,6.3c2.5,0.3,5,0.3,7.4,0.2c2.5-0.1,4.6,0.6,6.4,2.3c1.7,1.6,4,2.1,6.3,2.4c0.3,0,0.6,0.1,1,0.1
			c0,0.4,0,0.7,0.1,1c-0.1,0-0.2,0.1-0.3,0.1c-1.3-0.2-2.7-0.5-4-0.7c-0.9-0.1-1.6-0.4-2.4-1.1c-1.7-1.5-3.5-2.9-5.8-3.5
			c-0.5-0.1-1-0.2-1.5-0.1c-1.6,0.3-3.1,0.2-4.7,0c-2-0.3-4-0.3-6.2-0.5c-1.3-1.2-2.7-2.4-4-3.7c-1.1-1.1-1.9-2.5-2.4-4
			c-0.3-1-0.8-1.8-1.7-2.5c-0.5,0.3-1.1,0.5-1.9,0.9c-0.5-0.7-1.2-1.4-1.6-2.2c-0.7-1.4-1.3-2.9-1.9-4.3c-0.5-1.1-1.1-2.1-1.6-3.1
			c-0.4-0.8-0.8-1.5-1-2.3c-0.3-1.1-0.5-2.1-0.6-3.2c-0.1-0.9-0.2-1.9,1.2-2.3c-0.2-0.4-0.3-0.8-0.5-1.2c0-0.2,0.1-0.5,0.1-0.8l0,0
			c0.2,0.2,0.4,0.5,0.6,0.7c1.3-2.8,2.4-5.6,4.9-7.6c-0.1-0.3-0.2-0.6-0.4-0.9c-0.4,0.1-0.8,0.2-1.5,0.4c0.7-0.9,0.1-2,1-2.8
			c0.1,0.4,0.2,0.7,0.3,1c0.1,0,0.2,0,0.2-0.1c0.3-0.8,0.5-1.5,0.5-2.4s0.8-1.7,1.4-2.6c0,0.5-0.1,1-0.1,1.7c0.4-0.3,0.7-0.5,1-0.7
			c-0.2-0.7-0.4-1.3-0.6-1.8c0.2-0.9,0.4-1.7,0.7-2.8c0.6-0.4,1.4-1,2.4-1.6c-0.1-0.3-0.3-0.6-0.4-1c-0.9,0.1-1.4,0.5-2,1.2
			c-1,1.3-2.1,2.5-3.8,2.9c-0.1,0.3-0.3,0.6-0.5,0.9c0.6,0.1,1.1,0.2,1.7,0.3c0,0.2,0,0.4,0,0.5c-0.6,0.8-1.1,1.8-1.9,2.5
			c-1.2,1.4-2,3-3.1,4.4c-0.1,0.2-0.3,0.4-0.5,0.7c0-0.5-0.1-0.8-0.1-1.2c0.4-0.6,0.8-1.3,1.2-1.9c-0.2-0.3-0.3-0.5-0.6-0.8
			c-0.4,1-1.1,1.7-0.6,2.8c-0.1,0.1-0.3,0.1-0.3,0.2c0,1.7-1,3.1-1.7,4.5c-0.3,0.7-0.6,1.4-0.9,2.2c-0.1,0.3,0,0.7,0,1.3
			c-0.1,0.2-0.4,0.5-0.7,0.9c0.3,0.5,0.6,0.9,0.9,1.4c-0.3,0.6-0.6,1.2-0.8,1.7c0.1,1.1,0.1,2.1,0.3,3c0.3,1.4,0.4,2.9,1,4.1
			c0.8,1.9,1.1,3.9,0.9,5.9l0,0c-0.3-0.3-0.7-0.6-0.8-1c-0.2-0.5,0-1.2-0.1-1.7c-0.2-0.9,0-1.9-0.9-2.7c-0.3,3.1,0.4,5.9,1.5,8.6
			l0,0c0,1.9,1.4,3,2.4,4.5c-0.1,1.2-0.4,2.5-0.3,3.9c0.1,1.3,0.4,2.5,0.6,3.6c1.8,1.3,3.5,2.3,4.8,4c1.9-0.6,3.6-1.2,5.6-1.8
			c-0.5-0.3-0.8-0.5-1.2-0.8c-0.5,0.3-1,0.6-1.6,1c-0.3-0.1-0.6-0.2-1.2-0.4c0.2-0.3,0.4-0.6,0.7-1c-0.3-1-1.9-1.7-0.8-3.2
			c1,0.9,2,1.8,3.1,2.8c0.4-0.3,0.8-0.5,1.2-0.7c1.6-0.1,3.2-0.2,4.9-0.4c0.8,0.4,1.7,0.9,2.7,1.5c2.2,0,4.6-0.3,6.1,1.9
			c0.8-0.1,1.6-0.3,2.3-0.4c0.6,0.4,1.1,0.8,1.7,1.3c0.5,0,1.1,0.1,1.7,0.1c0.3,0.3,0.5,0.7,0.8,1c1,0.3,2.1-0.3,2.9,0.6
			c0,0.2,0,0.4,0,0.6c1,0.8,2.4,0.5,3.4,1.6c-1.3,1.1-2.5-0.4-3.7,0.1c-0.4-0.5-0.7-1-1-1.3c-1.1-0.3-2.1-0.6-3.1-0.8
			c0.1,1,0.1,1,2,1.9c0.3-0.1,0.5-0.2,0.8-0.3c0.9,1.6,2.1,1.9,3.8,1.4c0.7-0.2,1.5-0.1,2.3,0c1.1,0.2,2.1,0.4,3.3,0.7
			c0-0.5,0-0.8,0-1.1c0.7,0,1.4-0.1,2-0.1c0.8,0,1.6,0.1,2.3,0.3c1.4,0.5,2.8,0.4,4.3,0.2c1.7-0.3,3.4-0.3,5,0.1
			c1.1,0.3,2.3,0.3,3.4,0.5c0.7,0.1,1.4,0.4,2.2,0.6c1.8-0.5,1.8-0.5,4.9-0.1c0.3,0.3,0.6,0.7,1,1.1c1.2-0.4,2.4-0.4,3.6-0.1
			c1.5,0.3,3.1,0.1,4.9,0.1c0,0.4-0.1,0.7-0.1,1c1,0.8,2.1,1,3.4,1c-0.5-0.2-1-0.5-1.6-0.8c0.9-0.7,1.7-0.3,2.5-0.4
			c0.7-0.1,1.5-0.2,2.4-0.3c0-0.1,0.1-0.4,0.2-0.8c2,0.3,4.1,0.6,6.1,0.8c0-0.1,0-0.1,0.1-0.2c-0.3-0.2-0.7-0.4-1-0.5
			c-1.5-0.2-3.1-0.3-4.6-0.5c-0.3-0.3-0.5-0.5-0.6-0.6c-1.8-0.2-3.5-0.5-5.1-0.7c0-0.1,0-0.1,0-0.2c0.5-0.1,1-0.2,2-0.3
			c-1.4-0.1-2.3-0.2-3.3-0.3c0-0.4,0.1-0.6,0.1-1c-1.7,0.1-3.3-0.1-4.7-1.6c-0.3-1.2-1.2-1.7-2.7-1.6c-2.8,0.2-5.3-0.5-7.4-2.4
			c-0.6-0.5-1.3-0.9-2.3-0.6c-0.8,0.8-1.8,1.6-2.7,2.5c-1.1,0.4-1.8-0.1-2.6-0.7c-0.4,0.1-0.8,0.3-0.9,0.3c-2.1-0.8-4.1-1.5-6.1-2.3
			c-0.5,0.3-0.9,0.7-1.5,1.1c-0.1-0.1-0.2-0.2-0.4-0.3c-0.7,0.3-1.4,0.6-2.3,1c-0.2-0.4-0.3-0.6-0.4-0.8c0.1-0.2,0.1-0.4,0.2-0.4
			c1.3-0.6,2.7-0.9,4.1-1.1c1.3-0.2,2.3-0.1,3.3,0.6c1.1,0.7,2.2,1.1,3.5,1.1c0.4,0,0.9,0.3,1.3,0.3c0.6,0.1,1.3,0.1,1.8,0.1
			c0.5-0.6,0.8-1.1,1.3-1.5c1.2-1.1,2.4-1.2,3.7-0.3c0.9,0.6,1.7,1.4,2.7,1.9c0.9,0.5,2,0.7,3,1c2-1.2,3.8,0.1,5.8,0.7
			c0-0.3,0-0.6-0.1-0.9c1.4,0.1,2.7,0.3,4.1,0.9c0.9,0.4,1.9,0.4,2.9,0.4c1.5,0,2.9,0.3,4.4,0.8c1.4,0.5,2.8,0.9,4.4,0.9
			c1.2,0,2.7,0,3.3,1.2c2.2,0.4,4.2,0.8,6.3,1.2c0.5,1.1,1.3,1.8,2.7,1.6c-0.2,0-0.4-0.1-0.5-0.1c-0.2-0.1-0.4-0.3-0.8-0.6
			c0.5-0.1,0.8-0.2,1-0.2c1.2,0.1,2.3,0.2,3.5,0.3c0.8,0.1,1.6,0,2.4,0.1s1.5,0.4,2,0.6c2.1-0.1,3.9-0.2,6.1-0.3
			c0.3-0.1,0.9-0.4,1.5-0.7c2.2,0.7,4.4,0.5,6.6,0.2c0.2,0.1,0.4,0.3,0.7,0.5c-0.4,0.1-0.7,0.2-1.2,0.4c0.5,0.1,0.9,0.1,1.3,0.1
			c0.2-0.3,0.4-0.6,0.6-0.9c1.8,0.7,1.9,0.7,4.6,0.1c0.8,0.8,2,0.7,3.1,0.7c3.3,0.1,6.5,0.3,9.5,1.8c0.4,0.2,0.9,0.2,1.3,0.1
			c1.5-0.5,3-0.2,4.4,0.4c1.6,0.7,3.1,0.6,4.8,0.2c1.3-0.4,2.6-0.4,4-0.5c-0.2-0.3-0.4-0.5-0.6-0.8c1.5-0.4,3-0.8,4.5-1.2
			c-1.6-0.2-3.1-0.1-4.6-1.4c0.6,0,1-0.1,1.4,0c1.8,0.5,3.5,0,5.1-0.6c0.7-0.3,1.3-0.4,2.3,0c-1,0.6-1.9,1.1-2.9,1.7
			c0.9,0.5,1.8-0.1,2.6,0s1.7,0,2.6,0c-0.4-0.4-0.7-0.8-1.1-1.3c1-0.1,1.7-0.1,2.4-0.3c0.7-0.2,1.4-0.6,2.4-0.2
			c-0.6,0.3-1.1,0.6-1.6,0.8c0.3,0.2,0.7,0.4,1,0.6c2.7,0.4,5.4,0.6,8.3,0.1c0.1,0.4,0.2,0.8,0.3,1.2c1.2,0.2,2.5,0.4,3.8,0.6
			c0.4-0.4,0.8-0.9,1.2-1.3c0.9-0.9,1.9-1.1,2.8-0.2c1.3,1.1,2.8,1.8,4.9,2.1c-2.1,0.5-3.5-0.3-4.8-1.1c-0.6-0.4-1.1-0.9-2.1-0.5
			c-0.6,0.6-1.3,1.2-2.1,2c-1.4-0.3-2.8-0.5-4.4-0.8c-0.3,0.3-0.8,0.7-1.4,1.2c-0.2-0.3-0.4-0.5-0.7-0.9c-1.2,0.2-2.4-0.8-3.7-0.3
			c-1.2-0.8-2.5,0.1-3.8-0.2c0.1,0.4,0.1,0.6,0.1,1c-0.2,0.1-0.4,0.2-0.7,0.2c-1.4,0.2-2.6,0.5-3.8,1.4c-1.3,1.1-3,1.2-4.6,1.3
			c-1.1,0.1-2.2,0.1-3.3,0.1c-2-0.1-4,0-6,0.5c-0.4,0.1-0.8,0.2-1.2,0.2c-3.3-0.1-6.6-0.2-9.9-0.3c0-0.1,0-0.3,0-0.4
			c1.8,0,3.6,0,5.4,0c-1.4-0.5-3-0.3-4.4-1.3c0.3-0.1,0.4-0.2,0.5-0.2c0.1-0.1,0.2-0.1,0.5-0.3c-0.8-0.1-1.5-0.2-2.1-0.3
			c-0.1-0.3-0.2-0.5-0.3-0.8c-1.7-0.1-3.4-0.2-5.3-0.3c0.3,0.3,0.4,0.4,0.7,0.7c-2.5,0-4.8,0.1-7.1,0.1c-2.2,0-4.5-0.2-6.8-0.3
			c0-0.3,0-0.5,0-0.7c-0.8-0.2-1.7-0.4-2.7-0.6c-0.1,0.2-0.1,0.4-0.2,0.7c-4.2,1.1-8.5,1.3-12.9,0.1c4.1-0.2,8.2-0.4,12.5-0.6
			c-1.1-1.1-2.1,0-3.1-0.2c-1-0.1-2,0-2.9,0c-1,0-2.1,0-3.1,0c-0.4-0.4-0.7-0.8-1.1-1.3c-0.6,0.4-1.1,0.7-1.9,1.1
			c-0.5-0.3-1-0.7-1.6-1.1c-0.5,0.3-0.9,0.6-1.2,0.8c-2.3-0.2-4.4-0.4-6.6-0.7c-1.3-0.2-2.5-0.9-3.8-0.9c-2.1-0.2-4.2-0.7-6.3-1
			c-0.6-0.1-1.3,0-2,0.2c0.5,0.1,0.9,0.2,1.4,0.3c0,0.2,0.1,0.4,0.1,0.4c3.9,0.8,7.7,1.5,11.6,2.3c-0.1,1.1-0.8,1.1-1.5,1.1
			c-0.6,0-1.3-0.4-1.8,0.6c1.6,0.4,3.2,0.7,4.8,1.1c1.3,0.4,2.6,0.8,3.9,1.3c1.9,0.8,3.8,1.4,5.7,1.7c1.3-1,1.3-1,2.3-1.1
			C-167,478-167,478.2-167,478.4L-167,478.4z M-256.6,467c0.7,0.5,1.5,0.8,1.9,1.7c0.3,0.6,1,0.8,1.7,0.5c0.2-0.4,0.3-0.9,0.5-1.3
			c1.3,0.3,2.4,0.5,3.7,0.7c-2.1-2-3.8-2.8-6.3-2.8c-0.1-1.2-1.3-0.5-1.9-0.9c-0.1-0.6-0.2-1.2-0.3-1.8c-0.7-0.1-1.3-0.2-1.6,0.6
			c0.4,0,0.7,0,1.2,0c0.1,0.8,0.2,1.6,0.2,2.3C-257.3,466.5-257.2,466.9-256.6,467z M-286.1,431.6c0.4,0.1,0.8,0.2,1.1,0.5
			c0.5,0.3,0.8,0.7,1.2,1.1c0.1,0.1,0.2,0.3,0.3,0.4c0.3,0.6,0.8,1.1,0.3,1.9c-0.3-0.3-0.6-0.5-0.9-0.9c0.1,1.6,0,3.1-1.7,4.1
			c0.9,0,1.4-0.1,1.9-0.1c0.4-0.7,0.7-1.3,0.9-1.8c0,1.3,0.2,2.4,1,3.4c0.4,0.1,0.8,0.2,1.4,0.4c-0.2-1.2-0.4-2.2-0.5-3.2
			c-0.1-1.1,0.3-2.2-0.4-3c-0.4-0.1-0.6-0.2-0.9-0.3c1.4-4,2.7-7.8,4-11.6c0,0,0-0.1-0.1-0.2c0-0.1-0.1-0.1-0.1-0.1
			s-0.1-0.1-0.2-0.1c-0.3,0.4-0.5,0.9-0.8,1.3c-0.1,0-0.2-0.1-0.2-0.1c0.3-1.1,0.7-2.2,1-3.5c-0.1-0.3-0.3-0.8-0.5-1.6
			c-0.6,1.4-0.9,2.7-2.3,3.1c-0.1-0.2-0.3-0.5-0.4-0.8c-0.9,0.6-1.5,1-1.7,1.8c0.6,0.3,1,0.6,1.7,1c-0.9,1.3-1.7,2.5-2.4,3.7
			c0.1,0.3,0.1,0.6,0.2,0.9c-0.3,0.2-0.6,0.4-0.9,0.6C-284.9,429.8-285.4,430.7-286.1,431.6c-0.4,0.2-0.9,0.4-1.5,0.7
			c-0.7,1.5-1.4,3-2.2,4.5c0.8,1.2,0.6,2.3,0,3.4c-0.3,0.6-0.8,1.2-0.5,2c0.1,0.1,0.3,0.2,0.4,0.3c0.2-0.5,0.3-0.9,0.4-1.4
			c0.1,0,0.2,0,0.3,0c0.2,0.6,0.3,1.3,0.5,1.9c0.1,0,0.1-0.1,0.2-0.1c0-1.2,0-2.4,0-3.7c0.3-0.4,0.6-0.9,1-1.4
			c-0.5-0.8-0.3-1.5,0.2-2.1c0.4-0.5,0.7-1.1,1.1-1.6C-285.6,433.2-285.5,432.4-286.1,431.6z M-239.5,473.9c1,0.7,1.5-0.5,2.3-0.6
			c1.5,0.4,3,0.9,4.6,1.4c0.9,0,1.9,0,3.1,0c0.1-0.2,0.4-0.5,0.6-0.8c-0.1,0-0.1-0.1-0.3-0.2c-2.3,1-4.4,0.2-6.5-1
			c-0.1-0.3-0.2-0.7-0.3-1c-1.2-0.8-2.4-1.3-3.8-1.1c-2.4,0.3-4.7,0-6.5-2c-0.3,0.4-0.6,0.7-0.8,1c0.5,0.1,0.9,0.3,1.4,0.4
			c-1,1.5-2.1-0.3-2.4-0.3c0.5,0.8,1.1,1.6,1.9,2.8c2-0.5,4.4-0.3,6.7,0.7C-239.5,473.4-239.5,473.7-239.5,473.9z M-233.2,471.1
			c1.5,1.2,3.3,1.1,5.1,1.3c1.7,0.2,3.4,0.1,4.6-1.4c-0.9,0-1.9-0.2-2.7,0c-1.8,0.4-3.5-0.1-5-0.7
			C-231.9,470.7-232.5,470.9-233.2,471.1z M-272.3,465.8c-0.5-0.4-0.9-0.9-1.5-1.2c-1.4-0.8-2.5-1.7-2.8-3.4c-0.4,0-0.7,0-1,0
			c-0.4,0.9-0.1,1.7,0.4,2.3c1.2,1.2,2.2,2.7,3.8,3.3C-273,466.4-272.7,466.2-272.3,465.8z M-222.1,472.2c1.3-0.1,2.4-0.2,3.6-0.4
			c1-0.1,2.1-0.2,3,0.4c1.3,0.8,2.8,1.1,4.3,1.2c0.3-0.5,0.5-0.8,0.8-1.3c-0.9,0-1.6,0-2.3,0s-1.5,0.1-2.1-0.2
			c-1.2-0.6-2.5-0.6-3.8-0.6s-2.6-0.2-3.9-0.4c-0.1,0-0.2,0.1-0.3,0.3C-222.6,471.5-222.4,471.8-222.1,472.2z M-277.1,455.1
			c-0.1-0.1-0.3-0.2-0.4-0.3c-0.7,0.6-1.3,1.1-2,1.7c-0.2-0.1-0.4-0.1-0.6-0.2c0.1,1.2,0.2,2.3,0.4,3.3c0,0.1,0.1,0.3,0.2,0.4
			s0.3,0.2,0.4,0.3c0.1-0.4,0.2-0.8,0.3-1.1c0.4-0.1,0.7-0.2,1-0.3c-0.3-0.6-0.5-1.1-0.7-1.5C-277.7,456.8-277.2,456-277.1,455.1z
			 M-195.8,466.7c-1.8-0.3-3.6-0.2-5.2-1.1c-0.5-0.3-1-0.1-1.2,0.5c1.5,0.9,3.3,1.4,4.8,1.4C-196.9,467.4-196.2,467.6-195.8,466.7z
			 M-203.5,474c0.7-0.2,1.5-0.3,2.2-0.5c-0.7-1.1-1.8-0.4-2.6-0.7c-1.6-0.4-1.6-0.4-2.3-0.2C-205.4,473.1-204.5,473.6-203.5,474z
			 M-283.1,442.3c0.1-0.1,0.2-0.2,0.5-0.4c-0.7,0-1.2,0-1.7,0c-0.2,0.3-0.4,0.6-0.5,0.9c0.6,0.8,1.1,1.6,2,2.8
			C-283,444.3-283,443.4-283.1,442.3z M-261.3,470.6c0.3-0.3,0.4-0.5,0.6-0.7c-1.9-0.1-3.6-0.2-5.3-0.3c0,0.3,0,0.5,0,0.8
			C-264.4,470.9-262.8,469.4-261.3,470.6z M-264.7,467.1c1.4,0.4,2.4,0.8,3.5,1.1c0.2,0,0.4,0,0.7-0.1c-0.4-0.5-0.7-1-0.9-1.4
			C-262.6,466.7-263.5,466.5-264.7,467.1z M-249.7,407.8c1.1,0.1,1.9,0.2,2.7,0.3c0.4-0.3,0.8-0.6,1.3-1c-0.4-0.3-0.5-0.5-0.7-0.6
			C-247.4,406.9-248.4,407.3-249.7,407.8z M-277.5,418.5c1.4-0.6,2.5-1.3,3.1-2.7C-276.3,415.9-276.9,417.1-277.5,418.5z
			 M-263.5,461.6c-0.9-0.1-1.5,0-1.5,0.9c0.3,0.1,0.6,0.2,0.9,0.3c-0.2,0.2-0.4,0.4-0.8,0.8c1.3-0.4,2.2-0.8,3.4-1.2
			c-0.7-0.1-1-0.1-1.2-0.1c-0.3,0-0.5-0.1-0.7-0.1C-263.5,462-263.5,461.8-263.5,461.6z M-151.7,473.6c-0.7-1.2-1.9-1.8-2.5-1.4
			c0.3,0.5,0.6,0.9,0.9,1.4C-152.8,473.6-152.3,473.6-151.7,473.6z M-194.6,466.8c0.9,1.2,1.8,1.3,4.4,0.9
			C-191.5,467.4-193,467.1-194.6,466.8z M-260.5,472.4c-1.2-0.5-1.2-0.5-2.7,0c0.4,0.3,0.8,0.7,1.2,1
			C-261.5,473.1-261.1,472.8-260.5,472.4z M-185.1,468.7c-1.4,0-2.4,0-3.3,0c0,0.1,0,0.1,0,0.2c0.8,0.3,1.5,0.6,2.3,1
			C-185.9,469.6-185.7,469.3-185.1,468.7z M-277.3,413.4c1.6-1,1.7-1.1,2.4-2.4C-275.8,411.9-277,412.2-277.3,413.4z M-284.8,450.6
			c-1.1-2-1.5-2.2-3-1.9C-286.8,449.3-285.9,449.9-284.8,450.6z M-117.3,472.6c1.8,0.4,1.8,0.4,3.8-0.5
			C-114.7,472.2-116,472.4-117.3,472.6z M-178.7,470.9c0.1-0.1,0.1-0.3,0.2-0.4c-0.9-0.2-1.8-0.5-2.9-0.8
			C-180.8,471.2-179.7,470.9-178.7,470.9z M-269,466.6c0,0.1-0.1,0.2-0.1,0.3c0.4,0.3,0.9,0.6,1.4,1c0.5-0.2,0.9-0.3,1.8-0.7
			C-267.2,466.9-268.1,466.7-269,466.6z M-240.4,475.4c0.1-0.3,0.2-0.5,0.2-0.6c0-0.2-0.2-0.3-0.3-0.5c-0.6,0-1.2,0-1.7,0
			c0,0.1,0,0.2-0.1,0.3C-241.7,474.8-241.1,475.1-240.4,475.4z M-287.1,439.5c-0.4,0.3-0.7,0.5-1.1,0.9c0.8,0.3,1.3,1,2.2,0.4
			C-286.4,440.4-286.7,440-287.1,439.5z M-247.4,475.2c1.3,0,2.2,0,3.2,0C-245.1,475.1-245.9,474.1-247.4,475.2z"/>
		<path class="st0" d="M-153.8,367.3c-0.5,3.6-2.7,5.6-5.7,6.8c-3.6,1.5-7.2,2-11.1,1.5c-3.2-0.4-6.4,0-9.5,1.1
			c-2.1,0.7-3.6,2.3-4.5,4.4c-0.8,1.9-1.1,3.9-1.2,5.9c-0.1,1.6,0.7,3.1,1.8,4.2c1.3,1.4,2.8,2.8,4.1,4.2c1.5,1.6,2.9,3.2,4.2,4.9
			c2.7,3.3,4,7.2,4.2,11.4c0.1,2.5-0.4,4.9-1.3,7.3c-2,5.8-5.3,10.8-9.3,15.3c-4.2,4.8-9.3,8.7-14.9,11.6c-4.2,2.2-8.7,3.7-13.5,4.6
			c-2.6,0.5-5.3,0.7-8,0.9c-3,0.3-5.9,0.2-8.8-0.2c-4-0.4-7.7-1.7-10.8-4.3c-5.7-4.8-5.5-12.2-1.1-17.2c1.9-2.2,4.4-3.3,7.2-3.5
			c1.4-0.1,2.9,0.2,4.3,0.4c2.9,0.5,5.9,1.2,8.8,1.7c2.1,0.3,4.2,0.4,6.2-0.2c3.9-1.1,7.7-2.5,11-5c1.3-1,2.2-2.2,2.5-3.8
			c-0.2-2.2-1.3-3.8-2.7-5.2c-1.6-1.6-3.3-3-4.8-4.6c-2.9-2.9-5.5-5.9-7.4-9.6c-2.5-4.8-2.9-9.9-1.7-15c1.7-6.9,4.9-13,9.3-18.6
			c5-6.3,11.4-10.7,18.8-13.8c4.2-1.8,8.5-3.4,13-4.2c3.5-0.7,7.1-1.1,10.7-0.9c2.7,0.2,5.4,0.7,8.1,1c1.9,0.2,3.6,1.2,5.1,2.3
			c1.2,1,2.4,2,3.6,3.1c3,2.8,2.9,6.7,0.2,9.6c-1.6,1.7-3.6,2.8-5.9,3.3C-152.9,366.9-153.3,367.1-153.8,367.3z"/>
		<path class="st0" d="M-74.6,390c0.4,0.2,0.8,0.4,1.2,0.6c0.6-0.2,1.1-0.4,1.7-0.6c2-0.7,4-1.1,6.1-1c1.7,0.1,2.7,0.8,3.2,2.4
			c0.2,0.7,0.3,1.5,0.4,2.3c0.1,0.7,0,1.4,0,2.1c0,0.1,0.1,0.1,0,0.1c2.6-1.6,5.2-3.3,7.9-4.6c6.5-3.2,13.4-5.5,20.6-6.6
			c2.9-0.5,5.9-0.5,8.8-0.3c3.5,0.3,6.7,1.6,8.7,4.9c0.9,1.5,1.4,3.3,1.5,5c0.2,3-0.3,6-1,8.9c-1.6,6.3-4.1,12.1-7.3,17.7
			c-3,5.2-6,10.4-9.8,15.1c-3.4,4.3-7.3,8-12.2,10.5c-3.4,1.7-6.9,2.3-10.6,1.9c-1.7-0.2-3.2-0.7-4-2.2c-0.4-1.2,0-2.1,0.5-3.1
			c2.4-4.5,4.9-8.9,7.3-13.4c2.4-4.6,4.9-9.2,7.2-13.9c0.7-1.4,1.2-2.9,1.6-4.4c0.6-2.1-0.8-3.3-2.8-2.7c-1.7,0.5-3.1,1.4-4.4,2.6
			c-3.2,2.8-6.1,5.9-8.7,9.3c-5.1,6.6-10.1,13.3-15.2,20c-0.9,1.2-1.9,2.3-2.9,3.5c-0.7,0.9-1.6,1.5-2.8,1.8
			c-0.7,0.1-1.2,0.5-1.5,1.2c-1,2.7-3.2,3.8-5.7,4.6c-4.8,1.5-9.6,1.6-14.5,0.4c-1.1-0.3-2.2-0.8-3.2-1.4c-1.7-1.1-2.1-2.4-1.7-4.4
			c0.7-3.4,2-6.6,3.4-9.8c5.8-13,12.6-25.4,20.1-37.4c1.5-2.4,3.4-4.6,5.2-6.9C-76.9,391.2-76,390.4-74.6,390z"/>
		<path class="st0" d="M254,390c0.5,0.2,0.9,0.4,1.3,0.6c1.5-0.4,3-1,4.5-1.3s3-0.2,4.2-0.2c3.3,1.7,2.5,4.6,2.7,7
			c2.1-1.3,4.1-2.6,6.2-3.8c5.1-2.9,10.5-4.8,16.2-6.3c4.7-1.3,9.5-1.9,14.3-1.6c2,0.1,3.9,0.6,5.6,1.5c3.4,1.8,4.9,4.9,5.1,8.7
			c0.3,4.3-0.7,8.4-2.1,12.5c-1.7,5-3.8,9.9-6.5,14.4c-2.8,4.8-5.9,9.4-9.1,13.9c-2.8,3.9-6.2,7.3-10.3,9.8
			c-3.9,2.4-8.1,3.7-12.7,3.3c-1-0.1-1.9-0.4-2.8-0.8c-1.7-0.8-2.2-2.2-1.4-3.9c1.3-2.6,2.7-5.1,4-7.6c2.6-4.8,5.2-9.6,7.8-14.5
			c1.2-2.2,2.3-4.4,3.3-6.7c0.5-1,0.8-2.1,1.1-3.1c0.2-0.5,0.2-1,0.2-1.5c-0.1-1.5-1.1-2.2-2.5-1.9c-2.1,0.5-3.8,1.8-5.3,3.2
			c-3.5,3.1-6.5,6.6-9.3,10.3c-5.1,6.6-10.1,13.3-15.2,20c-1.3,1.7-2.6,3.3-4.8,3.8c-0.5,0.1-1,0.8-1.3,1.4c-0.8,2-2.4,3.2-4.3,3.8
			c-5.8,2-11.6,2.4-17.4,0.2c-0.8-0.3-1.5-0.7-2.2-1.2c-1.1-0.9-1.5-2-1.2-3.5c0.6-3.2,1.7-6.1,3-9.1c3.2-7.5,6.9-14.7,10.8-21.7
			c3-5.4,6.2-10.8,9.3-16.2c1.6-2.9,3.7-5.4,5.9-7.8C252,391,253,390.3,254,390z"/>
		<path class="st0" d="M6,461.9c-0.3,0-0.6,0-1.2,0c0.9-1.3,1.6-2.4,2.5-3.8c-0.6,0.2-1,0.2-1.2,0.4c-0.5,0.4-0.9,0.9-1.4,1.4
			c-1.4,1.5-2.9,2.6-5,2.9c-0.4,0.1-0.7,0.3-1.1,0.4c1.2,0.7,1.2,0.7,2.7,0.6c0.8-0.6,1.6-1.2,2.4-1.8c-0.1,1.8-1.6,2.4-2.5,3.3
			c-0.9,0.2-1.5,0.4-2.2,0.6s-1.3,0.6-2,0.7c-2.1,0.3-3.8,1.4-5.6,2.3c-0.8,0.4-1.6,0.9-2.4,1.4c-2.1,1.4-4.4,1.7-7,1.5
			c1.3-1.5,3.1-1.9,4.8-2.3c0.9-0.2,1.8-0.3,2.7-0.5c0.6-0.2,1.3-0.3,1.8-0.7c1.9-1.5,3.9-2.7,6-3.9c0.2-0.1,0.4-0.3,0.9-0.8
			c-2.1,0.7-3.8,1.2-5.5,1.7c0-0.1-0.1-0.2-0.1-0.3c0.6-0.3,1.2-0.7,1.8-1c5.7-2.3,10-6.5,13.8-11c2.8-3.3,5.3-7,7.9-10.5
			c-0.3-0.3-0.5-0.5-0.7-0.8c-0.6,0.5-1.3,1-1.9,1.4c-2.9,2.3-6.3,3.4-9.9,3.7c-1.4,0.1-2.7,0.3-4.1,0.3c-2.4,0-4.8-0.1-7.2-0.3
			c-3.2-0.4-5.6-2.1-7.1-4.9c-1-1.9-1.6-3.9-1.8-6c-0.2-2.5-0.2-5.1,0.2-7.6c0.8-5.6,2.6-10.9,5.2-15.9c5.3-10.1,13-17.8,23.5-22.5
			c4.9-2.2,10-3.3,15.4-2.8c1.6,0.1,3.2,0.5,4.7,1.2c1.5,0.7,2.3,2.1,2.8,3.6c0.5,1.4,0.9,2.7,1.4,4.3c0.4-0.3,0.8-0.5,1.1-0.8
			c1.9-1.6,4-2.9,6.4-3.7c1.4-0.5,2.7-0.4,4,0.1c1.8,0.6,2.9,2,2.8,4.7c-0.2,2.9-0.6,5.8-1,8.7c-0.6,4.4-1.8,8.7-3.2,12.9
			c-3.2,9.6-7.1,18.9-11.8,27.9c-1,1.9-2,3.8-3.1,5.6c-0.4,0.8-1.1,1.4-1.8,2c-0.1,0.5-0.2,1-0.3,1.4c-1,0.7-1.9,1.3-2.9,2
			c-0.2-0.1-0.6-0.1-0.8-0.2c-1.3,1-2.5,2-3.8,3c-0.2-0.2-0.5-0.3-0.8-0.5c-0.3,0.2-0.5,0.3-0.9,0.5c-0.2-0.1-0.3-0.3-0.6-0.5
			c1.9-1.4,2.3-3.2,1.9-5.5c-2.6,1.9-5.3,3.2-8.8,3.9c-0.1,0-0.6,0-1.2-0.1c0.4-0.7,0.7-1.3,1-1.8c-0.1-0.1-0.1-0.1-0.2-0.2
			c-1.1,0.9-2.2,1.9-3.5,2.9c0.8,0.5,1.9,0.5,3,0.5c-0.6,0.6-1.1,1.1-2,0.5C9.1,460.4,6.9,460.2,6,461.9L6,461.9z M2.5,431.5
			c0.5,1.6,1.6,2,2.9,2c1.3-0.1,2.6-0.3,3.8-0.6c2.6-0.7,4.8-2,6.7-3.9c3.2-3,5.4-6.7,8.1-10c-0.1-1-0.8-1.3-1.4-1.6
			c-2.2-1.1-4.4-0.9-6.6,0.1c-4.2,2-7.5,5.1-10.5,8.7C4.2,427.8,3.1,429.4,2.5,431.5z"/>
		<path class="st0" d="M198.9,444.9c0-0.7,0-1.6,0-2.6c-0.3,0-0.6,0-0.7,0.1c-2.9,3.3-6.7,4.9-10.8,6c-4.6,1.3-9.3,1.9-14.1,1.6
			c-2.1-0.1-4.2-0.4-6.2-1c-6.9-1.8-9.2-6.7-8.5-13c0.8-7.3,3.3-14.2,6.5-20.8c2-4,4.5-7.5,7.7-10.6c5.4-5.2,11.3-9.7,17.8-13.5
			c4.1-2.4,8.3-4.4,12.8-5.8c3.1-1,6.3-1.6,9.6-1.3c2.7,0.3,5.4,0.9,7.9,2.1c1.5,0.7,1.6,0.8,2.7,2.4c0.2,0.8,0.4,1.6,0.6,2.5
			c0.8,0,1.5,0,2.2,0c1.9,0,2.6,0.4,3.3,2.1c1.1,2.5,1.1,5.1,0.5,7.7c-1.3,5.2-2.7,10.3-4.3,15.4c-2.3,7.4-4.8,14.8-7.1,22.1
			c-0.4,1.2-0.7,2.4-1,3.6c-0.4,1.8-1.4,3.2-3,4.2c-1.8,1.1-3.8,1.8-5.9,1.9c-2.1,0.1-4.2,0.2-6.2-0.4
			C201.3,447.3,200,446.6,198.9,444.9z M200.2,413.3c-0.2-0.1-0.3-0.1-0.3-0.1c-6.9,2.7-13.3,6.3-18.9,11.3c-1,0.9-1.9,2.2-2.6,3.4
			c-1,1.7-0.7,3.2,0.6,4.7c1.9,2,5.4,3.2,8.8,1.1c2.6-1.6,4.5-4,5.9-6.7c2.2-4.3,4.3-8.6,6.4-13
			C200.2,413.8,200.1,413.6,200.2,413.3z"/>
		<path class="st0" d="M-135,390.7c1.2-1.2,2.3-2.4,3.4-3.4c1.9-1.7,4.1-2.6,6.6-2.8c4-0.3,8.1-0.5,12.1-0.4
			c3.6,0.1,6.9,1.2,9.8,3.5c2.6,2.1,4.1,4.9,4.8,8.1c0.7,3.1,0.5,6.2,0.1,9.4c-1,7.9-4.1,15.1-8.1,21.9c-3.2,5.5-7.2,10.4-11.7,14.9
			c-4.8,4.7-10.4,7.4-16.9,8.8c-5.3,1.1-10.6,0.8-15.8,0.6c-2.8-0.1-5.6-0.7-8.2-1.8c-4.1-1.8-6.6-4.8-7.4-9.2
			c-0.7-3.5-0.4-7,0.2-10.5c1.7-8.5,5.1-16.3,9.7-23.6c2.7-4.3,5.7-8.3,9.4-11.7c0.6-0.5,1.2-1,1.8-1.5
			C-142.2,390.2-138.7,389.8-135,390.7z M-146.4,437c1.1,0.9,2.4,0.5,3.6,0.5c5,0.1,8.9-2,11.9-5.9c2.7-3.5,4.3-7.6,5.1-11.9
			c0.2-1.2,0.7-2.4,0.1-3.8c-2.1,0.3-4.1,0.6-6.2,0.9c-0.6,0.5-1.2,1-1.9,1.5c-2.7,2.4-5.5,4.8-8.1,7.3c-2.4,2.4-4.3,5.2-4.9,8.7
			C-146.9,435.3-146.9,436.1-146.4,437z"/>
		<path class="st0" d="M146.1,388.9c5.1-3.5,10.4-6,16-7.9c1.8-0.6,3.6-1.1,5.6-0.9c0.6,0.1,1.2,0.3,1.7,0.4
			c0.6,1.5,0.1,2.5-0.5,3.7c1,0.7,2.3,1.4,2.4,2.8c0.1,0.8,0.2,1.6,0.1,2.3c-0.8,4.4-3.7,7.2-7.4,9.4c-1.6,0.9-3.3,1.6-5,2.1
			c-3.3,0.9-5.9,2.7-8.3,5c-3.1,3-5.6,6.5-7.9,10.2c-4.5,7.3-7.9,15-11,22.9c-1.6,4-4.3,7-7.7,9.3c-3.1,2.1-6.5,3.6-10.3,4.2
			c-1.7,0.3-3.4,0.1-5-0.4c-2.5-0.8-3.8-3-3.3-5.9c0.4-2.3,1.1-4.6,2-6.7c2.3-5.8,5.1-11.4,8-17c3.6-7.1,7.4-14.1,10.5-21.5
			c1.1-2.6,2.3-5.3,3.6-7.8c2.4-4.6,6.1-7.8,11.1-9.4c1-0.3,2-0.6,3.1-0.6c2.3,0,3.4,1.6,3.2,3.5
			C146.6,387.2,146.3,387.9,146.1,388.9z"/>
		<path class="st0" d="M-49.8,479.6c-0.7-0.7-1.6-0.4-2.4-0.2c-1.7,0.4-3.3,0.6-5,0.5c-2.5-1.4-4.9-0.6-7.4,0.1
			c1.3-0.1,2.6-0.3,3.9-0.4c-4,2.1-8.2,2.8-12.6,2.6c1.4-0.9,3.2-0.6,4.8-1.4c-0.7,0-1.3-0.1-2.1-0.1c-0.1-0.2-0.3-0.6-0.5-1.1
			c-0.8,0.6-1.4,1.1-1.9,1.5c-0.9,0.3-1.2-0.7-1.7-1c-0.7,0.6-1.2,1.1-1.5,1.3c-1.7,0.1-3,0.1-4.3,0.1s-2.6,0-3.9-0.1
			s-2.6-0.4-3.9,0.1c-0.3,0.1-0.7,0.2-1,0.1c-1.9-0.7-3.7-0.3-5.7,0.2c0.9,0.2,1.8,0.5,2.7,0.5c1,0.1,2,0,2.9,0c1,0,1.9,0,3,0
			c-0.8,1.1-0.8,1.1-2.3,0.6c-2.2,0-3.8,0-5.5,0c-0.1-0.1-0.3-0.3-0.4-0.3c-1.8,0-3.5,0-5.3,0c0.4-0.2,0.7-0.3,1.2-0.5
			c-1,0-1.7,0-2.5,0c-0.2-0.3-0.4-0.5-0.7-0.9c-0.6,0.1-1.2,0.2-2,0.3c-0.8-0.3-1.7-0.6-2.7-0.9c-0.1-0.3-0.3-0.7-0.5-1.2
			c-1-0.2-2.2-0.4-3.3-0.7c0.6-0.5,1.2-0.6,2-0.4c1,0.2,2,0.4,3.1,0.5c-0.1-0.3-0.2-0.6-0.3-1c1.8,0.1,3.4,0.3,5.8,0.5
			c1.6-0.4,3.9-0.5,6.4,0.1c1.1,0.3,2.4,0.4,3.6,0.2c1-0.2,2,0,3,0c0.3,0.2,0.5,0.5,0.7,0.6c2.3,0.1,4.4,0.2,6.6,0.2
			c0.4,0.5,0.7,1.2,1.7,1.1c0-0.2,0.1-0.4,0.1-0.6c2.1-0.3,4.2-0.6,6.3-0.9c0.3,0,0.7-0.1,1,0.1c1.3,0.6,2.6,0,3.8-0.3
			c1-0.2,2-0.5,3-0.6c0.7-0.4,1.5-0.8,2.1-1.2c2.3,0.7,4.2-0.5,6.3-0.8c0.2,0.2,0.5,0.4,0.8,0.6c0.2-0.2,0.4-0.5,0.5-0.7
			c1.8,0.7,2,0.2,4.3-0.8c0.4,0.2,0.8,0.4,1.2,0.6c4.1-0.8,8.2-1.1,12.2,0.1c0.9-0.1,1.7-1,2.8-0.5c0.2,0.1,0.6-0.4,1.1-0.8
			c-2.8-0.1-5.2-0.2-7.6-0.3c0-0.1,0-0.2,0-0.3c1.1-0.2,2.3-0.3,3.4-0.5c1.5-0.2,2.8-0.6,4.2-1.3c1.5-0.8,3.3-1,5-1.5
			c0.9-0.2,1.8-0.4,2.6-0.8c1.9-1.1,4.1-1.4,6.1-1.9c1.7-0.4,3.5-0.6,5.2-0.8c0.2,0,0.4,0.1,0.7,0.1c-2,1.4-4,2.3-6.4,2.3
			s-4.8,0.6-6.8,2.1c-0.3,0.2-0.6,0.4-1,0.6c0.1,0.1,0.2,0.3,0.3,0.4c1-0.3,2-0.5,2.9-0.8c0,0.1,0.1,0.2,0.1,0.2
			c-2.3,1.2-4.6,2.5-6.9,3.7c-0.7,0.3-1.5,0.4-2.3,0.5c-2,0.4-4,0.7-5.9,1.1c-0.5,0.1-1,0.5-1.6,0.7c-0.8-0.5-2.1,0.6-2.9-0.6
			c0.3-0.1,0.5-0.2,1-0.4c-1,0-1.8,0-2.6,0c0.2,0.2,0.3,0.3,0.5,0.5c-1.1,0.3-2.1,0.6-3.1,0.7C-47.9,478.8-48.9,479.1-49.8,479.6
			L-49.8,479.6z M-91.1,479.2c-1-0.4-3.5-0.5-5.1-0.1c0.8,0.7,1.7,0.5,2.5,0.4C-92.9,479.4-92,479.3-91.1,479.2
			c1.1,0.9,2.4,1.2,3.8,1.1c0.2-0.3,0.3-0.6,0.5-0.9C-88.3,479.4-89.7,479.3-91.1,479.2z M-97.2,478.9c-2.1-0.1-4,0.6-5.7-0.4
			c-0.5,0.2-1,0.4-1.4,0.6c1.6,1,3.3,0.9,5,0.9C-98.7,480-98,479.9-97.2,478.9z M-56.3,477.7c1.4,0.2,2,1.9,3.3,0.8
			c-0.1-0.2-0.2-0.5-0.4-0.8C-54.2,477.7-55.1,477.7-56.3,477.7z M-79.5,480.1c-1.3-0.2-2.3-0.3-3.7-0.5c0.9,0.5,1.4,0.8,1.8,1.1
			C-80.8,480.5-80.3,480.4-79.5,480.1z"/>
		<path class="st0" d="M-6.5,475.7c1.4-0.2,2.4-1,3.4-1.8c1.1-0.8,2.2-1.6,3.5-2.6c-0.7,0-1.2,0.1-1.7,0.1c0.8-0.6,0.8-0.6,2.8-0.1
			c2.1-1.2,4.4-2.5,6.6-3.8c0.6-0.9,1.2-1.7,1.8-2.6c0.3,0.1,0.5,0.2,0.9,0.3c-0.5,1.2-1.6,1.8-2.3,2.6c-0.8,0.8-1.7,1.5-2.9,2.4
			c1.8-0.5,2.8-1.5,3.9-2.3c0.7-0.5,1.2-1.2,1.9-1.7c1.1-1,2.4-1.7,4.1-1.9c-1.2,1.5-2.6,2.6-4.1,3.5c-1.9,1.2-3.6,2.5-5.5,3.8
			c-0.5,0.4-1.1,1-1.6,1c-0.6,0.1-0.9,0.4-1.3,0.7c-0.7,0.6-1.4,1.1-2.2,1.7c-0.7,0.5-1.4,0.7-2.2,0.6c-1.3-0.2-2.6-0.1-3.6,0.9
			c-0.1,0.1-0.2,0.2-0.3,0.2c-2.1,0.3-3.5,1.7-5.1,2.8c-3-0.1-5.9-0.2-8.6,1.1c-0.3-0.3-0.6-0.5-0.9-0.8c-1.7,0.8-3.4,1.6-5.1,2.4
			c-0.8,0-1.7,0-2.8,0c1.8-1.4,3.7-2,5.4-3.2c0-0.7,0.3-1.3,1.2-1.5c1-0.3,2-0.6,3.2-1c0.7,0.4,1.7,0.2,2.7-0.2
			c1.2-0.5,2.6-1,4.1-0.6c-1.1,0.4-2,0.8-2.9,1.1c0,0.1,0.1,0.2,0.1,0.3c2.1-0.5,4.3-1,6.4-1.6c-0.5,0.3-0.9,0.7-1.7,1.3
			C-8.1,476.7-7.3,476.3-6.5,475.7z"/>
		<path class="st0" d="M-158.1,481.6c-2,0.5-3.9,1.2-5.9,0.4c1.9-0.3,3.7-0.6,5.6-0.8c0.9-0.1,1.8,0.1,2.7,0.3
			c2.2,0.6,4.3,0.8,6.6,0.8c2.2,0,4.4,0,6.7,0c1.5,0,3-0.3,4.5-0.4c0.6,0,1.2,0.1,1.7,0.2c2.4,0.5,4.7,1,7.1,0.9
			c1.3,0,1.7-0.1,3.1-1.1c-1.8,0-3.3,0-4.9-0.1c-1.2,0-2.3-0.1-3.5-0.2c-0.8-0.1-1.6-0.5-2.3-0.8c-1.7-0.1-3.4-0.4-5.1,0.3
			c-0.4-0.3-0.9-0.6-1.4-1c0.1-0.1,0.2-0.4,0.4-0.4c2.3-0.3,4.5-0.5,6.8,0.2c2,0.6,4.1,0.9,6.2-0.1c0,0.4,0.1,0.6,0.1,0.7
			c1.3,0.2,2.7,0.3,4,0.5c0.2,0,0.4,0,0.6,0c2.8-0.7,5.4,0.2,8.1,0.5c2.1,0.2,4.3,0.3,5.9,0.5c1.6-0.6,1.6-2.5,3.5-2.2
			c-0.5,0.7-0.9,1.2-1.4,1.8c0,0.3,0,0.8,0,1.3c-1.2,0.3-2.4,0.1-3.6,0c-1.7-0.2-3.5-0.5-5.2-0.5c-0.8,0-1.7,0.2-2.5,0.3
			c-0.5,0.1-1,0.3-1.5,0.3c-2.9,0.1-5.7,0.6-8.6,0.4c-2.1-0.1-4.2-0.3-6.2-0.9c-1.4-0.4-2.7-0.5-4,0c-1.6,0.6-3.2,0.4-4.8,0.3
			c-1.4-0.1-2.9-0.4-4.3-0.3C-152.6,483-155.4,482.3-158.1,481.6z"/>
		<path class="st0" d="M6,461.9c0.6-0.1,1.1-0.2,2-0.4c-0.5,0.5-0.8,0.8-1.1,1.1c-1.8,1.3-3.6,2.6-5.4,3.9c-0.6,0.5-1.2,1.1-1.8,1.5
			s-1.3,0.7-1.9,1.1c-0.6,0.5-1.2,1-1.8,1.5c-0.9,0.8-2,1.2-3.3,1.1c-1.9-0.2-3.6,0.3-5.1,1.6c-0.7,0.6-1.5,0.7-2.4,0.7
			c-3.7-0.3-7,1.3-10.3,2.7c-0.5,0.2-0.8,0.6-0.9,1.2c-0.1,0.3-0.5,0.6-0.8,0.9c-0.7-0.7-0.3-1.1,0.3-1.5c-0.5-0.1-0.9-0.1-1.3-0.2
			c-0.8,0.7-1.5,1.3-2.3,1.9c-2.8-0.1-5.4,1-8.3,0.6c1.9-0.3,3.9-0.7,6.1-1.1c-0.9-0.1-1.5-0.2-2.2-0.3c0-0.1,0-0.2,0-0.3
			c2.9-0.8,5.8-1.5,8.6-2.3c0.4-0.1,1-0.1,1.3-0.3c2.3-1.5,5.1-1.7,7.6-2.4c2.2-0.6,4.4-1.3,6.6-1.9c0.8-0.2,1.6-0.4,2.5-0.6
			c1-0.2,1.9-0.8,2.7-1.4c1.5-1,2.8-2.3,4.6-2.7c1.4-0.3,2.5-1.1,3.6-2C4.2,463.7,5.1,462.8,6,461.9L6,461.9z"/>
		<path class="st0" d="M-174,478.9c-0.7,1.3-1.2,2.3-1.8,3.4c-2.5-0.4-5-0.9-7.6-1.3c-1.2-0.2-2.5-0.2-3.7,0c-2,0.4-3.9,0-5.7-0.5
			c0-0.3,0-0.6,0-0.9c-1.8-0.1-3.6-0.2-5.4-0.4c-1.5-0.1-2.9-0.4-4.2-1.3c-0.4-0.3-1.1-0.5-1.6-0.6c-0.8-0.1-1.5-0.1-2.4-0.2
			c0,0.3,0,0.6,0,1c-0.3,0.1-0.7,0.4-1,0.3c-2.2-0.5-4.5,0.1-6.6-0.8c1.7-0.7,3.6,0,5.5-0.5c-0.3-0.4-0.5-0.6-0.7-1
			c2.6,0,5-0.3,7.4,0.8c1.8,0.8,3.9,1.2,6,0.4c0,0.4,0.1,0.7,0.1,1.1c0.4-0.1,0.8-0.3,1.1-0.2c3.5,1,7.3,0.5,10.8,1.7
			c2.3,0.9,4.8,1.1,7.2,0.9c0.7-0.6,1.3-1.2,1.9-1.7C-174.7,478.9-174.5,479-174,478.9z"/>
		<path class="st0" d="M-44.2,486.9c-0.3-0.2-0.5-0.3-0.7-0.5c-1.7,1.1-9.2,1.7-11.8,1c-2.2,0.6-4.4,1.3-6.5,1.9
			c-0.1,0-0.2-0.2-0.4-0.4c0.4-0.1,0.7-0.3,1-0.4c1.4-0.4,2.7-0.8,4.1-1.2c1.2-0.3,2.4-0.3,3.6-0.1c1.1,0.2,2.3-0.1,3.5-0.1
			c2.6,0,5-1,7.4-1.5c1.4-0.3,2.8-0.4,4.2,0.1c0.3,0.1,0.7,0,1.2,0c-0.2-0.3-0.4-0.4-0.6-0.7c0.7,0,1.3-0.1,1.9-0.1
			c0.3,0.4,0.5,0.6,0.8,0.9c0.4-0.1,0.8-0.2,1.3-0.4c0.2,0.2,0.3,0.4,0.5,0.6c2.4-0.1,4.9-0.4,7.3-0.2c2.4,0.2,4.8,0.4,6.9,0.3
			c1.2-0.4,1.1-1.8,2.4-1.8c-0.3,0.9-0.6,1.6-1,2.6c-0.3,0-0.8,0.1-1.3,0.1c-1.5,0-3-0.1-4.5-0.1c-1,0-2.1,0.3-3.1,0.4
			c-1.3,0.2-2.6,0.3-3.7,0.5c-0.4-0.4-0.6-0.6-0.9-0.8c-1,0-2.1,0-3.1,0c-1.6,0-3.2,0.3-4.8-0.6c-0.4-0.3-1.2-0.1-1.7-0.1
			C-42.8,486.5-43.4,486.7-44.2,486.9z"/>
		<path class="st0" d="M-67.1,485.9c-1.2,0-0.8,1.3-1.3,1.9c-2.1-0.3-4.2-0.7-6.3-1c-0.8-0.1-1.6,0-2.3,0.1
			c-1.6,0.2-3.2,0.3-4.7-0.4c0-0.3-0.1-0.4-0.1-0.7c-1.2,0-2.3,0-3.4,0c-1.4,0-2.8-0.2-4.1-1c-1.2-0.8-2.8-0.5-4.2-0.2
			c-0.3-0.3-0.7-0.6-1.2-1.1c3.1,0,6,0,8.7,0c1.7-1.2,3.3-1,5-0.5c-0.4,0.1-0.8,0.2-1.2,0.3c0.3,0.1,0.6,0.2,0.8,0.3
			c0,0.1,0,0.2,0,0.3c-2.2,0-4.4,0-7,0c1.6,0.7,2.8,1,4.2,0.3c0.1,0.4,0.1,0.6,0.1,0.8c3.7,0.3,7.5,0.5,11.2,1.4
			c1.2,0.3,2.4,0.3,3.3,0.4c1.1-0.4,1.2-1.6,2.4-1.5C-67.2,485.4-67.2,485.7-67.1,485.9L-67.1,485.9z"/>
		<path class="st0" d="M-167,478.4c2.8-0.1,5.5-0.4,8.3-0.3c2.2,0.1,4.6,0,6.8,0.7c0.9,0.3,1.9,0.4,2.9,0.1c1.6-0.4,2.6-0.3,3.9,0.3
			c-0.3,0.2-0.5,0.4-0.7,0.4c-1.2,0.2-2.4,0.1-3.5,0.5c-1.5,0.4-2.8,0.2-4.2-0.1c-2.3-0.6-4.7-0.6-7,0c-2.1,0.6-4.2,0.5-6.5-0.2
			C-167,479.4-167,478.9-167,478.4L-167,478.4z"/>
		<path class="st0" d="M-67.2,485.9c2.3-0.5,4.7-0.8,7-1.4c2.2-0.5,4.5-0.8,6.8-0.7c1.7,0.1,3.4-0.1,5-0.7c0.9-0.3,1.8-0.9,3-0.1
			c-0.5,0.3-0.8,0.5-1.2,0.7c-1.2,0.4-2.4,0.8-3.6,1c-0.9,0.2-1.8,0.3-2.7,0.3c-3.1-0.1-6.1,0.3-8.9,1.7c-1.7,0.8-3.4,0.5-5.3,0.5
			C-67,486.9-67.1,486.4-67.2,485.9L-67.2,485.9z"/>
		<path class="st0" d="M-220.7,413.5c-0.6,0.3-1.1,0.5-1.7,0.8c-0.3-0.6-0.5-1.2-0.9-1.8c-0.5,0.1-1.1,0.1-1.7,0.2
			c-1.4-0.9-1.2-3.2-3.4-3.3c0.7-1,1.2-0.1,1.8-0.3c0.1-0.1,0.2-0.3,0.2-0.5c-0.2-1-0.4-1.9-0.6-2.8c0.5-0.7,1.1-0.6,1.6-0.4
			c1,0.3,1.7,0.9,2.2,2c-0.5,0-0.9,0-1.4-0.1c0,0.3-0.1,0.6-0.1,0.9c0.5,0.1,0.9,0.1,1.3,0.2c0.4-0.4,0.7-0.8,1.1-1.3
			c0.4,0.3,0.8,0.6,1.1,0.8c-0.6,0.5-1.1,1-1.8,1.6c0.2,1.2,0.4,2.5,0.7,4c0.6-0.3,0.9-0.5,1.4-0.8c0.9,0.6,1.3,1.5,1.7,2.5
			c-0.2,0.2-0.3,0.3-0.6,0.5C-220.1,415-220.4,414.3-220.7,413.5z"/>
		<path class="st0" d="M-277.9,446.2c0.4,0.7,0.9,1.4,1.2,2.2c0.3,0.6,0.4,1.2,1.3,1.5c0-1.2-0.2-2.2,0.4-3.2
			c0.4,1.1,0.7,2.2,1.1,3.2c0.4,1.1,1,2.1,1.4,2.9c-0.2,2.1-0.5,4-0.7,5.8c-0.1,0.6-0.1,0.6-1,1.6c-0.2-1.2-0.5-2.4-0.6-3.6
			c0-0.6,0.5-1.2,0.7-1.8c-0.2-0.2-0.4-0.4-0.7-0.7c0.2-0.3,0.4-0.5,0.8-0.9c-0.5-0.6-0.8-1.5-1.6-2c-0.9-0.5-1.7-1.3-2.6-1.9l0,0
			C-278.1,448.3-278.4,447.2-277.9,446.2C-277.8,446.2-277.9,446.2-277.9,446.2z"/>
		<path class="st0" d="M14.5,460.4c-0.3-0.3-0.4-0.5-0.6-0.7c0.8-0.7,1.6-1.3,2.5-2c1.1-0.1,2.3-0.2,3.7-0.3
			c-0.5,1.4-1.6,2.1-3.2,2.4c0.3,0.4,0.7,0.9,0.8,0.9c1-0.6,1.9,0.5,3-0.2c-0.3,1.2-1.1,1.2-1.7,1.6c-0.4-0.3-0.7-0.6-1-0.8
			c-0.2,0.1-0.3,0.1-0.4,0.2c-0.2,0.3-0.4,0.8-0.7,0.9c-1.5,0.7-2.9,1.3-4.2,2.4c-0.2,0.2-0.6,0-1.1,0
			C12.6,463.1,13.5,461.7,14.5,460.4z"/>
		<path class="st0" d="M-71.5,474.1c1.5-0.3,2.9-0.6,4.4-0.9c0.2-0.6,0.3-1.2,0.5-1.7c1.5-1.3,3.1-1.6,5.2-1.2
			c0.5,0.7,1.1,1.5,1.8,2.5c-1.2,0.2-1.3-0.8-1.9-1.3c-1.1,0.1-2.3,0.1-3.6,0.2c0,0.2,0,0.5-0.1,1c-0.2,0.2-0.6,0.6-1.1,1
			c0.2,0.1,0.3,0.3,0.5,0.4c0.8,0.2,1.7,0.2,2.5-0.2c0.6-0.3,1.3-0.7,2.1-0.1c-0.9,1-2.2,1.2-3.7,1.6c-0.7-0.3-1.6-0.8-2.8-1.4
			c-0.3,0.1-0.9,0.4-1.6,0.5C-70.1,474.5-70.8,474.9-71.5,474.1L-71.5,474.1z"/>
		<path class="st0" d="M3.4,480c-0.5-0.2-0.9-0.3-1.4-0.5c1.1-1.3,2.3-2,3.7-2.7c2-0.9,4-1.9,6-2.9c0.8-0.4,1.5-1,2.4-1.5
			C13.1,474.2,7.7,478,3.4,480z"/>
		<path class="st0" d="M-49.9,479.6c-1.1,0.5-2.2,1-3.6,1.6c1.3-0.2,2.2-0.3,3.5-0.4c-1,0.9-1.9,0.8-2.8,0.8
			c-2.3,0.1-4.5,0.2-6.8,0.4c-1,0.1-1.9,0.4-2.8,0.6c-1.2,0.3-2.5,0.5-3.8,0.8c0.2-0.3,0.2-0.5,0.3-0.5c3-0.6,5.7-2.2,8.9-1.8
			c0.4,0,0.9,0,1.3-0.2c1.8-0.8,3.8-0.8,5.6-1.3C-50.1,479.6-49.9,479.6-49.9,479.6C-49.8,479.6-49.9,479.6-49.9,479.6z"/>
		<path class="st0" d="M-19,483.6c1.4-0.6,2.8-1.2,4.4-1.9c0.1,0.3,0.2,0.6,0.3,0.9c1.2,0,2.2-0.9,3.6-0.6c-1,0.7-2,1.4-3.4,2.3
			c-1.3-0.1-3.1-0.3-4.9-0.4C-19,483.8-19,483.7-19,483.6z"/>
		<path class="st0" d="M-125.9,479.1c1.5-0.5,3.1-1,4.6-1.4c1.4-0.4,2.9-0.4,4.4-0.2c2.5,0.3,5.1-0.2,7.5-0.7
			c0.9-0.2,1.8-0.3,2.7-0.1c-0.2,0.1-0.5,0.4-0.7,0.4c-2.5,0.3-5,0.7-7.5,0.9c-1.1,0.1-2.3-0.1-3.5-0.3c-1.3-0.2-2.4,0.3-3.6,0.7
			c-1,0.4-2.1,0.7-3.1,1.1c-0.2,0.1-0.5,0-0.7,0C-125.9,479.4-125.9,479.2-125.9,479.1z"/>
		<path class="st0" d="M-94.2,485.6c-1.8-0.1-3.3-0.4-4.9-0.3c-2.9,0.1-5.8-0.7-8.7-0.9c-1.5-0.1-3.1,0.4-4.6,0.6
			c-0.5,0.1-1,0.2-1.5-0.5c1.2-0.2,2.3-0.5,3.4-0.5c2-0.1,4-0.2,6,0.3c2.5,0.7,5.2,0.4,7.8,0.4C-95.9,484.7-95,484.4-94.2,485.6z"/>
		<path class="st0" d="M-227.7,410.4c-1.3,0.8-2.1,0.4-2.8-0.4s-1.2-1.8-1.9-2.8c0.6-0.3,1.1-0.6,1.7-1c0.1-0.2,0.3-0.5,0.6-1.1
			c0.2,0.6,0.4,1,0.5,1.4c0.4,0.1,1.3-0.6,1.3,0.7c-0.3,0.2-0.7,0.3-1,0.6c-0.3,0.3-0.4,0.7-0.5,0.9
			C-229.8,410.1-228.7,409.9-227.7,410.4z"/>
		<path class="st0" d="M-165.7,475.8c0.7-0.1,1.5-0.2,2.2-0.3c1.2-0.2,2.4-0.5,3.7-0.5c1.4,0,2.8,0.1,4.3,0.4
			c1.9,0.3,3.8,0.8,5.8,0.7c0.1,0,0.2,0.1,0.4,0.3c-1.3,0-2.5,0.2-3.6,0c-2.3-0.4-4.6-0.7-7-0.6c-1.5,0.1-3,0.3-4.5,0.4
			c-0.4,0-0.9-0.1-1.3-0.1C-165.7,475.9-165.7,475.8-165.7,475.8z"/>
		<path class="st0" d="M-215.1,415.6c-0.6,0.3-1.2,0.5-1.9,0.8c0,0.5,0,1,0,1.6c-0.7,0.4-1.3,0.3-1.8-0.4c0.2-0.1,0.4-0.3,0.7-0.5
			c-0.1-0.2-0.1-0.5-0.2-0.9c0.8-0.9,1.6-1.7,2.5-2.6C-215,414-214.7,414.5-215.1,415.6z"/>
		<path class="st0" d="M16.6,470.3c1.1-1.3,1-3.3,2.8-4.3c0.9,0.3,1.3-0.6,2.1-0.8C21.2,466.3,19.4,468.4,16.6,470.3z"/>
		<path class="st0" d="M-2.8,481.4c-2.4,1-4.6,3-7.7,2.5C-9.4,482.9-5.4,481.6-2.8,481.4z"/>
		<path class="st0" d="M-274.6,442.6c1,2.7,2.1,5.3,2.5,8.2C-273.4,448.2-274.3,445.5-274.6,442.6z"/>
		<path class="st0" d="M-48.3,481c2.3-0.4,4.5-1.4,7.3-0.8c-2.3,0.5-4.2,1-6,1.4C-47.4,481.6-48,481.8-48.3,481z"/>
		<path class="st0" d="M-257.8,412.9c-1.1,1.4-2.4,1.1-4.1,0.4c1.1-0.5,1.9-1,2.8-1.3C-258.5,411.8-257.9,412.1-257.8,412.9z"/>
		<path class="st0" d="M-221.7,477.7c-0.2,0.3-0.3,0.6-0.4,0.6c-1.9,0-3.9,0-6.2,0c1.2-1,2.4-0.5,3.3-0.6
			C-223.9,477.6-222.8,477.7-221.7,477.7z"/>
		<path class="st0" d="M-276.3,429.3c-0.1-0.1-0.4-0.3-0.4-0.4c0.2-2.3,0.6-4.6,2.6-6.2c-0.2,1.2-0.2,1.2-1.3,2.5
			c0.1,0.1,0.3,0.2,0.4,0.4c-0.3,0.6-0.6,1.3-0.8,1.9C-276,428-276.1,428.7-276.3,429.3L-276.3,429.3z"/>
		<path class="st0" d="M-71.5,474.1c-0.2,0-0.4,0.1-0.6,0c-2.6-1.1-5.3-1-8-0.4c-0.3,0.1-0.6,0-1-0.1c0.9-0.3,1.7-0.7,2.7-0.7
			c1.2,0,2.3,0,3.5,0C-73.5,472.9-72.4,473.2-71.5,474.1L-71.5,474.1z"/>
		<path class="st0" d="M-250.1,461.7c-1.8-0.4-3.7-0.8-5.6-1.2c0.2-0.1,0.5-0.4,0.8-0.4c1.1,0,2.2,0,3.2,0.2
			c0.6,0.2,1.1,0.8,1.7,1.2C-250,461.6-250,461.7-250.1,461.7z"/>
		<path class="st0" d="M-40.9,473.7c-1.2,1.5-2.8,0.6-4.2,0.6C-43.8,473.5-42.4,473.3-40.9,473.7z"/>
		<path class="st0" d="M-47.9,471.2c-0.4,0.3-0.8,0.8-1.1,0.8c-1.3,0-2.4,1.4-4.1,0.6C-51.2,472.3-49.9,471-47.9,471.2z"/>
		<path class="st0" d="M22.3,464.1c-0.5-0.5-0.9-0.8-1.4-1.3c0.8-0.4,1.5-0.7,2.2-1.1C23.6,462.7,22.9,463.2,22.3,464.1z"/>
		<path class="st0" d="M-58.7,473.4c1.4-1,3.2-1.5,4.5-1.5C-55.5,473-56.9,472.9-58.7,473.4z"/>
		<path class="st0" d="M-220.3,409.4c1.1,0.9,0.5,2.1,0.6,3.3C-221,411.7-220.2,410.5-220.3,409.4z"/>
		<path class="st0" d="M-213.3,420.9c0.6,0.4,1,0.6,1.3,0.8c0.3-0.1,0.6-0.1,1-0.2c-0.3,1-0.8,1.3-1.6,1.1
			C-213.1,422.5-213.1,422.3-213.3,420.9z"/>
		<path class="st0" d="M-278.3,436.5c-0.6-1.2-1-2.5,0-4c0,0.9,0,1.5,0,2.1S-278.3,435.8-278.3,436.5z"/>
		<path class="st0" d="M-270.1,450.7c0.3,1.4,1.7,2,1.3,3.6C-269.7,453.3-270.7,452.5-270.1,450.7z"/>
		<path class="st0" d="M-57.9,473.7c1.1,0,2.1,0,3.4,0c-1.3,1.4-2.4,0-3.4,0.4C-57.9,474-57.9,473.9-57.9,473.7z"/>
		<path class="st0" d="M-236.8,468.7c0.5-0.5,0.8-0.8,1.2-1.3c0.2,0.7,0.4,1.2,0.7,1.9C-235.6,469-236,468.9-236.8,468.7z"/>
		<path class="st0" d="M15.7,470.1c-0.1-0.2-0.2-0.3-0.2-0.3c0.2-0.6,0.4-1.2,0.6-1.9c0.3,0,0.6,0,1.2,0
			C16.7,468.8,16.2,469.5,15.7,470.1z"/>
		<path class="st0" d="M1.5,480.9c-1.3,0.5-2.2,0.8-3.1,1.2C-0.2,480.8-0.2,480.8,1.5,480.9z"/>
		<path class="st0" d="M-276.7,439.3c0.8,0.9,0.9,1.6,1,2.4C-276.6,441.3-276.7,440.5-276.7,439.3z"/>
		<path class="st0" d="M-24.6,479.4c-0.8,0.5-1.3,0.9-1.9,1.3c-0.2-0.2-0.3-0.3-0.6-0.6C-26.3,480-25.9,478.9-24.6,479.4z"/>
		<path class="st0" d="M-0.4,478.7c-0.5,0.6-1,1.4-2.2,1.2C-2,479.1-1.2,478.9-0.4,478.7z"/>
		<path class="st0" d="M-6.5,475.7c-0.8,0.6-1.6,1-2.9,1.2c0.7-0.6,1.2-0.9,1.7-1.3C-7.3,475.3-6.9,475.5-6.5,475.7z"/>
		<path class="st0" d="M-79.6,483c0.5-0.8,1.1-0.8,1.8-0.5C-78.3,483.4-78.9,483.1-79.6,483z"/>
		<path class="st0" d="M-256.2,404c-0.7,1.1-1.5,0.9-2.2,0.5C-257.8,404.4-257.1,404.3-256.2,404z"/>
		<path class="st0" d="M2.7,469.1c-0.8,0.6-0.8,0.6-2,0.5C1.7,469,1.7,469,2.7,469.1z"/>
		<path class="st0" d="M-283.8,433.2c-0.4-0.4-0.8-0.8-1.2-1.1c-0.3-0.2-0.8-0.3-1.1-0.5h0.1c0.7-0.9,1.1-1.9,0.8-3.1
			c0.3-0.2,0.6-0.4,0.9-0.6c0-0.3-0.1-0.6-0.2-0.9c0.8-1.2,1.6-2.4,2.4-3.7c-0.7-0.4-1.2-0.7-1.7-1c0.2-0.8,0.8-1.2,1.7-1.8
			c0.2,0.3,0.3,0.5,0.4,0.8c1.5-0.4,1.7-1.7,2.3-3.1c0.3,0.8,0.4,1.3,0.5,1.6c-0.4,1.3-0.7,2.4-1,3.5c0.1,0,0.2,0.1,0.2,0.1
			c0.3-0.4,0.5-0.9,0.8-1.3c0.1,0.1,0.2,0.1,0.2,0.1l0.1,0.1c0,0.1,0.1,0.1,0.1,0.2c-1.3,3.8-2.6,7.6-4,11.6
			c0.3,0.1,0.5,0.2,0.9,0.3c0.7,0.8,0.2,1.9,0.4,3c0.1,1,0.3,2,0.5,3.2c-0.5-0.1-0.9-0.2-1.4-0.4c-0.8-0.9-1-2.1-1-3.4
			c-0.3,0.6-0.6,1.1-0.9,1.8c-0.5,0-1,0.1-1.9,0.1c1.9-1,1.9-2.5,1.8-4.1c0.4,0.3,0.6,0.6,0.9,0.9c0.5-0.8,0-1.3-0.3-1.9
			c0.4-0.3,0.9-0.7,1.3-1c-0.1-0.6-0.1-1-0.2-1.4c0.3-0.4,0.6-0.7,0.9-1.1c-0.3-0.2-0.5-0.4-0.7-0.5c0.3-0.6,0.8-1.2,0.2-1.9
			c-0.4,0.7-0.8,1.4-1.3,2.2c0.4,0,0.5,0,0.7,0C-283.1,431-283.1,432.2-283.8,433.2z"/>
		<path class="st0" d="M-239.5,473.9c0-0.2,0-0.5,0.1-0.8c-2.3-0.9-4.7-1.2-6.7-0.7c-0.8-1.2-1.3-2-1.9-2.8c0.3,0,1.4,1.8,2.4,0.3
			c-0.5-0.1-0.9-0.3-1.4-0.4c0.2-0.3,0.5-0.6,0.8-1c1.8,2,4.1,2.3,6.5,2c1.4-0.2,2.6,0.3,3.8,1.1c0.1,0.3,0.2,0.6,0.3,1
			c2.1,1.2,4.2,2,6.5,1c0.2,0.1,0.3,0.2,0.3,0.2c-0.2,0.3-0.5,0.6-0.6,0.8c-1.2,0-2.2,0-3.1,0c-1.6-0.5-3.1-0.9-4.6-1.4
			C-238,473.4-238.5,474.6-239.5,473.9z"/>
		<path class="st0" d="M-286.1,431.6c0.6,0.8,0.6,1.5,0,2.3c-0.4,0.5-0.7,1.1-1.1,1.6c-0.5,0.7-0.8,1.4-0.2,2.1
			c-0.4,0.5-0.7,1-1,1.4c0,1.3,0,2.5,0,3.7c-0.1,0-0.1,0.1-0.2,0.1c-0.2-0.6-0.3-1.3-0.5-1.9c-0.1,0-0.2,0-0.3,0
			c-0.1,0.4-0.3,0.9-0.4,1.4c-0.2,0.1-0.4,0-0.4-0.1c-0.3-0.8,0.1-1.4,0.5-2c0.6-1.1,0.8-2.2,0-3.4c0.7-1.5,1.5-3,2.2-4.5
			C-287,432-286.6,431.8-286.1,431.6L-286.1,431.6z"/>
		<path class="st0" d="M-255.1,465.9c2.5,0,4.2,0.7,6.3,2.8c-1.3-0.3-2.4-0.5-3.7-0.7c-0.2,0.4-0.3,0.9-0.5,1.3
			c-0.7,0.3-1.4,0.2-1.7-0.5c-0.4-0.9-1.2-1.2-1.9-1.7l0,0C-255.2,466.9-255.2,466.9-255.1,465.9L-255.1,465.9z"/>
		<path class="st0" d="M-233.2,471.1c0.7-0.2,1.3-0.5,2-0.8c1.5,0.6,3.2,1.1,5,0.7c0.9-0.2,1.8,0,2.7,0c-1.2,1.6-2.9,1.6-4.6,1.4
			C-229.8,472.3-231.7,472.3-233.2,471.1z"/>
		<path class="st0" d="M-272.3,465.8c-0.4,0.4-0.7,0.7-1.1,1c-1.7-0.6-2.7-2.1-3.8-3.3c-0.5-0.6-0.7-1.3-0.4-2.3c0.3,0,0.6,0,1,0
			c0.2,1.7,1.4,2.6,2.8,3.4C-273.2,464.8-272.8,465.3-272.3,465.8z"/>
		<path class="st0" d="M-222.1,472.2c-0.3-0.4-0.5-0.7-0.7-1c0.2-0.1,0.2-0.3,0.3-0.3c1.3,0.1,2.6,0.3,3.9,0.4c1.3,0,2.6,0,3.8,0.6
			c0.6,0.3,1.4,0.2,2.1,0.2c0.7,0,1.4,0,2.3,0c-0.3,0.5-0.5,0.9-0.8,1.3c-1.5-0.1-3-0.4-4.3-1.2c-0.9-0.6-2-0.6-3-0.4
			C-219.6,472-220.8,472.1-222.1,472.2z"/>
		<path class="st0" d="M-277.1,455.1c0,1-0.6,1.7-1.4,2.4c0.2,0.4,0.4,0.9,0.7,1.5c-0.4,0.1-0.6,0.2-1,0.3c-0.1,0.3-0.2,0.7-0.3,1.1
			c-0.1-0.1-0.3-0.2-0.4-0.3s-0.1-0.2-0.2-0.4c-0.1-1.1-0.2-2.1-0.4-3.3c0.2,0,0.4,0.1,0.6,0.2c0.7-0.5,1.3-1.1,2-1.7
			C-277.4,454.8-277.2,454.9-277.1,455.1z"/>
		<path class="st0" d="M-277.8,446.2c-0.6,1-0.3,2.1-0.4,3.2c-1.1-2.7-1.8-5.5-1.5-8.6c0.9,0.8,0.8,1.8,0.9,2.7
			c0.1,0.6,0,1.2,0.1,1.7C-278.5,445.6-278.1,445.9-277.8,446.2z"/>
		<path class="st0" d="M-195.8,466.7c-0.4,0.9-1.1,0.7-1.6,0.7c-1.5,0.1-3.3-0.5-4.8-1.4c0.3-0.6,0.8-0.8,1.2-0.5
			C-199.4,466.4-197.6,466.4-195.8,466.7z"/>
		<path class="st0" d="M-256.6,467c-0.6-0.1-0.7-0.5-0.7-1c-0.1-0.8-0.1-1.5-0.2-2.3c-0.5,0-0.9,0-1.2,0c0.3-0.8,0.9-0.7,1.6-0.6
			c0.1,0.6,0.2,1.2,0.3,1.8c0.6,0.5,1.7-0.2,1.9,0.9l0,0C-256.4,465.9-256.4,465.9-256.6,467L-256.6,467z"/>
		<path class="st0" d="M-203.5,474c-1-0.5-1.9-0.9-2.7-1.3c0.7-0.2,0.7-0.2,2.3,0.2c0.8,0.2,1.9-0.5,2.6,0.7
			C-202.1,473.7-202.8,473.9-203.5,474z"/>
		<path class="st0" d="M-283.1,442.3c0.1,1.1,0.1,2,0.2,3.3c-0.8-1.2-1.4-1.9-2-2.8c0.2-0.2,0.3-0.5,0.5-0.9c0.5,0,1,0,1.7,0
			C-282.9,442.1-283,442.2-283.1,442.3z"/>
		<path class="st0" d="M-261.3,470.6c-1.5-1.3-3.1,0.3-4.7-0.2c0-0.3,0-0.5,0-0.8c1.7,0.1,3.4,0.2,5.3,0.3
			C-260.9,470.1-261,470.3-261.3,470.6z"/>
		<path class="st0" d="M-264.7,467.1c1.2-0.6,2.2-0.3,3.2-0.4c0.3,0.4,0.6,0.9,0.9,1.4c-0.3,0.1-0.5,0.1-0.7,0.1
			C-262.3,467.8-263.3,467.5-264.7,467.1z"/>
		<path class="st0" d="M-283.8,433.2c0.7-0.9,0.7-2.1,1.2-3.1c0.1-0.1,0.2-0.2,0.4-0.4c0.2,0.1,0.4,0.3,0.7,0.5
			c-0.3,0.4-0.6,0.7-0.9,1.1c0,0.4,0.1,0.8,0.2,1.4c-0.4,0.3-0.8,0.6-1.3,1C-283.5,433.4-283.7,433.3-283.8,433.2z"/>
		<path class="st0" d="M-249.7,407.8c1.3-0.5,2.3-0.9,3.4-1.3c0.2,0.1,0.3,0.3,0.7,0.6c-0.5,0.4-0.9,0.7-1.3,1
			C-247.7,408.1-248.5,408-249.7,407.8z"/>
		<path class="st0" d="M-277.5,418.5c0.7-1.5,1.2-2.7,3.1-2.7C-275.1,417.3-276.1,417.9-277.5,418.5z"/>
		<path class="st0" d="M-263.5,461.6c0,0.2,0,0.4,0.1,0.6c0.2,0,0.5,0.1,0.7,0.1c0.3,0,0.5,0,1.2,0.1c-1.3,0.5-2.2,0.8-3.4,1.2
			c0.4-0.5,0.6-0.6,0.8-0.8c-0.3-0.1-0.6-0.2-0.9-0.3C-265,461.6-264.4,461.5-263.5,461.6z"/>
		<path class="st0" d="M-151.7,473.6c-0.7,0-1.1,0-1.6,0c-0.3-0.4-0.6-0.9-0.9-1.4C-153.6,471.9-152.4,472.4-151.7,473.6z"/>
		<path class="st0" d="M-194.6,466.8c1.6,0.3,3.1,0.6,4.4,0.9C-192.8,468.1-193.7,467.9-194.6,466.8z"/>
		<path class="st0" d="M-260.5,472.4c-0.6,0.4-1,0.7-1.5,1c-0.4-0.3-0.8-0.6-1.2-1C-261.7,471.9-261.7,471.9-260.5,472.4z"/>
		<path class="st0" d="M-185.1,468.7c-0.6,0.6-0.8,0.8-1.1,1.1c-0.8-0.3-1.5-0.6-2.3-1c0-0.1,0-0.1,0-0.2
			C-187.5,468.7-186.5,468.7-185.1,468.7z"/>
		<path class="st0" d="M-277.3,413.4c0.2-1.3,1.4-1.5,2.4-2.4C-275.6,412.4-275.7,412.5-277.3,413.4z"/>
		<path class="st0" d="M-284.8,450.6c-1.2-0.8-2-1.3-3-1.9C-286.3,448.4-285.9,448.6-284.8,450.6z"/>
		<path class="st0" d="M-117.3,472.6c1.3-0.2,2.5-0.4,3.8-0.5C-115.4,472.9-115.4,472.9-117.3,472.6z"/>
		<path class="st0" d="M-178.7,470.9c-1,0-2.1,0.3-2.7-1.1c1,0.3,1.9,0.5,2.9,0.8C-178.6,470.7-178.7,470.8-178.7,470.9z"/>
		<path class="st0" d="M-269,466.6c0.9,0.2,1.8,0.3,3.1,0.6c-0.9,0.3-1.4,0.5-1.8,0.7c-0.5-0.4-0.9-0.7-1.4-1
			C-269,466.7-269,466.6-269,466.6z"/>
		<path class="st0" d="M-276.6,421c-0.5-1,0.2-1.8,0.6-2.8c0.2,0.3,0.4,0.5,0.6,0.8C-275.9,419.7-276.3,420.4-276.6,421L-276.6,421z
			"/>
		<path class="st0" d="M-240.4,475.4c-0.7-0.3-1.3-0.6-1.9-0.9c0-0.1,0-0.2,0.1-0.3c0.6,0,1.2,0,1.7,0c0.1,0.2,0.3,0.3,0.3,0.5
			C-240.2,474.9-240.3,475.1-240.4,475.4z"/>
		<path class="st0" d="M-287.1,439.5c0.4,0.5,0.7,0.9,1.1,1.3c-0.9,0.6-1.4-0.1-2.2-0.4C-287.8,440.1-287.5,439.9-287.1,439.5z"/>
		<path class="st0" d="M-247.4,475.2c1.4-1.1,2.3-0.1,3.2,0C-245.1,475.2-246,475.2-247.4,475.2z"/>
		<path class="st0" d="M24,419c-2.7,3.2-4.9,7-8.1,10"/>
		<path class="st0" d="M180.9,424.5c5.6-5,12-8.5,18.9-11.3"/>
		<path class="st0" d="M-97.2,478.9c-0.8,1-1.4,1.1-2.2,1.1c-1.7,0-3.4,0.1-5-0.9c0.5-0.2,0.9-0.4,1.4-0.6
			C-101.2,479.5-99.3,478.8-97.2,478.9z"/>
		<path class="st0" d="M-91.1,479.2c1.4,0.1,2.8,0.2,4.3,0.3c-0.2,0.3-0.3,0.5-0.5,0.9C-88.7,480.4-90,480.2-91.1,479.2L-91.1,479.2
			z"/>
		<path class="st0" d="M-91.1,479.2c-0.9,0.1-1.8,0.2-2.7,0.3c-0.8,0.1-1.7,0.3-2.5-0.4C-94.6,478.7-92.1,478.8-91.1,479.2
			L-91.1,479.2z"/>
		<path class="st0" d="M-56.3,477.7c1.3,0,2.1,0,3,0c0.1,0.3,0.3,0.6,0.4,0.8C-54.4,479.6-54.9,477.9-56.3,477.7z"/>
		<path class="st0" d="M-79.5,480.1c-0.9,0.3-1.3,0.4-1.9,0.6c-0.4-0.3-0.9-0.5-1.8-1.1C-81.8,479.8-80.8,480-79.5,480.1z"/>
		<path class="st0" d="M-282.2,429.7c-0.1,0.1-0.2,0.2-0.4,0.4c-0.2,0-0.4,0-0.7,0c0.5-0.8,0.9-1.5,1.3-2.2
			C-281.4,428.5-281.9,429.1-282.2,429.7z"/>
		<path class="st0" d="M-256.6,467c0.2-1.1,0.3-1.2,1.6-1.2C-255.2,466.9-255.2,466.9-256.6,467z"/>
	</g>
</g>
</svg>
