<?xml version="1.0" encoding="UTF-8" standalone="no"?>
<svg width="129px" height="250px" viewBox="0 0 129 250" version="1.1" xmlns="http://www.w3.org/2000/svg" xmlns:xlink="http://www.w3.org/1999/xlink">
    <!-- Generator: Sketch 3.7.1 (28215) - http://www.bohemiancoding.com/sketch -->
    <title>thailand</title>
    <desc>Created with Sketch.</desc>
    <defs>
        <polygon id="path-1" points="128.640647 0 0.000345042374 0 0.000345042374 249.786933 128.640647 249.786933 128.640647 -2.84217094e-14"></polygon>
    </defs>
    <g id="Page-1" stroke="none" stroke-width="1" fill="none" fill-rule="evenodd">
        <g id="thailand">
            <mask id="mask-2" fill="white">
                <use xlink:href="#path-1"></use>
            </mask>
            <g id="Clip-2"></g>
            <path d="M41.9035,-0.0004 C44.1355,3.0346 44.9205,6.5896 46.7415,9.6386 C47.3795,10.7076 47.3005,12.0376 47.2435,13.2666 C47.1765,14.6936 47.8155,15.5706 49.1705,15.6716 C51.5655,15.8516 53.1945,16.9906 54.3885,19.0416 C55.4795,20.9166 56.5755,22.6626 56.9495,24.9406 C57.6325,29.1106 56.3135,32.9956 55.8265,36.9916 C55.3425,40.9476 54.6295,44.8756 54.0305,48.8176 C54.0015,49.0106 54.1045,49.2236 54.1945,49.6726 C60.1675,47.5156 65.6625,44.5016 71.4815,41.9226 C74.5015,43.4616 77.5935,45.0376 80.5345,46.5376 C84.6955,45.5576 87.9565,43.6516 89.3185,39.6606 C93.0695,38.8816 96.5375,38.5476 99.8865,40.3456 C100.4785,40.6636 100.9945,41.0256 101.4555,41.4846 C104.8535,44.8726 108.2405,48.2736 111.6435,51.6576 C112.4395,52.4486 112.8985,53.3726 113.2365,54.4496 C114.1125,57.2416 114.3685,60.0726 114.5785,62.9876 C114.7975,66.0136 114.6805,69.0696 115.1795,72.0896 C115.4265,73.5856 116.1165,74.6496 117.2205,75.5356 C119.6545,77.4876 122.1095,79.4136 124.5485,81.3596 C127.5975,83.7936 129.0185,86.8166 128.5545,90.8436 C128.1575,94.2916 127.9905,97.7736 127.5865,101.2286 C127.5185,101.8106 127.4775,102.3846 127.1485,102.8936 C125.9305,104.7816 124.7155,106.6716 123.4575,108.6266 C121.8335,108.3986 120.2585,107.8846 118.7605,107.8796 C116.5995,107.8716 114.3875,107.7226 112.2395,108.0466 C108.8415,108.5576 105.4365,108.2246 102.0415,108.3826 C99.1985,108.5156 96.4215,107.7516 93.5895,107.9696 C92.4455,108.0566 91.3055,108.1056 90.1565,108.2496 C85.9745,108.7736 84.5685,112.2676 82.4505,115.0136 C81.5645,116.1626 80.7075,117.3446 79.9445,118.5766 C78.3285,121.1876 77.7145,124.2016 76.6735,127.0426 C76.5175,127.4676 76.7075,127.9086 76.8915,128.3066 C77.9255,130.5366 78.6225,132.9506 79.7085,135.0946 C81.1985,138.0386 82.5855,141.0936 84.6265,143.7716 C86.1175,145.7286 86.6905,148.0746 86.5185,150.5586 C86.4935,150.9116 86.3955,151.2656 86.2875,151.6046 C86.2525,151.7136 86.0755,151.7786 85.8265,151.9666 C84.4925,150.3036 83.0085,148.7296 81.8655,146.9386 C81.0275,145.6236 79.9145,144.7976 78.6355,144.1266 C75.7485,142.6106 73.1155,140.8226 70.7655,138.5006 C69.0725,136.8266 67.0975,135.4646 64.3905,135.3236 C61.6705,135.1816 58.9825,134.4126 56.2805,133.9176 C56.0665,133.8786 55.8555,133.8136 55.6405,133.7946 C52.9425,133.5526 52.9405,133.5546 52.9325,130.9646 C52.9275,129.2186 52.9305,127.4736 52.9235,125.7286 C52.9215,125.0566 52.8765,124.3816 52.1055,124.1106 C49.6625,123.2526 47.2755,121.8496 44.6415,122.1136 C42.1805,122.3606 39.6915,122.9126 37.4565,124.1336 C37.3905,124.2736 37.2745,124.4026 37.2775,124.5296 C37.4085,130.0496 36.4715,135.5386 36.8035,141.0636 C36.9575,143.6306 36.6085,146.0826 35.6045,148.5036 C34.1305,152.0556 32.8805,155.7016 31.5475,159.3126 C31.2665,160.0726 30.9415,160.8076 30.3305,161.3516 C27.4125,163.9526 26.7235,167.6386 25.4355,171.0716 C23.8505,175.2996 24.1375,179.6426 24.1335,183.9896 C24.1335,184.0616 24.1275,184.1366 24.1405,184.2066 C24.7515,187.4326 26.1385,190.3646 27.2455,193.1996 C30.0755,193.7386 32.5885,192.6456 35.0615,193.2166 C35.9765,195.0056 36.1235,196.8816 36.1565,198.6266 C36.2265,202.4716 38.1545,205.3546 40.3725,208.1606 C40.9725,208.9196 41.4035,209.7206 41.7125,210.6286 C43.2795,215.2376 45.0335,219.7906 46.4045,224.4566 C47.4265,227.9336 50.2185,229.1236 52.9745,230.5726 C55.3295,231.8096 58.0225,231.5286 60.4685,232.4396 C62.0725,233.0366 63.3345,233.9426 64.2485,235.2226 C66.2825,238.0716 68.8945,240.1616 71.9125,241.8536 C73.7655,242.8926 73.6775,243.7106 72.1935,245.1616 C69.3555,247.9376 65.6955,248.7286 62.0865,249.7026 C61.4205,249.8816 60.7935,249.7746 60.2105,249.3916 C59.8485,249.1536 59.4945,248.8776 59.0965,248.7256 C57.1045,247.9706 56.8695,247.8776 57.3235,245.7986 C57.8365,243.4516 56.8075,241.7486 55.6535,239.9576 C55.1065,239.1096 54.3435,238.7336 53.4645,238.7976 C52.2795,238.8836 51.1585,238.4886 50.0235,238.4916 C48.0175,238.4966 46.3685,237.8716 44.9345,236.4936 C44.5345,236.1086 43.9575,235.9086 43.3715,235.5716 C42.5815,236.5056 42.7685,237.9116 41.5415,238.7036 C33.0275,229.1196 25.1655,218.9286 16.5925,209.3966 C14.7765,209.6816 13.3045,210.4646 11.7135,211.1906 C10.8175,210.2346 9.7445,209.4526 9.8435,207.9456 C9.8485,207.8766 9.8315,207.7856 9.7875,207.7376 C7.7795,205.5326 9.1465,202.8936 8.8845,200.4696 C8.6165,197.9896 9.0235,195.5996 10.1085,193.2786 C11.0855,191.1906 11.7485,188.9556 12.5435,186.7836 C12.9825,185.5836 12.9025,184.3076 12.7475,183.1126 C12.1855,178.7756 13.6305,175.2926 16.4745,172.0186 C19.4685,168.5726 22.1285,164.8206 24.7495,161.0716 C27.5605,157.0506 30.2225,152.9186 32.6025,148.4666 C30.5745,145.3736 29.9385,141.6836 28.0775,138.4466 C27.0595,136.6766 26.5725,134.4396 25.6825,132.4666 C25.4175,131.8806 25.2855,131.2406 24.8375,130.7406 C24.5425,130.4106 24.3025,130.0546 24.3115,129.5816 C24.3695,126.5436 24.0925,123.5296 23.7405,120.5126 C23.2415,116.2306 21.1005,112.9396 17.8125,110.3156 C15.3745,108.3686 13.1805,106.1406 10.9215,104.0166 C9.0495,102.2556 7.8845,99.8896 9.3465,96.9646 C10.5315,94.5936 11.0255,91.9096 12.9185,89.8446 C13.9645,88.7056 14.2655,87.0536 14.3645,85.5806 C14.5205,83.2566 15.7665,81.5096 16.8485,79.6436 C17.3185,78.8326 17.8505,78.0576 18.3085,77.3386 C18.2585,76.2456 17.4915,75.9276 16.7705,75.5856 C15.3605,74.9156 14.7565,73.8506 14.9555,72.2706 C15.4065,68.6896 14.3145,65.5486 12.7445,62.3076 C11.2325,59.1826 9.2935,56.7096 6.5135,54.7606 C3.8795,52.9136 3.0505,49.8696 1.5025,47.2756 C-0.2735,44.3006 -0.3825,41.5666 0.6925,38.3296 C2.0365,34.2796 2.8975,30.0636 3.8265,25.8876 C4.0285,24.9806 4.3375,24.2066 4.9155,23.5896 C6.4545,21.9446 8.0775,20.3776 9.6705,18.7826 C10.1575,18.2936 10.7065,18.0116 11.4355,18.1926 C12.0085,18.3346 12.5945,18.1046 13.1505,18.1166 C18.6325,18.2316 22.0925,14.4216 26.0065,11.5326 C30.5575,8.1736 35.0395,4.7206 39.5595,1.3216 C40.2495,0.8026 40.9695,0.3156 41.9035,-0.0004" id="Fill-1" fill="#277F8B" mask="url(#mask-2)"></path>
        </g>
    </g>
</svg>