<?xml version="1.0" encoding="UTF-8" standalone="no"?>
<svg width="124px" height="142px" viewBox="0 0 124 142" version="1.1" xmlns="http://www.w3.org/2000/svg" xmlns:xlink="http://www.w3.org/1999/xlink">
    <!-- Generator: Sketch 3.7.1 (28215) - http://www.bohemiancoding.com/sketch -->
    <title>wallet</title>
    <desc>Created with Sketch.</desc>
    <defs>
        <polygon id="path-1" points="123.602 0.656322806 123.602 142 0 142 0 0.656322806 123.602 0.656322806"></polygon>
    </defs>
    <g id="Page-1" stroke="none" stroke-width="1" fill="none" fill-rule="evenodd">
        <g id="wallet" transform="translate(0.000000, -1.000000)">
            <g id="Group-5" transform="translate(49.000000, 5.344000)">
                <path d="M72.4382,61.3961 C72.4232,61.5931 72.0702,62.2121 71.4502,63.1741 C70.0812,65.2841 67.3842,69.0261 63.9182,73.6261 C62.4482,72.0421 60.8862,70.3581 59.2342,68.5851 C57.3172,66.5181 55.2752,64.3581 53.1662,62.1291 C34.7202,42.6131 10.8712,18.1751 9.6882,17.1741 C7.2702,15.1311 3.3902,11.6561 1.7222,8.3531 C0.2052,5.3331 0.5382,2.4501 5.5582,0.9421 C16.0492,-2.2179 72.5872,59.2731 72.4382,61.3961" id="Fill-1" fill="#F8A66F"></path>
                <path d="M1.7251,8.3559 C3.4751,6.6949 5.2991,4.9979 6.3171,4.0499 C6.7881,3.6159 7.5051,3.6039 7.9701,4.0339 C15.1081,10.5529 65.9441,56.9619 66.4311,57.7689 C66.8061,58.3709 62.0661,64.8279 59.2371,68.5869" id="Fill-3" fill="#45C3D4"></path>
            </g>
            <text id="B" font-family="MyriadPro-Regular, Myriad Pro" font-size="1.2185" font-weight="normal" fill="#277F8B">
                <tspan x="100.7456" y="64.4700975">B</tspan>
            </text>
            <g id="Group-11" transform="translate(0.000000, 0.344000)">
                <path d="M109.7651,60.7098 L101.1531,67.9818" id="Stroke-6" stroke="#277F8B"></path>
                <g id="Group-10">
                    <mask id="mask-2" fill="white">
                        <use xlink:href="#path-1"></use>
                    </mask>
                    <g id="Clip-9"></g>
                    <path d="M121.353,63.8197 C122.547,65.7737 121.362,67.1247 120.451,68.1737 C121.07,67.2127 121.423,66.5927 121.438,66.3957 C121.587,64.2727 65.049,2.7827 54.558,5.9427 C49.538,7.4497 49.205,10.3327 50.723,13.3527 C52.39,16.6557 56.27,20.1317 58.688,22.1747 C59.871,23.1757 83.721,47.6127 102.167,67.1287 C104.275,69.3577 106.317,71.5187 108.235,73.5847 C109.886,75.3587 111.449,77.0417 112.918,78.6267 C119.012,85.2257 123.192,89.9907 123.565,90.9997 C125.044,95.0077 82.47,149.7277 65.729,141.0737 C48.978,132.4237 5.837,71.8937 5.837,71.8937 L0.48,63.4177 C-4.881,54.9317 36.202,14.5267 45.825,5.7877 C55.461,-2.9463 57.858,2.1147 57.858,2.1147 C92.377,28.0627 112.971,49.9997 121.353,63.8197" id="Fill-8" fill="#B25626" mask="url(#mask-2)"></path>
                </g>
            </g>
        </g>
    </g>
</svg>