<?xml version="1.0" encoding="UTF-8" standalone="no"?>
<svg width="180px" height="319px" viewBox="0 0 180 319" version="1.1" xmlns="http://www.w3.org/2000/svg" xmlns:xlink="http://www.w3.org/1999/xlink">
    <!-- Generator: Sketch 3.7.1 (28215) - http://www.bohemiancoding.com/sketch -->
    <title>waterproof-phone</title>
    <desc>Created with Sketch.</desc>
    <defs>
        <polygon id="path-1" points="144.861498 0.099 0.6817 0.099 0.6817 191.61768 144.861498 191.61768 144.861498 0.099"></polygon>
        <polygon id="path-3" points="127.741958 151 0 151 0 0.1031 127.741958 0.1031 127.741958 151"></polygon>
    </defs>
    <g id="Page-1" stroke="none" stroke-width="1" fill="none" fill-rule="evenodd">
        <g id="waterproof-phone" transform="translate(0.000000, -1.000000)">
            <g id="Group-3" transform="translate(35.000000, 0.901000)">
                <mask id="mask-2" fill="white">
                    <use xlink:href="#path-1"></use>
                </mask>
                <g id="Clip-2"></g>
                <path d="M2.1147,170.255 L0.6817,168.312 C0.9847,168.089 29.7957,146.312 21.2117,127.275 C15.9827,115.676 8.9657,93.674 5.9177,72.774 C4.0937,60.269 3.7837,49.177 4.9937,39.806 C6.4427,28.593 10.0877,19.848 15.8277,13.812 C32.3067,-3.516 88.3957,-4.645 121.1177,11.694 C138.8277,20.536 146.8887,32.976 144.4287,47.668 C138.7347,81.681 122.0187,102.489 112.0307,114.922 C108.1237,119.785 105.0377,123.627 104.4667,126.064 C103.5837,129.832 104.7527,137.947 105.8827,145.794 C107.4937,156.982 109.1597,168.551 106.1217,173.094 C100.9847,180.777 92.4367,191.849 92.5967,191.614 L90.9657,189.343 C91.0447,189.227 99.2677,179.003 104.1147,171.753 C106.6387,167.979 104.9677,156.376 103.4937,146.139 C102.2777,137.698 101.1297,129.726 102.1167,125.514 C102.8127,122.542 105.8897,118.712 110.1487,113.41 C119.9887,101.161 136.4587,80.661 142.0487,47.269 C144.9127,30.163 131.6607,19.655 120.0387,13.853 C105.1477,6.418 83.7267,2.19 62.7377,2.544 C41.8257,2.896 24.9427,7.73 17.5767,15.476 C10.6247,22.786 3.3727,38.601 8.3067,72.426 C11.3207,93.095 18.2497,114.832 23.4127,126.282 C27.3287,134.967 24.6587,145.456 15.6937,156.615 C9.0507,164.883 2.4367,170.018 2.1147,170.255" id="Fill-1" fill="#A39038" mask="url(#mask-2)"></path>
            </g>
            <g id="Group-6" transform="translate(0.000000, 168.901000)">
                <mask id="mask-4" fill="white">
                    <use xlink:href="#path-3"></use>
                </mask>
                <g id="Clip-5"></g>
                <path d="M35.6801,0.1031 C35.6801,0.1031 125.6021,21.1491 127.6421,21.6421 C129.6821,22.1361 99.8351,142.9951 95.7691,149.8341 C91.7041,156.6731 -1.2229,131.3661 0.0121,127.4061 C0.9301,124.4621 20.1841,55.5801 30.0131,20.3951 C33.4091,8.2371 35.6801,0.1031 35.6801,0.1031" id="Fill-4" fill="#E3C94F" mask="url(#mask-4)"></path>
            </g>
            <path d="M74.7001,307.2383 L34.7221,302.8273 C32.5501,302.5873 31.0761,300.3603 31.4321,297.8533 L44.1111,208.4693 C44.4671,205.9623 46.5161,204.1243 48.6891,204.3643 L88.6671,208.7753 C90.8401,209.0153 92.3131,211.2413 91.9571,213.7493 L79.2781,303.1323 C78.9231,305.6403 76.8731,307.4783 74.7001,307.2383" id="Fill-7" fill="#A39038"></path>
            <path d="M74.3409,295.5052 L38.3499,291.5192 C36.4549,291.3092 35.1559,289.4662 35.4489,287.4022 L45.6089,215.9592 C45.9029,213.8962 47.6769,212.3932 49.5719,212.6032 L85.5629,216.5902 C87.4589,216.7992 88.7569,218.6422 88.4639,220.7062 L78.3039,292.1492 C78.0109,294.2122 76.2359,295.7152 74.3409,295.5052" id="Fill-9" fill="#E3C94F"></path>
            <path d="M61.1868,209.9386 L73.4098,211.2876" id="Fill-11" fill="#A39038"></path>
            <path d="M52.806,298.4582 C53.288,296.4002 55.347,295.1222 57.405,295.6042 C59.463,296.0862 60.741,298.1462 60.259,300.2042 C59.777,302.2622 57.718,303.5392 55.66,303.0572 C53.602,302.5752 52.324,300.5162 52.806,298.4582" id="Fill-13" fill="#E3C94F"></path>
            <g id="Group-18" transform="translate(31.000000, 184.901000)">
                <path d="M93.2245,24.3354 C93.2245,24.3354 64.1955,30.1094 57.4025,28.8724 C50.6095,27.6354 34.4065,23.8404 27.1075,22.1304 C27.1075,22.1304 2.4295,3.7694 0.1305,0.3964" id="Fill-15" fill="#E3C94F"></path>
                <path d="M93.2245,24.3354 C93.2245,24.3354 64.1955,30.1094 57.4025,28.8724 C50.6095,27.6354 34.4065,23.8404 27.1075,22.1304 C27.1075,22.1304 2.4295,3.7694 0.1305,0.3964" id="Stroke-17" stroke="#A39038" stroke-width="0.717"></path>
            </g>
            <path d="M71.6007,202.2883 C71.0777,204.5233 72.4647,206.7583 74.6987,207.2823 C76.9337,207.8053 79.1697,206.4183 79.6927,204.1833 C80.2167,201.9493 78.8287,199.7133 76.5947,199.1903 C74.3597,198.6663 72.1237,200.0533 71.6007,202.2883" id="Fill-19" fill="#A39038"></path>
            <g id="Group-24" transform="translate(33.000000, 176.901000)">
                <path d="M0.4244,0.1818 L93.2174,23.0978" id="Fill-21" fill="#E3C94F"></path>
                <path d="M0.4244,0.1818 L93.2174,23.0978" id="Stroke-23" stroke="#A39038" stroke-width="0.717"></path>
            </g>
            <g id="Group-28" transform="translate(33.000000, 174.901000)">
                <path d="M93.5587,23.6412 L0.7657,0.7252" id="Fill-25" fill="#E3C94F"></path>
                <path d="M93.5587,23.6412 L0.7657,0.7252" id="Stroke-27" stroke="#A39038" stroke-width="0.717"></path>
            </g>
        </g>
    </g>
</svg>