<?xml version="1.0" encoding="UTF-8" standalone="no"?>
<svg width="125px" height="206px" viewBox="0 0 125 206" version="1.1" xmlns="http://www.w3.org/2000/svg" xmlns:xlink="http://www.w3.org/1999/xlink">
    <!-- Generator: Sketch 3.7.1 (28215) - http://www.bohemiancoding.com/sketch -->
    <title>water-droplets</title>
    <desc>Created with Sketch.</desc>
    <defs>
        <polygon id="path-1" points="0.45087237 35 18.4741544 35 18.4741544 0.0628 0.45087237 0.0628"></polygon>
    </defs>
    <g id="Page-1" stroke="none" stroke-width="1" fill="none" fill-rule="evenodd">
        <g id="water-droplets">
            <g id="Group-3" transform="translate(67.000000, 170.821000)">
                <mask id="mask-2" fill="white">
                    <use xlink:href="#path-1"></use>
                </mask>
                <g id="Clip-2"></g>
                <path d="M1.9309,0.0628 C1.9309,0.0628 5.7599,17.0658 3.3979,19.9668 C1.2889,22.5578 -5.3261,35.9578 12.5749,34.9458 C30.4749,33.9338 1.9309,0.0628 1.9309,0.0628" id="Fill-1" fill="#277F8B" mask="url(#mask-2)"></path>
            </g>
            <path d="M55.9302,25.1669 C55.9302,25.1669 59.7592,42.1699 57.3972,45.0709 C55.2882,47.6619 48.6732,61.0619 66.5742,60.0499 C84.4742,59.0379 55.9302,25.1669 55.9302,25.1669" id="Fill-4" fill="#15454B"></path>
            <path d="M19.0977,86.2624 C19.0977,86.2624 17.3127,103.5994 14.1497,105.5974 C11.3247,107.3824 0.7867,117.9774 18.0777,122.7184 C35.3687,127.4604 19.0977,86.2624 19.0977,86.2624" id="Fill-6" fill="#45C3D4"></path>
            <path d="M39.5596,147.9437 C39.5596,147.9437 41.0896,166.4207 34.7416,169.4657 C28.3926,172.5117 30.6256,188.9577 45.0416,181.6487 C59.4576,174.3387 39.5596,147.9437 39.5596,147.9437" id="Fill-8" fill="#98D8E3"></path>
            <path d="M42.474,57.5992 C42.474,57.5992 44.004,76.0762 37.656,79.1212 C31.307,82.1672 33.54,98.6132 47.956,91.3042 C62.372,83.9942 42.474,57.5992 42.474,57.5992" id="Fill-10" fill="#45C3D4"></path>
            <path d="M2.3077,138.1451 C2.3077,138.1451 8.8327,155.4991 3.5597,160.1641 C-1.7143,164.8301 4.9317,180.0391 16.7987,169.0651 C28.6657,158.0921 2.3077,138.1451 2.3077,138.1451" id="Fill-12" fill="#45C3D4"></path>
            <path d="M72.4733,69.8095 C72.4733,69.8095 79.7983,86.8415 74.7463,91.7475 C69.6953,96.6525 77.0413,111.5365 88.3853,100.0235 C99.7303,88.5105 72.4733,69.8095 72.4733,69.8095" id="Fill-14" fill="#277F8B"></path>
            <path d="M101.3054,141.0055 C101.3054,141.0055 107.2344,163.7625 101.6064,169.5905 C95.9784,175.4195 102.7834,188.0465 118.0894,180.6925 C130.7344,174.6165 101.3054,141.0055 101.3054,141.0055" id="Fill-16" fill="#45C3D4"></path>
            <g id="Group-20" transform="translate(0.000000, 35.821000)" fill="#98D8E3">
                <path d="M1.6579,0.8156 C1.6579,0.8156 7.5869,23.5726 1.9589,29.4006 C-3.6691,35.2296 3.1359,47.8566 18.4419,40.5026 C31.0879,34.4266 1.6579,0.8156 1.6579,0.8156" id="Fill-18"></path>
            </g>
            <path d="M70.4218,122.6887 C70.4218,122.6887 73.8238,137.5597 69.2958,139.6947 C65.4158,141.5247 58.6628,145.7607 61.4778,151.5267 C62.3478,153.3087 63.8858,154.6737 65.7298,155.4057 C88.0078,164.2527 82.1178,129.4337 70.4218,122.6887" id="Fill-21" fill="#15454B"></path>
            <path d="M22.9122,0.0001 C22.9122,0.0001 29.6372,13.6931 25.7212,16.8101 C22.3642,19.4821 16.7642,25.1551 20.8282,30.1211 C22.0842,31.6561 23.8942,32.6311 25.8562,32.9201 C49.5702,36.4161 35.8442,3.8791 22.9122,0.0001" id="Fill-23" fill="#45C3D4"></path>
            <path d="M116.6996,99.3101 C116.6996,99.3101 121.3356,111.0951 113.2646,114.8971 C105.1946,118.6991 101.2576,124.5101 105.6986,128.4261 C113.0066,134.8711 128.0256,131.5741 124.0316,116.5511 C120.0376,101.5271 116.6996,99.3101 116.6996,99.3101" id="Fill-25" fill="#98D8E3"></path>
            <path d="M46.4639,102.4038 C46.4639,102.4038 53.8079,112.7208 46.8939,118.3588 C39.9809,123.9968 37.5629,130.5868 42.8189,133.3148 C51.4669,137.8038 65.2449,130.9788 57.7419,117.3638 C50.2379,103.7498 46.4639,102.4038 46.4639,102.4038" id="Fill-27" fill="#277F8B"></path>
        </g>
    </g>
</svg>