<?xml version="1.0" encoding="UTF-8" standalone="no"?>
<svg width="234px" height="248px" viewBox="0 0 234 248" version="1.1" xmlns="http://www.w3.org/2000/svg" xmlns:xlink="http://www.w3.org/1999/xlink">
    <!-- Generator: Sketch 3.7.1 (28215) - http://www.bohemiancoding.com/sketch -->
    <title>water-pistols</title>
    <desc>Created with Sketch.</desc>
    <defs>
        <polygon id="path-1" points="0.0837966221 130 103.318022 130 103.318022 0.270086118 0.0837966221 0.270086118 0.0837966221 130"></polygon>
    </defs>
    <g id="Page-1" stroke="none" stroke-width="1" fill="none" fill-rule="evenodd">
        <g id="water-pistols" transform="translate(-5.000000, -17.000000)">
            <g id="Group-4" transform="translate(116.500000, 190.000000) rotate(-10.000000) translate(-116.500000, -190.000000) translate(10.000000, 124.000000)">
                <polyline id="Fill-1" fill="#F8A66F" points="159.8502 66.0149 125.2692 66.0149 125.2242 55.9009 203.8732 54.5699 203.8732 66.0149 159.8502 66.0149"></polyline>
                <g id="Group-26" transform="translate(0.000000, 0.712000)">
                    <path d="M125.6357,53.8576 L26.4907,53.8576 C12.3987,53.8576 0.9757,42.4336 0.9757,28.3416 L0.9757,28.3416 C0.9757,14.2496 12.3987,2.8266 26.4907,2.8266 L125.6357,2.8266 C139.7277,2.8266 151.1517,14.2496 151.1517,28.3416 L151.1517,28.3416 C151.1517,42.4336 139.7277,53.8576 125.6357,53.8576" id="Fill-2" fill="#F8A66F"></path>
                    <path d="M74.5365,91.2784 C71.5485,91.9894 60.0235,90.9934 60.0235,90.4244 L60.0235,79.3774 C60.0235,79.0244 60.2905,78.7344 60.6435,78.7114 C61.0305,78.6834 61.5825,78.6434 62.2545,78.6034 C62.2545,82.5084 63.1255,88.7684 68.6455,89.3834 C69.2835,89.4514 69.9205,89.0924 70.1315,88.4894 C70.2855,88.0514 70.2055,87.5274 69.4145,87.0554 C68.0765,86.2584 66.2665,81.9214 66.6535,78.3984 C72.1975,78.2334 79.3115,78.3814 80.0855,80.1804 C80.0855,80.1804 77.5245,90.5674 74.5365,91.2784 M125.2185,55.1894 L125.2235,55.1894 C125.4175,54.2444 125.8385,48.3764 105.4125,49.1624 C99.8635,49.3754 92.7225,51.0784 90.1875,46.7434 C83.7175,35.6764 87.7435,11.4024 89.0875,4.4114 C89.2955,3.3304 88.5885,2.2894 87.5055,2.0854 C83.4175,1.3144 73.8235,-0.0946 66.9825,2.0414 C66.2125,2.2824 65.6735,2.9744 65.6105,3.7784 C65.1175,9.9874 63.1365,36.8484 65.1455,43.7554 C67.1205,50.5334 38.8055,52.1444 31.1395,52.7194 L29.6855,52.8214 C29.4325,52.8394 29.2105,52.9974 29.1125,53.2314 L24.0255,65.3024 C24.0255,65.3024 18.9035,72.9924 24.0255,81.7794 C29.1475,90.5674 33.7005,83.7374 34.8395,91.1364 C35.9775,98.5354 34.8395,121.8694 34.8395,121.8694 C34.8395,121.8694 39.3925,131.5454 50.7745,130.9754 C62.1575,130.4064 62.7265,121.8694 59.3125,121.8694 C59.3125,121.8694 60.5925,96.4004 59.5965,94.8354 C59.5965,94.8354 73.9675,97.1124 76.9555,94.1244 C79.9435,91.1364 82.2195,86.1564 82.7895,81.1764 C83.3585,76.1964 117.7915,78.1884 117.7915,78.1884 C117.7915,78.1884 125.0475,77.7614 125.1895,72.6394 C125.2185,71.5184 125.2355,70.0554 125.2465,68.4554 C125.2465,67.9034 125.2525,67.3464 125.2525,66.7994 L125.2525,65.3024 C125.2465,60.3454 125.1895,55.3144 125.1895,55.3144 C125.1895,55.3144 125.2065,55.2694 125.2185,55.1894" id="Fill-4" fill="#F37221"></path>
                    <path d="M70.1313,88.4897 C69.9203,89.0927 69.2833,89.4517 68.6453,89.3827 C63.1253,88.7687 62.2543,82.5077 62.2543,78.6037 C63.4273,78.5297 64.9693,78.4497 66.6543,78.3987 C66.2673,81.9217 68.0763,86.2587 69.4143,87.0557 C70.2053,87.5277 70.2853,88.0517 70.1313,88.4897" id="Fill-6" fill="#B25626"></path>
                    <path d="M125.2694,65.303 L125.2524,65.303" id="Stroke-8" stroke="#221F20" stroke-width="0.504"></path>
                    <path d="M153.5158,74.9727 C153.4928,75.3827 153.1738,75.7007 152.7868,75.7007 L149.6398,75.7007 C149.3898,75.7007 149.1738,75.5017 149.1388,75.2287 C148.9568,73.6917 148.4388,68.7177 148.8378,65.3027 C149.0768,63.1967 149.6688,61.6837 150.9038,61.9397 C152.0018,62.1667 152.6738,63.5217 153.0718,65.3027 C153.7948,68.5417 153.6178,73.1917 153.5158,74.9727 M145.1498,75.1267 C145.1268,75.5647 144.7848,75.9057 144.3698,75.9057 L141.0688,75.9057 C140.6528,75.9057 140.3058,75.5697 140.2778,75.1267 C140.1528,73.2877 139.9138,68.5867 140.4028,65.3027 C140.7328,63.1057 141.3818,61.5357 142.6108,61.8827 C143.6698,62.1787 144.3188,63.5387 144.7058,65.3027 C145.4338,68.5927 145.2578,73.2877 145.1498,75.1267 M135.7188,75.0237 C135.7018,75.3027 135.5028,75.5307 135.2298,75.5877 C134.2978,75.7597 132.1938,76.0797 131.1608,75.5837 C131.0528,75.5317 130.9898,75.4217 130.9808,75.3027 C130.9058,74.2417 130.5688,68.9167 131.1148,65.3027 C131.4388,63.1797 132.0648,61.6437 133.2258,61.9227 C134.2508,62.1727 134.8818,63.5327 135.2638,65.3027 C135.9808,68.6667 135.7988,73.5157 135.7188,75.0237 M159.8498,65.3027 C159.5148,62.6397 158.8658,60.3687 157.9718,59.5827 C155.5758,57.4797 128.7888,59.3107 125.3608,59.5547 C125.1638,59.5687 125.0188,59.7377 125.0388,59.9347 C125.1198,60.7407 125.3008,62.8347 125.2698,65.3027 C125.2638,65.7867 125.2578,66.2877 125.2528,66.7997 C125.2528,67.3457 125.2468,67.9037 125.2468,68.4557 C125.2468,72.3317 125.3548,76.2247 125.7528,77.1927 C126.6008,79.2757 154.8418,78.0457 157.9718,77.1927 C160.0098,76.6347 160.4818,70.2827 159.8498,65.3027" id="Fill-10" fill="#B25626"></path>
                    <path d="M209.312,66.4726 L204.695,66.4726 C204.241,66.4726 203.873,66.1046 203.873,65.6506 L203.873,53.8046 C203.873,53.3506 204.241,52.9826 204.695,52.9826 L209.312,52.9826 C209.766,52.9826 210.134,53.3506 210.134,53.8046 L210.134,65.6506 C210.134,66.1046 209.766,66.4726 209.312,66.4726" id="Fill-12" fill="#B25626"></path>
                    <path d="M211.7912,61.994 L210.2572,61.994 C210.1002,61.994 209.9722,61.867 209.9722,61.709 L209.9722,57.462 C209.9722,57.305 210.1002,57.178 210.2572,57.178 L211.7912,57.178 C211.9482,57.178 212.0762,57.305 212.0762,57.462 L212.0762,61.709 C212.0762,61.867 211.9482,61.994 211.7912,61.994" id="Fill-14" fill="#B25626"></path>
                    <path d="M135.7188,75.0238 C135.7018,75.3028 135.5028,75.5308 135.2298,75.5868 C134.2448,75.7698 131.9508,76.1168 130.9948,75.4908 C130.9948,75.4908 130.5058,69.3328 131.1148,65.3028 C131.4388,63.1798 132.0648,61.6438 133.2258,61.9218 C134.2508,62.1728 134.8818,63.5328 135.2638,65.3028 C135.9808,68.6668 135.7988,73.5158 135.7188,75.0238" id="Fill-16" fill="#F8A66F"></path>
                    <path d="M145.1495,75.1264 C145.1265,75.5644 144.7855,75.9064 144.3695,75.9064 L141.0685,75.9064 C140.6535,75.9064 140.3065,75.5704 140.2775,75.1264 C140.1525,73.2884 139.9135,68.5864 140.4025,65.3034 C140.7325,63.1064 141.3815,61.5354 142.6115,61.8824 C143.6695,62.1784 144.3185,63.5384 144.7055,65.3034 C145.4345,68.5924 145.2575,73.2884 145.1495,75.1264" id="Fill-18" fill="#F8A66F"></path>
                    <path d="M153.5158,74.9727 C153.4928,75.3827 153.1738,75.7007 152.7868,75.7007 L149.6398,75.7007 C149.3898,75.7007 149.1738,75.5017 149.1388,75.2287 C148.9568,73.6917 148.4388,68.7177 148.8378,65.3027 C149.0768,63.1967 149.6688,61.6837 150.9038,61.9397 C152.0018,62.1667 152.6738,63.5217 153.0718,65.3027 C153.7948,68.5417 153.6178,73.1917 153.5158,74.9727" id="Fill-20" fill="#F8A66F"></path>
                    <path d="M118.4842,60.781 L61.8912,60.781 C60.8602,60.781 60.0232,59.945 60.0232,58.913 C60.0232,57.881 60.8602,57.045 61.8912,57.045 L118.4842,57.045 C119.5162,57.045 120.3522,57.881 120.3522,58.913 C120.3522,59.945 119.5162,60.781 118.4842,60.781" id="Fill-22" fill="#F8A66F"></path>
                    <path d="M107.6321,68.4914 L61.7121,68.4914 C60.7791,68.4914 60.0231,67.7354 60.0231,66.8024 L60.0231,66.4444 C60.0231,65.5114 60.7791,64.7554 61.7121,64.7554 L107.6321,64.7554 C108.5651,64.7554 109.3211,65.5114 109.3211,66.4444 L109.3211,66.8024 C109.3211,67.7354 108.5651,68.4914 107.6321,68.4914" id="Fill-24" fill="#F8A66F"></path>
                </g>
            </g>
            <g id="Group" transform="translate(127.763577, 82.911615) rotate(-350.000000) translate(-127.763577, -82.911615) translate(21.763577, 17.411615)">
                <polyline id="Fill-83" fill="#45C3D4" points="52.5966 65.1956 87.0826 65.1956 87.1276 55.1096 8.6946 53.7816 8.6946 65.1956 52.5966 65.1956"></polyline>
                <g id="Group-109" transform="translate(0.000000, 0.712000)">
                    <path d="M86.717,53.0698 L185.589,53.0698 C199.642,53.0698 211.034,41.6778 211.034,27.6248 L211.034,27.6248 C211.034,13.5708 199.642,2.1788 185.589,2.1788 L86.717,2.1788 C72.664,2.1788 61.272,13.5708 61.272,27.6248 L61.272,27.6248 C61.272,41.6778 72.664,53.0698 86.717,53.0698" id="Fill-84" fill="#45C3D4"></path>
                    <g id="Group-88" transform="translate(87.000000, 0.000000)">
                        <mask id="mask-2" fill="white">
                            <use xlink:href="#path-1"></use>
                        </mask>
                        <g id="Clip-87"></g>
                        <path d="M45.1418,79.3201 C45.9138,77.5271 53.0078,77.3791 58.5368,77.5441 C58.9228,81.0571 57.1178,85.3821 55.7838,86.1761 C54.9948,86.6471 54.9158,87.1701 55.0688,87.6071 C55.2788,88.2081 55.9148,88.5661 56.5498,88.4981 C62.0558,87.8851 62.9238,81.6411 62.9238,77.7481 C63.5938,77.7881 64.1438,77.8271 64.5298,77.8561 C64.8818,77.8781 65.1488,78.1681 65.1488,78.5201 L65.1488,89.5361 C65.1488,90.1041 53.6558,91.0971 50.6758,90.3881 C47.6958,89.6781 45.1418,79.3201 45.1418,79.3201 M0.1618,54.5231 C0.1618,54.5231 0.1048,59.5401 0.0998,64.4841 L0.0998,65.9761 C0.0998,66.5211 0.1048,67.0771 0.1048,67.6281 C0.1158,69.2231 0.1328,70.6821 0.1618,71.8001 C0.3038,76.9081 7.5398,77.3331 7.5398,77.3331 C7.5398,77.3331 41.8778,75.3471 42.4458,80.3131 C43.0138,85.2801 45.2838,90.2461 48.2638,93.2261 C51.2428,96.2051 65.5748,93.9351 65.5748,93.9351 C64.5808,95.4961 65.8578,120.8951 65.8578,120.8951 C62.4528,120.8951 63.0208,129.4081 74.3718,129.9761 C85.7228,130.5431 90.2638,120.8951 90.2638,120.8951 C90.2638,120.8951 89.1288,97.6241 90.2638,90.2461 C91.3988,82.8671 95.9398,89.6781 101.0478,80.9151 C106.1558,72.1521 101.0478,64.4841 101.0478,64.4841 L95.9748,52.4451 C95.8768,52.2121 95.6558,52.0541 95.4038,52.0361 L93.9528,51.9351 C86.3078,51.3611 58.0708,49.7551 60.0408,42.9951 C62.0448,36.1071 60.0688,9.3211 59.5778,3.1291 C59.5138,2.3271 58.9768,1.6361 58.2088,1.3971 C51.3868,-0.7339 41.8188,0.6721 37.7418,1.4401 C36.6628,1.6431 35.9568,2.6811 36.1648,3.7601 C37.5048,10.7311 41.5198,34.9381 35.0678,45.9751 C32.5398,50.2981 25.4188,48.6001 19.8848,48.3871 C-0.4852,47.6041 -0.0652,53.4561 0.1278,54.3981 L0.1328,54.3981 C0.1448,54.4771 0.1618,54.5231 0.1618,54.5231" id="Fill-86" fill="#277F8B" mask="url(#mask-2)"></path>
                    </g>
                    <path d="M142.0687,87.6067 C142.2787,88.2087 142.9147,88.5657 143.5497,88.4977 C149.0557,87.8847 149.9237,81.6417 149.9237,77.7477 C148.7547,77.6737 147.2167,77.5947 145.5367,77.5437 C145.9227,81.0567 144.1177,85.3817 142.7837,86.1767 C141.9947,86.6477 141.9157,87.1697 142.0687,87.6067" id="Fill-89" fill="#15454B"></path>
                    <path d="M87.0993,64.4837 L87.0823,64.4837" id="Stroke-91" stroke="#221F20" stroke-width="0.503"></path>
                    <path d="M59.3564,64.4836 C59.7534,62.7076 60.4234,61.3566 61.5184,61.1296 C62.7504,60.8736 63.3404,62.3836 63.5794,64.4836 C63.9764,67.8886 63.4604,72.8496 63.2784,74.3826 C63.2444,74.6546 63.0284,74.8536 62.7784,74.8536 L59.6404,74.8536 C59.2544,74.8536 58.9364,74.5356 58.9134,74.1266 C58.8114,72.3506 58.6354,67.7136 59.3564,64.4836 M67.6994,64.4836 C68.0854,62.7246 68.7324,61.3676 69.7884,61.0726 C71.0144,60.7266 71.6614,62.2926 71.9904,64.4836 C72.4784,67.7586 72.2404,72.4466 72.1154,74.2796 C72.0874,74.7226 71.7404,75.0576 71.3264,75.0576 L68.0344,75.0576 C67.6204,75.0576 67.2794,74.7166 67.2574,74.2796 C67.1494,72.4466 66.9734,67.7646 67.6994,64.4836 M77.1154,64.4836 C77.4964,62.7186 78.1264,61.3616 79.1474,61.1126 C80.3054,60.8346 80.9294,62.3666 81.2534,64.4836 C81.7974,68.0876 81.4614,73.3976 81.3864,74.4556 C81.3784,74.5746 81.3144,74.6846 81.2074,74.7356 C80.1764,75.2306 78.0784,74.9116 77.1494,74.7396 C76.8774,74.6826 76.6784,74.4556 76.6614,74.1776 C76.5824,72.6736 76.4004,67.8376 77.1154,64.4836 M54.4694,76.3406 C57.5914,77.1916 85.7544,78.4176 86.5994,76.3406 C86.9974,75.3756 87.1054,71.4936 87.1054,67.6276 C87.1054,67.0776 87.0994,66.5216 87.0994,65.9766 C87.0934,65.4656 87.0884,64.9656 87.0824,64.4836 C87.0514,62.0226 87.2314,59.9336 87.3124,59.1296 C87.3324,58.9346 87.1884,58.7646 86.9914,58.7506 C83.5724,58.5076 56.8594,56.6816 54.4694,58.7796 C53.5784,59.5626 52.9314,61.8276 52.5964,64.4836 C51.9664,69.4496 52.4374,75.7836 54.4694,76.3406" id="Fill-93" fill="#15454B"></path>
                    <path d="M3.2709,65.6501 L7.8759,65.6501 C8.3279,65.6501 8.6949,65.2831 8.6949,64.8311 L8.6949,53.0171 C8.6949,52.5641 8.3279,52.1971 7.8759,52.1971 L3.2709,52.1971 C2.8179,52.1971 2.4519,52.5641 2.4519,53.0171 L2.4519,64.8311 C2.4519,65.2831 2.8179,65.6501 3.2709,65.6501" id="Fill-95" fill="#15454B"></path>
                    <path d="M0.7986,61.1838 L2.3286,61.1838 C2.4856,61.1838 2.6126,61.0568 2.6126,60.8998 L2.6126,56.6648 C2.6126,56.5078 2.4856,56.3808 2.3286,56.3808 L0.7986,56.3808 C0.6416,56.3808 0.5146,56.5078 0.5146,56.6648 L0.5146,60.8998 C0.5146,61.0568 0.6416,61.1838 0.7986,61.1838" id="Fill-97" fill="#15454B"></path>
                    <path d="M76.6616,74.1778 C76.6786,74.4558 76.8776,74.6828 77.1496,74.7398 C78.1316,74.9218 80.4186,75.2678 81.3726,74.6428 C81.3726,74.6428 81.8606,68.5018 81.2536,64.4838 C80.9296,62.3668 80.3056,60.8338 79.1476,61.1118 C78.1256,61.3618 77.4956,62.7188 77.1156,64.4838 C76.4006,67.8378 76.5816,72.6738 76.6616,74.1778" id="Fill-99" fill="#45C3D4"></path>
                    <path d="M67.2569,74.2801 C67.2799,74.7171 67.6199,75.0571 68.0349,75.0571 L71.3269,75.0571 C71.7409,75.0571 72.0869,74.7231 72.1149,74.2801 C72.2399,72.4471 72.4789,67.7581 71.9909,64.4841 C71.6609,62.2931 71.0139,60.7261 69.7879,61.0731 C68.7329,61.3681 68.0859,62.7241 67.6999,64.4841 C66.9729,67.7641 67.1489,72.4471 67.2569,74.2801" id="Fill-101" fill="#45C3D4"></path>
                    <path d="M58.9136,74.1268 C58.9366,74.5358 59.2546,74.8528 59.6406,74.8528 L62.7786,74.8528 C63.0286,74.8528 63.2446,74.6548 63.2786,74.3818 C63.4596,72.8498 63.9766,67.8888 63.5786,64.4838 C63.3406,62.3838 62.7506,60.8738 61.5186,61.1298 C60.4236,61.3568 59.7536,62.7068 59.3566,64.4838 C58.6356,67.7128 58.8116,72.3498 58.9136,74.1268" id="Fill-103" fill="#45C3D4"></path>
                    <path d="M93.8488,59.9742 L150.2858,59.9742 C151.3148,59.9742 152.1488,59.1402 152.1488,58.1112 L152.1488,58.1112 C152.1488,57.0822 151.3148,56.2482 150.2858,56.2482 L93.8488,56.2482 C92.8198,56.2482 91.9858,57.0822 91.9858,58.1112 L91.9858,58.1112 C91.9858,59.1402 92.8198,59.9742 93.8488,59.9742" id="Fill-105" fill="#45C3D4"></path>
                    <path d="M104.6711,67.6634 L150.4651,67.6634 C151.3951,67.6634 152.1491,66.9094 152.1491,65.9794 L152.1491,65.6214 C152.1491,64.6914 151.3951,63.9374 150.4651,63.9374 L104.6711,63.9374 C103.7411,63.9374 102.9871,64.6914 102.9871,65.6214 L102.9871,65.9794 C102.9871,66.9094 103.7411,67.6634 104.6711,67.6634" id="Fill-107" fill="#45C3D4"></path>
                </g>
            </g>
        </g>
    </g>
</svg>