<?xml version="1.0" encoding="UTF-8" standalone="no"?>
<svg width="244px" height="419px" viewBox="0 0 244 419" version="1.1" xmlns="http://www.w3.org/2000/svg" xmlns:xlink="http://www.w3.org/1999/xlink">
    <!-- Generator: Sketch 3.7.1 (28215) - http://www.bohemiancoding.com/sketch -->
    <title>what-to-wear</title>
    <desc>Created with Sketch.</desc>
    <defs>
        <polygon id="path-1" points="85.253 61.2694472 85.253 0.573318459 0.805193262 0.573318459 0.805193262 61.2694472"></polygon>
    </defs>
    <g id="Page-1" stroke="none" stroke-width="1" fill="none" fill-rule="evenodd">
        <g id="what-to-wear">
            <g id="Group-3" transform="translate(158.000000, 352.328000)">
                <mask id="mask-2" fill="white">
                    <use xlink:href="#path-1"></use>
                </mask>
                <g id="Clip-2"></g>
                <path d="M0.8316,14.4638 C0.8436,14.5848 0.8626,14.7028 0.8906,14.8198 C1.0666,15.6598 1.5356,16.4578 2.3716,17.1768 C8.8886,22.7868 22.1796,29.3028 23.4816,32.4298 C24.7866,35.5578 29.7436,59.5318 44.9856,61.0958 C58.0966,62.4408 79.8786,55.7208 84.4126,49.6348 C84.8506,49.0438 85.1286,48.4618 85.2146,47.8908 C85.2616,47.6368 85.2646,47.3868 85.2296,47.1368 C85.2106,47.0078 85.1786,46.8788 85.1396,46.7538 C83.0876,40.1818 76.5126,36.6438 76.5126,36.6438 C76.5126,36.6438 24.0046,-5.8792 11.7536,1.4148 C11.7536,1.4148 1.2026,8.1548 0.8156,13.6818 C0.7966,13.9478 0.8046,14.2058 0.8316,14.4638" id="Fill-1" fill="#F37221" mask="url(#mask-2)"></path>
            </g>
            <path d="M158.2858,373.1547 C158.2838,373.2637 158.3218,373.3697 158.3938,373.4517 C158.5098,373.5837 158.5838,373.6227 158.8038,373.8127 C165.3208,379.4227 180.1798,386.3607 181.4808,389.4887 C182.7868,392.6157 187.7438,416.5907 202.9858,418.1537 C216.7998,419.5727 240.2548,412.0327 242.9878,405.7147 C243.0268,405.4377 243.0578,405.1557 243.0888,404.8747 L243.0888,404.8667 C243.1008,404.5037 243.1168,404.1397 243.1278,403.7767 C243.1678,402.5017 243.1948,401.2627 243.2138,400.2187 C243.1278,400.7897 242.8508,401.3717 242.4128,401.9627 C237.8788,408.0487 216.0968,414.7687 202.9858,413.4237 C187.7438,411.8607 182.7868,387.8857 181.4808,384.7577 C180.1798,381.6307 166.8888,375.1147 160.3718,369.5047 C159.5348,368.7857 158.7968,366.2757 158.8158,366.0097 C158.8118,366.0137 158.3168,371.1507 158.2858,373.1547" id="Fill-4" fill="#B25626"></path>
            <path d="M157.5485,150.8547 C157.5485,150.8547 169.0985,217.9707 172.2915,226.7987 C175.4845,235.6257 179.6175,299.3877 178.5425,310.6797 C178.2645,324.0897 172.5285,357.2257 172.5285,357.2257 C162.1045,362.4387 168.0435,371.1327 170.6065,373.7387 C172.0795,375.2367 180.8675,377.8147 183.9955,378.4437 C187.1225,379.0727 190.5105,385.3717 189.9895,390.5837 C189.4685,395.7967 201.7165,401.0087 200.4135,403.6147 C199.1105,406.2207 203.8575,414.0387 210.4475,412.2147 C217.0365,410.3907 211.1325,402.3117 211.1325,402.3117 C211.1325,402.3117 214.9425,410.1297 218.5255,409.0217 C223.7785,407.3987 219.9595,402.3117 219.9595,402.3117 C222.1855,405.3627 223.3475,408.3057 227.2565,406.7417 C232.5795,404.6127 228.0385,400.8127 228.0385,400.8127 C231.0355,404.5267 236.2415,403.7447 236.9645,401.3997 C237.6865,399.0537 234.5535,397.3597 234.5535,397.3597 C237.1595,398.9237 242.3715,395.7967 241.1905,393.1897 C240.0095,390.5837 235.0745,392.1477 231.6865,386.4147 C228.2985,380.6807 208.1375,366.4207 206.9435,362.6987 C204.1005,353.8387 211.4165,304.9087 211.4165,304.9087 C212.3915,299.1187 215.2445,257.2117 215.2445,257.2117 C223.9085,244.3067 217.8725,229.7887 217.8725,229.7887 C218.9485,210.4317 215.1085,150.1747 215.1085,150.1747" id="Fill-6" fill="#F8A66F"></path>
            <path d="M224.4016,377.8508 C221.2106,376.8608 213.1496,387.6838 211.5766,394.1198 C211.3166,395.1858 209.9866,395.5438 209.2396,394.7398 C205.5286,390.7408 197.9876,384.0328 191.3796,387.0258 C191.3176,387.0538 191.2576,387.0858 191.1996,387.1228 C190.6036,387.4968 187.1886,389.7218 187.4116,391.4168 C187.5516,392.4828 188.0786,393.0778 188.7506,393.3228 C189.4936,393.5938 190.2846,393.1188 190.5046,392.3598 C190.6186,391.9648 190.8446,391.5828 191.2876,391.4988 C203.1526,389.2428 210.4196,400.1868 211.6916,402.2828 C211.8176,402.4898 211.9226,402.7048 212.0106,402.9298 L213.0316,405.5738 C213.4646,405.7938 213.6236,405.6498 213.6236,405.6498 L213.7576,402.3798 C213.7596,402.3148 213.7576,402.2508 213.7496,402.1868 C212.8376,394.1938 220.2926,382.9938 224.6726,380.3338 C225.6626,379.7328 225.5436,378.2248 224.4436,377.8638 C224.4296,377.8598 224.4156,377.8548 224.4016,377.8508" id="Fill-8" fill="#B25626"></path>
            <path d="M84.4217,366.7918 C84.4097,366.9128 84.3907,367.0308 84.3627,367.1478 C84.1867,367.9878 83.7177,368.7858 82.8817,369.5048 C76.3647,375.1148 63.0737,381.6308 61.7717,384.7578 C60.4667,387.8858 55.5097,411.8598 40.2677,413.4238 C27.1567,414.7688 5.3747,408.0488 0.8407,401.9628 C0.4027,401.3718 0.1247,400.7898 0.0387,400.2188 C-0.0083,399.9648 -0.0113,399.7148 0.0237,399.4648 C0.0427,399.3358 0.0747,399.2068 0.1137,399.0818 C2.1657,392.5098 8.7407,388.9718 8.7407,388.9718 C8.7407,388.9718 61.2487,346.4488 73.4997,353.7428 C73.4997,353.7428 84.0507,360.4828 84.4377,366.0098 C84.4567,366.2758 84.4487,366.5338 84.4217,366.7918" id="Fill-10" fill="#F37221"></path>
            <path d="M84.9675,373.1547 C84.9695,373.2637 84.9315,373.3697 84.8595,373.4517 C84.7435,373.5837 84.6695,373.6227 84.4495,373.8127 C77.9325,379.4227 63.0735,386.3607 61.7725,389.4887 C60.4665,392.6157 55.5095,416.5907 40.2675,418.1537 C26.4535,419.5727 2.9985,412.0327 0.2655,405.7147 C0.2265,405.4377 0.1955,405.1557 0.1645,404.8747 L0.1645,404.8667 C0.1525,404.5037 0.1365,404.1397 0.1255,403.7767 C0.0855,402.5017 0.0585,401.2627 0.0395,400.2187 C0.1255,400.7897 0.4025,401.3717 0.8405,401.9627 C5.3745,408.0487 27.1565,414.7687 40.2675,413.4237 C55.5095,411.8607 60.4665,387.8857 61.7725,384.7577 C63.0735,381.6307 76.3645,375.1147 82.8815,369.5047 C83.7185,368.7857 84.4565,366.2757 84.4375,366.0097 C84.4415,366.0137 84.9365,371.1507 84.9675,373.1547" id="Fill-12" fill="#B25626"></path>
            <path d="M85.7048,150.8547 C85.7048,150.8547 74.1548,217.9707 70.9618,226.7987 C67.7688,235.6257 63.6358,299.3877 64.7108,310.6797 C64.9888,324.0897 70.7248,357.2257 70.7248,357.2257 C81.1488,362.4387 75.2098,371.1327 72.6468,373.7387 C71.1738,375.2367 62.3858,377.8147 59.2578,378.4437 C56.1308,379.0727 52.7428,385.3717 53.2638,390.5837 C53.7848,395.7967 41.5368,401.0087 42.8398,403.6147 C44.1428,406.2207 39.3958,414.0387 32.8058,412.2147 C26.2168,410.3907 32.1208,402.3117 32.1208,402.3117 C32.1208,402.3117 28.3108,410.1297 24.7278,409.0217 C19.4748,407.3987 23.2938,402.3117 23.2938,402.3117 C21.0678,405.3627 19.9058,408.3057 15.9968,406.7417 C10.6738,404.6127 15.2148,400.8127 15.2148,400.8127 C12.2178,404.5267 7.0118,403.7447 6.2888,401.3997 C5.5668,399.0537 8.6998,397.3597 8.6998,397.3597 C6.0938,398.9237 0.8818,395.7967 2.0628,393.1897 C3.2438,390.5837 8.1788,392.1477 11.5668,386.4147 C14.9548,380.6807 35.1158,366.4207 36.3098,362.6987 C39.1528,353.8387 31.8368,304.9087 31.8368,304.9087 C30.8618,299.1187 28.0088,253.5417 28.0088,253.5417 C19.3448,240.6367 25.3808,226.1177 25.3808,226.1177 C24.3048,206.7607 28.1448,141.4477 28.1448,141.4477" id="Fill-14" fill="#F8A66F"></path>
            <path d="M28.9385,2.2259 C27.1915,1.7829 25.4455,2.9539 25.1915,4.7389 C22.4175,24.2779 8.6875,123.2049 12.6855,140.1929 C17.1245,159.0599 83.7125,171.2669 95.3655,164.6089 C107.0185,157.9499 120.8915,79.1529 120.8915,79.1529 C120.8915,79.1529 140.3135,165.5069 146.9715,166.4449 C153.6305,167.3829 226.8785,173.4869 234.6465,159.6139 C242.4155,145.7419 207.9915,-0.2751 203.5525,0.2799 C199.1525,0.8299 148.1775,32.4199 28.9385,2.2259" id="Fill-16" fill="#277F8B"></path>
            <path d="M28.9385,2.2259 C27.1915,1.7829 25.4455,2.9539 25.1915,4.7389 C22.4175,24.2779 8.6875,123.2049 12.6855,140.1929 C17.1245,159.0599 83.7125,171.2669 95.3655,164.6089 C107.0185,157.9499 120.8915,79.1529 120.8915,79.1529 C120.8915,79.1529 140.3135,165.5069 146.9715,166.4449 C153.6305,167.3829 226.8785,173.4869 234.6465,159.6139 C242.4155,145.7419 207.9915,-0.2751 203.5525,0.2799 C199.1525,0.8299 148.1775,32.4199 28.9385,2.2259 L28.9385,2.2259 Z" id="Stroke-18" stroke="#277F8B" stroke-width="0.555"></path>
            <path d="M75.825,11.6396 C75.825,11.6396 75.835,11.9346 75.853,12.4886 C75.848,13.0416 75.951,13.8536 75.881,14.8866 C75.854,15.4046 75.824,15.9776 75.791,16.6016 C75.737,17.2236 75.616,17.8896 75.522,18.6066 C75.292,20.0316 74.894,21.6226 74.271,23.2936 C73.971,24.1326 73.551,24.9656 73.156,25.8406 C72.665,26.6666 72.246,27.5776 71.637,28.4016 C70.541,30.1326 69.099,31.7586 67.507,33.3156 C65.909,34.8766 64.057,36.2616 62.122,37.5726 C60.173,38.8696 58.077,39.9946 55.947,41.0396 C51.647,43.0576 47.142,44.5846 42.853,45.7286 C40.711,46.3136 38.616,46.7816 36.622,47.1836 C34.628,47.5836 32.735,47.9206 30.981,48.1886 C27.476,48.7416 24.532,49.0266 22.474,49.2226 C20.415,49.4136 19.236,49.4896 19.236,49.4896 C19.236,49.4896 20.412,49.3796 22.464,49.1296 C24.517,48.8866 27.442,48.4786 30.931,47.8796 C34.418,47.2756 38.467,46.4436 42.726,45.2636 C46.989,44.1036 51.458,42.5586 55.709,40.5386 C57.824,39.5146 59.906,38.4126 61.838,37.1406 C63.757,35.8556 65.593,34.4976 67.176,32.9676 C68.745,31.4346 70.198,29.8646 71.303,28.1766 C71.918,27.3736 72.342,26.4836 72.84,25.6766 C73.243,24.8196 73.672,24.0046 73.981,23.1816 C74.614,21.5386 75.055,19.9776 75.326,18.5706 C75.44,17.8636 75.579,17.2036 75.65,16.5876 C75.7,15.9676 75.746,15.3996 75.788,14.8856 C75.888,13.8576 75.808,13.0416 75.829,12.4886 C75.826,11.9346 75.825,11.6396 75.825,11.6396" id="Fill-20" fill="#45C3D4"></path>
            <path d="M18.8918,52.2975 C18.8918,52.2975 20.1558,52.2155 22.3618,52.0005 C24.5668,51.7915 27.7108,51.4215 31.4618,50.8425 C33.3358,50.5465 35.3608,50.1945 37.4878,49.7485 C39.6188,49.3225 41.8418,48.7665 44.1358,48.1765 C46.4158,47.5385 48.7678,46.8555 51.1018,45.9985 C53.4358,45.1495 55.7838,44.2125 58.0438,43.0935 C60.3188,42.0085 62.5328,40.7895 64.5898,39.4045 C65.6418,38.7445 66.6078,37.9825 67.5848,37.2605 C68.0598,36.8825 68.5118,36.4825 68.9728,36.0985 C69.4398,35.7215 69.8788,35.3215 70.2948,34.9035 C72.0398,33.3095 73.4858,31.5345 74.7848,29.8075 C76.0018,28.0235 77.0718,26.2665 77.8108,24.5255 C78.0038,24.0945 78.1938,23.6725 78.3788,23.2595 C78.5298,22.8325 78.6768,22.4165 78.8208,22.0105 C78.9658,21.6035 79.1068,21.2085 79.2438,20.8235 C79.3638,20.4335 79.4538,20.0465 79.5548,19.6755 C79.9948,18.1975 80.1878,16.8665 80.3818,15.7765 C80.5668,14.6855 80.5888,13.8115 80.6618,13.2235 C80.7178,12.6315 80.7468,12.3165 80.7468,12.3165 C80.7468,12.3165 80.7258,12.6325 80.6868,13.2245 C80.6288,13.8145 80.6308,14.6915 80.4748,15.7895 C80.3098,16.8865 80.1508,18.2285 79.7498,19.7255 C79.6568,20.1015 79.5768,20.4935 79.4668,20.8895 C79.3388,21.2815 79.2078,21.6835 79.0728,22.0965 C78.9348,22.5095 78.7938,22.9325 78.6498,23.3655 C78.4698,23.7845 78.2848,24.2145 78.0958,24.6525 C77.3748,26.4225 76.3218,28.2155 75.1158,30.0405 C73.8288,31.8075 72.3928,33.6365 70.6268,35.2525 C70.2068,35.6775 69.7638,36.0855 69.2938,36.4695 C68.8298,36.8595 68.3738,37.2675 67.8948,37.6515 C66.9108,38.3875 65.9358,39.1625 64.8778,39.8355 C62.8048,41.2455 60.5758,42.4885 58.2848,43.5925 C55.9988,44.7105 53.6288,45.6425 51.2748,46.4855 C48.9218,47.3365 46.5538,48.0115 44.2588,48.6405 C41.9538,49.2325 39.7108,49.7475 37.5668,50.1435 C35.4258,50.5585 33.3898,50.8815 31.5078,51.1505 C27.7408,51.6825 24.5798,51.9305 22.3688,52.0935 C20.1568,52.2485 18.8918,52.2975 18.8918,52.2975" id="Fill-22" fill="#45C3D4"></path>
            <path d="M180.3579,8.4322 C180.3579,8.4322 180.4629,9.2752 180.6479,10.7502 C180.7749,11.4812 180.9299,12.3692 181.1069,13.3872 C181.3649,14.3882 181.5619,15.5392 181.9309,16.7542 C182.1089,17.3632 182.2939,17.9982 182.4859,18.6552 C182.7219,19.2962 182.9659,19.9592 183.2169,20.6412 C183.4469,21.3312 183.7749,22.0012 184.0969,22.6922 C184.4289,23.3762 184.7079,24.1062 185.1279,24.7782 C185.5239,25.4622 185.9049,26.1712 186.3289,26.8642 C186.7989,27.5272 187.2739,28.1982 187.7539,28.8742 C188.2169,29.5632 188.8329,30.1392 189.3689,30.7822 C189.6489,31.0932 189.9189,31.4162 190.2089,31.7202 L191.1479,32.5622 L192.0809,33.4102 C192.3869,33.7002 192.6999,33.9792 193.0539,34.2062 C193.7369,34.6922 194.4169,35.1762 195.0919,35.6562 C195.7689,36.1352 196.5299,36.4652 197.2329,36.8712 C197.9519,37.2502 198.6369,37.6782 199.3899,37.9302 C200.8689,38.4862 202.2539,39.1582 203.6779,39.4702 C205.0809,39.8412 206.3899,40.2842 207.6559,40.4262 C208.9099,40.6332 210.0589,40.8242 211.0779,40.9932 C212.1079,41.0692 213.0069,41.1352 213.7469,41.1892 C215.2299,41.2982 216.0769,41.3602 216.0769,41.3602 C216.0769,41.3602 215.2279,41.3322 213.7419,41.2822 C212.9979,41.2572 212.0939,41.2272 211.0579,41.1922 C210.0279,41.0792 208.8679,40.9112 207.6019,40.7332 C206.3229,40.6182 204.9939,40.2032 203.5679,39.8592 C202.1209,39.5752 200.6999,38.9352 199.1989,38.3712 C198.4329,38.1212 197.7329,37.6922 196.9999,37.3132 C196.2819,36.9062 195.5059,36.5742 194.8139,36.0932 C194.1219,35.6092 193.4259,35.1212 192.7259,34.6322 C192.3639,34.4022 192.0429,34.1202 191.7289,33.8282 L190.7719,32.9692 L189.8209,32.1032 C189.5279,31.7912 189.2549,31.4612 188.9719,31.1412 C188.4299,30.4822 187.8089,29.8902 187.3409,29.1862 C186.8589,28.4952 186.3809,27.8092 185.9079,27.1312 C185.4819,26.4242 185.1009,25.7022 184.7039,25.0052 C184.2859,24.3182 183.9999,23.5802 183.6839,22.8772 C183.3729,22.1712 183.0569,21.4852 182.8399,20.7832 C182.6019,20.0892 182.3709,19.4142 182.1459,18.7612 C181.9679,18.0952 181.7959,17.4522 181.6299,16.8342 C181.2789,15.6042 181.1279,14.4362 180.9109,13.4232 C180.7739,12.3942 180.6539,11.4982 180.5559,10.7602 C180.4299,9.2792 180.3579,8.4322 180.3579,8.4322" id="Fill-24" fill="#45C3D4"></path>
            <path d="M175.6245,9.642 C175.6245,9.642 175.6735,10.607 175.8535,12.285 C176.0335,13.962 176.4045,16.348 177.0955,19.149 C177.7985,21.945 178.9265,25.137 180.6465,28.295 C181.5195,29.865 182.5505,31.413 183.7355,32.876 C184.9075,34.351 186.2915,35.686 187.7645,36.9 C189.2235,38.136 190.8425,39.172 192.4965,40.069 C194.1445,40.986 195.8825,41.657 197.5755,42.252 C198.4265,42.54 199.2855,42.755 200.1125,43.01 C200.9565,43.203 201.7825,43.392 202.5865,43.576 C203.4015,43.714 204.1925,43.848 204.9595,43.978 C205.7315,44.066 206.4785,44.151 207.1945,44.233 C207.9105,44.333 208.6045,44.329 209.2595,44.385 C209.9165,44.423 210.5395,44.487 211.1265,44.482 C212.3005,44.49 213.3255,44.544 214.1685,44.505 C215.8565,44.453 216.8205,44.423 216.8205,44.423 C216.8205,44.423 215.8575,44.487 214.1715,44.599 C213.3285,44.667 212.3015,44.649 211.1235,44.683 C209.9465,44.689 208.6145,44.649 207.1675,44.544 C206.4445,44.476 205.6915,44.405 204.9125,44.332 C204.1375,44.216 203.3365,44.096 202.5125,43.973 C201.6965,43.804 200.8575,43.63 200.0005,43.452 C199.1575,43.216 198.2895,42.992 197.4245,42.71 C195.7045,42.117 193.9355,41.447 192.2535,40.526 C190.5655,39.625 188.9075,38.58 187.4125,37.328 C185.9185,36.081 184.5175,34.71 183.3345,33.201 C182.1375,31.704 181.1005,30.124 180.2245,28.525 C178.4975,25.308 177.4565,22.046 176.7925,19.222 C176.1445,16.388 175.8945,13.976 175.7615,12.293 C175.6395,10.607 175.6245,9.642 175.6245,9.642" id="Fill-26" fill="#45C3D4"></path>
            <path d="M18.8518,377.8508 C22.0428,376.8608 30.1038,387.6838 31.6768,394.1198 C31.9368,395.1858 33.2668,395.5438 34.0138,394.7398 C37.7248,390.7408 45.2658,384.0328 51.8738,387.0258 C51.9358,387.0538 51.9958,387.0858 52.0538,387.1228 C52.6498,387.4968 56.0648,389.7218 55.8418,391.4168 C55.7018,392.4828 55.1748,393.0778 54.5028,393.3228 C53.7598,393.5938 52.9688,393.1188 52.7488,392.3598 C52.6348,391.9648 52.4088,391.5828 51.9658,391.4988 C40.1008,389.2428 32.8338,400.1868 31.5618,402.2828 C31.4358,402.4898 31.3308,402.7048 31.2428,402.9298 L30.2218,405.5738 C29.7888,405.7938 29.6298,405.6498 29.6298,405.6498 L29.4958,402.3798 C29.4938,402.3148 29.4958,402.2508 29.5038,402.1868 C30.4158,394.1938 22.9608,382.9938 18.5808,380.3338 C17.5908,379.7328 17.7098,378.2248 18.8098,377.8638 C18.8238,377.8598 18.8378,377.8548 18.8518,377.8508" id="Fill-28" fill="#B25626"></path>
        </g>
    </g>
</svg>